<?xml version="1.0" encoding="UTF-8"?>
<svg width="24" height="24" version="1.1" viewBox="20.7 244.9 5.7629 24" xmlns="http://www.w3.org/2000/svg">
 <g fill="#0091e2" stroke-width=".10688">
  <path d="m34.906 254.51c-0.06413-0.0534-0.6413-0.49166-1.8811-0.49166-0.32065 0-0.65199 0.0321-0.97264 0.0855-0.23514-1.6353-1.5926-2.4262-1.646-2.469l-0.33134-0.19239-0.21377 0.30996c-0.26721 0.41684-0.47029 0.88713-0.58786 1.3681-0.22446 0.92988-0.08551 1.8063 0.38478 2.5545-0.56648 0.32065-1.4857 0.39546-1.6781 0.40615h-15.177c-0.39547 0-0.71612 0.32065-0.71612 0.71612-0.02137 1.3254 0.20308 2.6507 0.66268 3.9012 0.52373 1.3681 1.304 2.3835 2.3087 3.0034 1.133 0.69474 2.982 1.0902 5.0663 1.0902 0.94057 0 1.8811-0.0855 2.811-0.25652 1.2933-0.23515 2.5331-0.68406 3.6768-1.336 0.94057-0.54511 1.7849-1.2398 2.5011-2.0522 1.2078-1.3574 1.9239-2.8752 2.4476-4.2219h0.21377c1.3147 0 2.127-0.52373 2.5759-0.97264 0.29927-0.27789 0.52373-0.61992 0.68405-1.0047l0.09619-0.27789z"/>
  <path d="m14.213 255.64h2.0308c0.0962 0 0.1817-0.0748 0.1817-0.1817v-1.817c0-0.0962-0.07481-0.1817-0.1817-0.1817h-2.0308c-0.09619 0-0.1817 0.0748-0.1817 0.1817v1.817c0.01069 0.10689 0.08551 0.1817 0.1817 0.1817zm2.8003 0h2.0308c0.09619 0 0.1817-0.0748 0.1817-0.1817v-1.817c0-0.0962-0.07482-0.1817-0.1817-0.1817h-2.0308c-0.09619 0-0.1817 0.0748-0.1817 0.1817v1.817c0.01069 0.10689 0.08551 0.1817 0.1817 0.1817m2.8538 0h2.0308c0.09619 0 0.1817-0.0748 0.1817-0.1817v-1.817c0-0.0962-0.07482-0.1817-0.1817-0.1817h-2.0308c-0.0962 0-0.1817 0.0748-0.1817 0.1817v1.817c0 0.10689 0.07481 0.1817 0.1817 0.1817zm2.811 0h2.0308c0.0962 0 0.1817-0.0748 0.1817-0.1817v-1.817c0-0.0962-0.07482-0.1817-0.1817-0.1817h-2.0308c-0.0962 0-0.1817 0.0748-0.1817 0.1817v1.817c0 0.10689 0.08551 0.1817 0.1817 0.1817zm-5.6648-2.5973h2.0308c0.09619 0 0.1817-0.0855 0.1817-0.1817v-1.817c0-0.0962-0.07482-0.1817-0.1817-0.1817h-2.0308c-0.09619 0-0.1817 0.0748-0.1817 0.1817v1.817c0.01069 0.0962 0.08551 0.1817 0.1817 0.1817m2.8538 0h2.0308c0.09619 0 0.1817-0.0855 0.1817-0.1817v-1.817c0-0.0962-0.07482-0.1817-0.1817-0.1817h-2.0308c-0.0962 0-0.1817 0.0748-0.1817 0.1817v1.817c0 0.0962 0.07481 0.1817 0.1817 0.1817m2.811 0h2.0308c0.0962 0 0.1817-0.0855 0.1817-0.1817v-1.817c0-0.0962-0.08551-0.1817-0.1817-0.1817h-2.0308c-0.0962 0-0.1817 0.0748-0.1817 0.1817v1.817c0 0.0962 0.08551 0.1817 0.1817 0.1817m0-2.608h2.0308c0.0962 0 0.1817-0.0748 0.1817-0.18169v-1.817c0-0.0962-0.08551-0.1817-0.1817-0.1817h-2.0308c-0.0962 0-0.1817 0.0748-0.1817 0.1817v1.817c0 0.0962 0.08551 0.18169 0.1817 0.18169m2.8324 5.2052h2.0308c0.09619 0 0.1817-0.0748 0.1817-0.1817v-1.817c0-0.0962-0.07482-0.1817-0.1817-0.1817h-2.0308c-0.0962 0-0.1817 0.0748-0.1817 0.1817v1.817c0.01069 0.10689 0.08551 0.1817 0.1817 0.1817"/>
 </g>
</svg>
