<?xml version="1.0" encoding="UTF-8"?>
<svg width="24" height="24" version="1.1" viewBox="0 0 24 24" xml:space="preserve" xmlns="http://www.w3.org/2000/svg">
<style type="text/css">
	.st0{fill:#40B4E5;}
	.st1{fill:#003764;}
</style>
<g id="a" transform="matrix(.059837 0 0 .059837 -2.9253 -3.4198)">
	<path id="b" class="st0" d="m353.2 82.2 79.3 167.8-79.3 167.8h-67.5l79.3-167.8-79.3-167.8zm-128.6 142.6 28.6-54.4-3.3-12.7-35.7-75.5h-67.5l69.4 146.9zm25.4 106.2-24.7-55.7-9-4.4-69.4 146.9h67.5l35.7-75.5v-11.3z"/>
	<path id="c" class="st1" d="m285.7 417.8-79.3-167.8 79.3-167.8h67.5l-79.3 167.8 79.3 167.8zm-138.9 0-79.3-167.8 79.3-167.8h67.5l-79.3 167.8 79.3 167.8z"/>
</g>
</svg>
