<?xml version="1.0" encoding="UTF-8" standalone="no"?>
<svg
   xmlns:dc="http://purl.org/dc/elements/1.1/"
   xmlns:cc="http://creativecommons.org/ns#"
   xmlns:rdf="http://www.w3.org/1999/02/22-rdf-syntax-ns#"
   xmlns:svg="http://www.w3.org/2000/svg"
   xmlns="http://www.w3.org/2000/svg"
   xmlns:sodipodi="http://sodipodi.sourceforge.net/DTD/sodipodi-0.dtd"
   xmlns:inkscape="http://www.inkscape.org/namespaces/inkscape"
   version="1.1"
   id="svg2"
   viewBox="0 0 225 50"
   height="50"
   width="225"
   inkscape:version="0.91 r13725"
   sodipodi:docname="logo-small.svg">
  <sodipodi:namedview
     pagecolor="#ffffff"
     bordercolor="#666666"
     borderopacity="1"
     objecttolerance="10"
     gridtolerance="10"
     guidetolerance="10"
     inkscape:pageopacity="0"
     inkscape:pageshadow="2"
     inkscape:window-width="1600"
     inkscape:window-height="834"
     id="namedview26"
     showgrid="false"
     inkscape:zoom="3.109375"
     inkscape:cx="136.55486"
     inkscape:cy="-25.104584"
     inkscape:window-x="0"
     inkscape:window-y="27"
     inkscape:window-maximized="1"
     inkscape:current-layer="g5"
     fit-margin-top="0"
     fit-margin-left="0"
     fit-margin-right="0"
     fit-margin-bottom="0"
     units="px"
     height="50mm" />
  <title
     id="title4390">SQLUP logo</title>
  <defs
     id="defs4" />
  <metadata
     id="metadata7">
    <rdf:RDF>
      <cc:Work
         rdf:about="">
        <dc:format>image/svg+xml</dc:format>
        <dc:type
           rdf:resource="http://purl.org/dc/dcmitype/StillImage" />
        <dc:title>SQLUP logo</dc:title>
        <cc:license
           rdf:resource="http://creativecommons.org/licenses/by-sa/3.0/" />
        <dc:creator>
          <cc:Agent>
            <dc:title>startx</dc:title>
          </cc:Agent>
        </dc:creator>
      </cc:Work>
      <cc:License
         rdf:about="http://creativecommons.org/licenses/by-sa/3.0/">
        <cc:permits
           rdf:resource="http://creativecommons.org/ns#Reproduction" />
        <cc:permits
           rdf:resource="http://creativecommons.org/ns#Distribution" />
        <cc:requires
           rdf:resource="http://creativecommons.org/ns#Notice" />
        <cc:requires
           rdf:resource="http://creativecommons.org/ns#Attribution" />
        <cc:permits
           rdf:resource="http://creativecommons.org/ns#DerivativeWorks" />
        <cc:requires
           rdf:resource="http://creativecommons.org/ns#ShareAlike" />
      </cc:License>
    </rdf:RDF>
  </metadata>
  <path
     inkscape:connector-curvature="0"
     style="clip-rule:evenodd;fill:#0c6f5e;fill-opacity:1;fill-rule:evenodd"
     d="m 28.807195,41.190092 c -0.533577,-0.462799 -1.110346,-0.776754 -1.745044,-0.956448 l -0.361009,-0.08898 c -0.317256,-0.07494 -0.635078,-0.104754 -0.966702,-0.104754 -1.341599,0 -2.46716,0.492844 -3.405033,1.463758 l -0.216793,0.23894 c -0.244583,0.283066 -0.461472,0.582057 -0.634795,0.895437 -0.374998,0.717777 -0.562689,1.50846 -0.562689,2.389469 0,1.373892 0.476686,2.538199 1.414277,3.508806 0.937873,0.970914 2.063434,1.463681 3.405033,1.463681 1.313348,0 2.4528,-0.492767 3.391236,-1.463681 0.317165,-0.328229 0.577054,-0.686504 0.793379,-1.059514 l 0.08704,-0.179693 c 0.360252,-0.672116 0.53301,-1.43356 0.53301,-2.269599 0,-0.881009 -0.201579,-1.687156 -0.591225,-2.419207 -0.216328,-0.403246 -0.490861,-0.761444 -0.822203,-1.104639 L 28.807193,41.190094 M 11.320262,41.503589 10.988643,41.190094 C 10.36774,40.637391 9.6611243,40.294196 8.8968563,40.144662 c -0.318293,-0.07494 -0.650008,-0.104754 -0.981724,-0.104754 -1.3277059,0 -2.4532714,0.492844 -3.3911404,1.463758 L 4.3079505,41.742604 C 4.0622386,42.02567 3.8464837,42.324661 3.6723104,42.638041 3.2979706,43.355818 3.110568,44.146501 3.110568,45.02751 c 0,1.373892 0.4758352,2.538199 1.413426,3.508806 0.937869,0.970914 2.0634344,1.463681 3.3911403,1.463681 1.327236,0 2.4666877,-0.492767 3.4050387,-1.463681 0.317255,-0.328229 0.577047,-0.686505 0.793465,-1.059514 0.418473,-0.73209 0.620243,-1.53839 0.620243,-2.449292 0,-1.269328 -0.403728,-2.374505 -1.197387,-3.284906 z m -1.9771477,-14.544756 14.7326617,0 c 0.04273,-0.522006 -0.188542,-1.17954 -0.72212,-1.971106 L 16.9476,16.446612 C 16.225764,15.714829 15.417743,15.341397 14.508601,15.32674 l -3.404942,0 c -1.039087,0.07432 -1.6308817,0.746441 -1.7606387,2.015501 l 0,9.61659 z m -0.779011,-14.499287 6.8536377,0 c 1.053263,0.04471 1.977244,0.477994 2.799066,1.314032 l 7.835078,9.989906 c 0.591791,0.821112 0.923132,1.627605 1.010168,2.419055 l 0,12.125434 c -0.418468,-0.08979 -0.866331,-0.134608 -1.327802,-0.134608 -1.832745,0 -3.376211,0.67154 -4.660918,2.000613 -0.476119,0.493343 -0.864919,1.016231 -1.167998,1.568628 l -6.161475,0 c -0.302794,-0.552399 -0.692631,-1.075287 -1.154387,-1.56863 l -0.447007,-0.432485 c -0.851025,-0.747131 -1.818006,-1.224934 -2.8853527,-1.43352 -0.43312,-0.08979 -0.880127,-0.134608 -1.341882,-0.134608 -1.8180065,0 -3.3623183,0.67154 -4.6462711,2.000613 C 2.7934084,40.667319 2.4035709,41.190207 2.1004916,41.742604 1.133511,41.727254 0.64321608,41.205172 0.64321608,40.173976 l 0,-11.646749 c 0,-1.045546 0.50465822,-1.568396 1.51483012,-1.568396 l 4.8911375,0 0,-12.931849 c 0,-1.044664 0.5052253,-1.567438 1.5149216,-1.567438 z"
     id="path3"
     sodipodi:nodetypes="cccscccssscccsccccccscccsssccscccccccccccscccccsccccccsccssscss" />
  <g
     transform="matrix(-0.96625412,0,0,1,531.88706,-815.3457)"
     id="g5">
    <path
       style="clip-rule:evenodd;fill:#000e44;fill-opacity:1;fill-rule:evenodd"
       d="m 414.27535,826.6182 0,28.29449 -85.11081,0 0,-28.29449 85.11081,0 z m -7.54443,6.78846 -2.68363,0 0,2.57359 2.68363,0 0,-2.57359 z m -66.50064,3.79219 c -0.78767,0 -1.52189,0.1097 -2.20276,0.32901 -0.69422,0.21929 -1.32852,0.57402 -1.90259,1.0642 l 1.08122,1.56783 c 0.53401,-0.38699 1.05478,-0.67077 1.56209,-0.85136 0.49396,-0.18059 0.98746,-0.27129 1.48142,-0.27129 0.45392,0 0.83465,0.0907 1.14172,0.27129 0.30705,0.18059 0.46071,0.47097 0.46071,0.87085 0,0.1806 -0.0334,0.32832 -0.1001,0.44443 -0.0801,0.11609 -0.20046,0.21922 -0.36065,0.30952 -0.16021,0.0903 -0.36685,0.18099 -0.6205,0.27129 -0.267,0.0774 -0.594,0.16152 -0.98116,0.25182 -0.72091,0.18059 -1.33555,0.3605 -1.84286,0.54109 -0.52067,0.1806 -0.94075,0.3876 -1.26116,0.61979 -0.33375,0.2322 -0.57447,0.50281 -0.72133,0.8124 -0.16019,0.29669 -0.24043,0.658 -0.24043,1.0837 0,0.99328 0.38074,1.78025 1.1417,2.36074 0.76097,0.56759 1.7957,0.85137 3.10403,0.85137 0.88112,0 1.74251,-0.1353 2.58358,-0.4062 0.84106,-0.27089 1.56166,-0.6578 2.16242,-1.16089 l -1.00132,-1.62554 c -0.64082,0.43859 -1.2615,0.77355 -1.86226,1.00575 -0.61411,0.2193 -1.22194,0.32901 -1.8227,0.32901 -0.53401,0 -0.9541,-0.0965 -1.26116,-0.29004 -0.30705,-0.1935 -0.46072,-0.47069 -0.46072,-0.83188 0,-0.36119 0.18016,-0.62596 0.54062,-0.79366 0.36045,-0.1677 0.94783,-0.36077 1.7622,-0.58007 0.68086,-0.18059 1.26142,-0.35467 1.74204,-0.52235 0.4806,-0.16771 0.86817,-0.35495 1.16186,-0.56134 0.29371,-0.2193 0.50716,-0.46431 0.64066,-0.7352 0.13351,-0.2838 0.20011,-0.61952 0.20011,-1.0065 0,-0.516 -0.0999,-0.98043 -0.30015,-1.39323 -0.21361,-0.41279 -0.5073,-0.76093 -0.88111,-1.04472 -0.3738,-0.2967 -0.80753,-0.5227 -1.30149,-0.67749 -0.50731,-0.1548 -1.05456,-0.23233 -1.64197,-0.23233 z m 54.48866,0.0194 c -0.88112,0 -1.5616,0.20624 -2.0422,0.61905 -0.48062,0.41279 -0.78793,0.92256 -0.92143,1.52885 -0.42721,-0.69658 -0.96765,-1.22537 -1.62182,-1.58657 -0.65416,-0.37409 -1.40202,-0.56133 -2.24309,-0.56133 -0.64081,0 -1.16762,0.1163 -1.58148,0.34849 -0.41386,0.2322 -0.73481,0.53498 -0.96177,0.90908 -0.22694,0.37409 -0.38061,0.80051 -0.46071,1.2778 -0.0934,0.47729 -0.13961,0.96074 -0.13961,1.45092 l 0,6.32755 2.68286,0 0,-5.68903 c 0,-0.81267 0.14684,-1.40582 0.44055,-1.77993 0.28035,-0.37409 0.67473,-0.56132 1.18204,-0.56132 0.53401,0 1.03433,0.19966 1.50159,0.59955 0.46726,0.38699 0.80107,0.89678 1.00133,1.52887 l 0,5.90186 2.68363,0 0,-5.68903 c 0,-0.81267 0.14685,-1.40582 0.44056,-1.77993 0.28035,-0.37409 0.67395,-0.56132 1.18126,-0.56132 0.52065,0 1.02175,0.19307 1.50237,0.58006 0.46726,0.387 0.80029,0.89678 1.00054,1.52887 l 0,5.92135 2.68363,0 0,-10.13922 -2.42302,0 0,1.8766 c -0.38715,-0.65788 -0.91475,-1.16107 -1.58226,-1.50938 -0.68086,-0.36118 -1.45521,-0.54184 -2.32297,-0.54184 z m -17.11322,0 c -1.50858,0 -2.67652,0.36131 -3.50424,1.0837 -0.84107,0.70948 -1.26193,1.74147 -1.26193,3.09595 l 0,3.1544 c 0,0.2709 -0.0462,0.46398 -0.13961,0.58007 -0.1068,0.1161 -0.2741,0.18046 -0.50105,0.19336 l 0,2.20636 c 0.45391,0.0903 0.84751,0.1349 1.18127,0.1349 0.50731,0 0.90168,-0.10971 1.18204,-0.32901 0.26701,-0.21929 0.43352,-0.5089 0.50027,-0.8701 l 0.0605,-0.56133 c 0.46726,0.59339 1.03418,1.04465 1.70171,1.35424 0.6675,0.3096 1.38206,0.46465 2.14303,0.46465 0.50731,0 0.98115,-0.0775 1.42169,-0.23232 0.44057,-0.16769 0.82131,-0.3937 1.14172,-0.6775 0.3204,-0.29669 0.57397,-0.63824 0.76088,-1.02523 0.17355,-0.387 0.25983,-0.81267 0.25983,-1.27705 0,-0.4773 -0.10673,-0.91614 -0.32033,-1.31603 -0.22696,-0.4128 -0.5335,-0.76093 -0.92065,-1.04473 -0.40051,-0.28379 -0.87435,-0.5032 -1.42171,-0.658 -0.54737,-0.1677 -1.14837,-0.25106 -1.80254,-0.25106 -0.46726,0 -0.92142,0.038 -1.36198,0.1154 -0.45391,0.0774 -0.85433,0.18712 -1.20143,0.32901 l 0,-0.58007 c 0,-0.67079 0.20059,-1.18715 0.6011,-1.54835 0.38716,-0.36119 0.96772,-0.54184 1.74204,-0.54184 0.56071,0 1.10797,0.0973 1.64198,0.29078 0.53401,0.1935 1.08127,0.47727 1.64198,0.85136 l 0.82138,-1.64502 c -1.34838,-0.86429 -2.80396,-1.29654 -4.36595,-1.29654 z m -12.09808,0 c -0.81437,0 -1.52891,0.18066 -2.14303,0.54184 -0.61411,0.34831 -1.12125,0.81932 -1.52176,1.41271 l 0,-1.77993 -2.34313,0 0,9.65508 c 0,0.74818 0.14683,1.41887 0.44054,2.01226 0.29371,0.59338 0.70093,1.09659 1.2216,1.50938 0.50731,0.41279 1.12117,0.72875 1.84208,0.94804 0.70757,0.2193 1.48191,0.32901 2.32298,0.32901 1.14812,0 2.11624,-0.18724 2.90392,-0.56133 0.77431,-0.3612 1.44193,-0.87682 2.00263,-1.54761 l -1.46203,-1.37373 c -0.40051,0.47729 -0.90083,0.85102 -1.5016,1.12192 -0.61411,0.2709 -1.26205,0.40695 -1.94292,0.40695 -0.41385,0 -0.80745,-0.0585 -1.18126,-0.17463 -0.38716,-0.10319 -0.72778,-0.27068 -1.02149,-0.50287 -0.29371,-0.23219 -0.52079,-0.52914 -0.68099,-0.89034 -0.17355,-0.36119 -0.25983,-0.78686 -0.25983,-1.27705 l 0,-1.27705 c 0.3471,0.58049 0.8338,1.03175 1.46126,1.35424 0.62746,0.30959 1.30189,0.46466 2.02281,0.46466 0.70756,0 1.34869,-0.1353 1.92276,-0.4062 0.57406,-0.27089 1.07438,-0.63878 1.50159,-1.10318 0.41385,-0.47729 0.73403,-1.02509 0.96099,-1.64428 0.22695,-0.61919 0.3405,-1.27744 0.3405,-1.97404 0,-0.73528 -0.11958,-1.41914 -0.35989,-2.05122 -0.24031,-0.63209 -0.57412,-1.18647 -1.00132,-1.66376 -0.42721,-0.47729 -0.94117,-0.85177 -1.54193,-1.12267 -0.60076,-0.27089 -1.26156,-0.4062 -1.98248,-0.4062 z m -13.89208,0 c -0.85442,0 -1.61513,0.14189 -2.28265,0.42569 -0.68086,0.28379 -1.25538,0.66485 -1.72264,1.14214 -0.48061,0.47729 -0.8409,1.03168 -1.0812,1.66377 -0.25366,0.63209 -0.38083,1.29035 -0.38083,1.97404 0,0.1677 0.007,0.32859 0.0202,0.48339 0,0.15479 0.0136,0.28351 0.0403,0.38671 l 8.10984,0 c -0.04,0.39989 -0.13996,0.75461 -0.30016,1.06421 -0.1602,0.30959 -0.36684,0.57436 -0.62049,0.79366 -0.25366,0.2193 -0.54053,0.38678 -0.86094,0.50287 -0.3204,0.11611 -0.65421,0.17463 -1.00132,0.17463 -0.53401,0 -1.03511,-0.12289 -1.50237,-0.36798 -0.48061,-0.258 -0.80761,-0.59371 -0.98116,-1.0065 l -2.3028,0.61979 c 0.38715,0.77398 1.00783,1.41248 1.86226,1.91558 0.84106,0.49018 1.8493,0.73519 3.02413,0.73519 0.84107,0 1.60177,-0.1353 2.28264,-0.40619 0.68086,-0.2838 1.26142,-0.66486 1.74204,-1.14215 0.48061,-0.47729 0.85452,-1.03168 1.12154,-1.66376 0.25365,-0.6321 0.38083,-1.29619 0.38083,-1.99277 0,-0.7224 -0.12718,-1.39966 -0.38083,-2.03175 -0.25366,-0.64499 -0.62077,-1.20671 -1.10138,-1.684 -0.48061,-0.49018 -1.06118,-0.87709 -1.74204,-1.16088 -0.69421,-0.2838 -1.46855,-0.42569 -2.32297,-0.42569 z m 55.11536,0.17462 -2.68363,0 0,10.13922 2.68363,0 0,-10.13922 z m -55.07503,1.70274 c 0.36046,0 0.70031,0.0644 1.02071,0.19335 0.30707,0.11611 0.58108,0.28359 0.82139,0.50288 0.2403,0.21929 0.44012,0.48407 0.60032,0.79366 0.14686,0.30959 0.23391,0.65115 0.26061,1.02524 l -5.44716,0 c 0.0667,-0.76109 0.36044,-1.36741 0.8811,-1.8189 0.50731,-0.4644 1.12877,-0.69623 1.86303,-0.69623 z m 13.27081,0.329 c 0.41386,0 0.78779,0.09 1.12155,0.27055 0.33375,0.1677 0.62063,0.40029 0.86093,0.69698 0.24031,0.28379 0.42727,0.61218 0.56077,0.98627 0.12016,0.37409 0.17995,0.761 0.17995,1.16089 0,0.4128 -0.0734,0.80044 -0.22028,1.16164 -0.14686,0.36119 -0.34667,0.67714 -0.60033,0.94804 -0.267,0.27089 -0.57433,0.48373 -0.92143,0.63853 -0.3471,0.1548 -0.72785,0.23233 -1.14171,0.23233 -0.2937,0 -0.57376,-0.0453 -0.84076,-0.13565 -0.26701,-0.0903 -0.51377,-0.21318 -0.74072,-0.36798 -0.22696,-0.1548 -0.42755,-0.33545 -0.60111,-0.54185 -0.17354,-0.20639 -0.30676,-0.42581 -0.40021,-0.658 l 0,-2.41846 c 0.2403,-0.59339 0.62027,-1.07025 1.14092,-1.43144 0.50732,-0.36119 1.04172,-0.54185 1.60243,-0.54185 z m 12.71935,3.26982 c 0.69422,0 1.26115,0.15506 1.70171,0.46466 0.44055,0.29669 0.66083,0.67701 0.66083,1.1414 0,0.4386 -0.17334,0.80649 -0.52044,1.10318 -0.34712,0.28379 -0.77401,0.42569 -1.28133,0.42569 -0.4539,0 -0.88159,-0.0776 -1.2821,-0.23233 -0.41385,-0.1548 -0.73403,-0.36104 -0.96098,-0.61904 -0.29371,-0.21929 -0.44055,-0.46506 -0.44055,-0.73596 l 0,-1.16088 c 0.32041,-0.1161 0.66784,-0.20605 1.04165,-0.27055 0.37381,-0.0774 0.73411,-0.11617 1.08121,-0.11617 z"
       id="rect4200"
       inkscape:connector-curvature="0" />
    <path
       style="clip-rule:evenodd;fill:#0c6f5e;fill-opacity:1;fill-rule:evenodd"
       d="m 507.39906,826.6182 0,28.29449 -85.11003,0 0,-28.29449 85.11003,0 z m -47.30567,6.78846 -2.68364,0 0,8.57213 -4.2054,-4.5671 -2.86357,0 3.90523,4.29581 -4.18523,5.82468 2.86358,0 3.04352,-4.39249 1.44187,1.37373 0,3.01876 2.68364,0 0,-14.12552 z m 39.20047,0.38671 -5.16638,0 c -1.16148,0 -2.17577,0.18066 -3.04352,0.54186 -0.88113,0.36118 -1.61535,0.85196 -2.20276,1.47115 -0.58742,0.6192 -1.02795,1.34764 -1.32165,2.18613 -0.29371,0.82559 -0.44055,1.7091 -0.44055,2.65078 0,1.04488 0.16651,1.9935 0.50027,2.84488 0.32041,0.83849 0.78742,1.56035 1.40154,2.16664 0.61411,0.5934 1.35516,1.05782 2.22293,1.39322 0.85441,0.3225 1.81571,0.48415 2.88374,0.48415 l 5.16638,0 0,-13.73881 z m -2.76352,2.34127 0,9.05627 -2.40286,0 c -0.68087,0 -1.28188,-0.1163 -1.80254,-0.34849 -0.53401,-0.23219 -0.97455,-0.54815 -1.32165,-0.94805 -0.36046,-0.41279 -0.6337,-0.89698 -0.82061,-1.45167 -0.1869,-0.55469 -0.28077,-1.15442 -0.28077,-1.79941 0,-0.65789 0.0939,-1.26421 0.28077,-1.8189 0.18691,-0.55468 0.46015,-1.03155 0.82061,-1.43144 0.36046,-0.39988 0.80781,-0.71001 1.34182,-0.92931 0.52066,-0.21929 1.11485,-0.329 1.78237,-0.329 l 2.40286,0 z m -16.7355,1.08369 c -0.85441,0 -1.61589,0.14189 -2.28341,0.42569 -0.68087,0.28379 -1.25461,0.6707 -1.72187,1.16088 -0.48061,0.4773 -0.84772,1.03243 -1.10137,1.66451 -0.25366,0.6321 -0.38084,1.30277 -0.38084,2.01226 0,0.69659 0.12718,1.36068 0.38084,1.99277 0.25365,0.6321 0.61394,1.19381 1.0812,1.684 0.46726,0.4773 1.04178,0.85761 1.72265,1.14141 0.68087,0.28379 1.44839,0.42568 2.3028,0.42568 0.85442,0 1.62194,-0.14189 2.30281,-0.42568 0.68087,-0.2838 1.26143,-0.66411 1.74204,-1.14141 0.46726,-0.49019 0.82755,-1.0519 1.08121,-1.684 0.25366,-0.63209 0.38083,-1.29618 0.38083,-1.99277 0,-0.70949 -0.12717,-1.38016 -0.38083,-2.01226 -0.25366,-0.63208 -0.61395,-1.18721 -1.08121,-1.66451 -0.48061,-0.49018 -1.06117,-0.87709 -1.74204,-1.16088 -0.68087,-0.2838 -1.44839,-0.42569 -2.30281,-0.42569 z m -12.70461,0 c -1.14812,0 -2.12228,0.23918 -2.9233,0.71647 -0.81436,0.47729 -1.42219,1.10262 -1.8227,1.87661 l 2.62314,0.77417 c 0.22695,-0.37409 0.52746,-0.65787 0.90127,-0.85136 0.3738,-0.2064 0.78785,-0.30953 1.24176,-0.30953 0.38716,0 0.74746,0.0768 1.08121,0.23158 0.33376,0.1419 0.62745,0.34889 0.8811,0.61979 0.2403,0.258 0.43409,0.57396 0.58094,0.94805 0.1335,0.37409 0.20011,0.78659 0.20011,1.23808 0,0.45149 -0.0734,0.86474 -0.22028,1.23883 -0.14686,0.37409 -0.34063,0.69588 -0.58093,0.96678 -0.25365,0.27089 -0.54734,0.48373 -0.88111,0.63853 -0.33375,0.1419 -0.68723,0.21359 -1.06104,0.21359 -0.48061,0 -0.92115,-0.1163 -1.32165,-0.3485 -0.41386,-0.23219 -0.70073,-0.51596 -0.86094,-0.85136 l -2.62391,0.77343 c 0.36046,0.77398 0.95465,1.40664 1.78237,1.89684 0.82771,0.49018 1.82232,0.7352 2.9838,0.7352 0.85441,0 1.62194,-0.14189 2.3028,-0.42568 0.68087,-0.2838 1.2622,-0.66411 1.74282,-1.14141 0.48061,-0.49019 0.85376,-1.0519 1.12077,-1.684 0.25365,-0.64499 0.38082,-1.31566 0.38082,-2.01225 0,-0.70949 -0.12717,-1.38017 -0.38082,-2.01225 -0.25365,-0.63209 -0.62077,-1.18648 -1.10138,-1.66378 -0.48061,-0.47729 -1.06117,-0.85835 -1.74204,-1.14214 -0.68086,-0.2838 -1.44838,-0.42569 -2.30281,-0.42569 z m -23.08082,0 c -0.85441,0 -1.61589,0.14189 -2.28341,0.42569 -0.68087,0.28379 -1.25461,0.66485 -1.72187,1.14214 -0.48061,0.4773 -0.84091,1.03169 -1.08121,1.66378 -0.25366,0.63208 -0.38083,1.29034 -0.38083,1.97403 0,0.1677 0.007,0.32859 0.0202,0.48339 0,0.15479 0.0136,0.28351 0.0403,0.38671 l 8.10986,0 c -0.04,0.3999 -0.13996,0.75461 -0.30017,1.06421 -0.1602,0.30959 -0.36683,0.57437 -0.62048,0.79366 -0.25366,0.2193 -0.54131,0.38678 -0.86172,0.50287 -0.32041,0.11611 -0.65422,0.17463 -1.00132,0.17463 -0.53401,0 -1.03434,-0.12289 -1.5016,-0.36798 -0.48061,-0.258 -0.8076,-0.59371 -0.98115,-1.0065 l -2.30282,0.61979 c 0.38717,0.77398 1.00785,1.41248 1.86227,1.91558 0.84107,0.49018 1.8493,0.7352 3.02412,0.7352 0.84108,0 1.60178,-0.1353 2.28266,-0.4062 0.68086,-0.2838 1.26142,-0.66486 1.74202,-1.14215 0.48062,-0.47729 0.85455,-1.03168 1.12155,-1.66376 0.25366,-0.63209 0.38006,-1.29619 0.38006,-1.99277 0,-0.72239 -0.1264,-1.39966 -0.38006,-2.03175 -0.25365,-0.64499 -0.62077,-1.2067 -1.10137,-1.684 -0.48062,-0.49018 -1.06118,-0.87709 -1.74204,-1.16088 -0.69422,-0.2838 -1.46855,-0.42569 -2.32298,-0.42569 z m -13.38792,0.039 -0.32111,0 c -0.0801,0 -0.15352,0.006 -0.22027,0.0194 l 0,2.36076 c 0.81436,0.0129 1.54255,0.1672 2.18336,0.4639 0.64081,0.28379 1.10101,0.71605 1.38137,1.29654 l 0,6.13419 2.68364,0 0,-10.13922 -2.46336,0 0,2.16664 c -0.18691,-0.34829 -0.40717,-0.65766 -0.66082,-0.92855 -0.25366,-0.28381 -0.52691,-0.52882 -0.82061,-0.73521 -0.29371,-0.2064 -0.5874,-0.36146 -0.88111,-0.46465 -0.30705,-0.11611 -0.60074,-0.17387 -0.88109,-0.17387 z m 13.42748,1.83838 c 0.36046,0 0.70108,0.0644 1.02149,0.19335 0.30706,0.11611 0.58108,0.28359 0.82138,0.50288 0.2403,0.2193 0.44013,0.48407 0.60032,0.79366 0.14686,0.30959 0.23391,0.65115 0.26061,1.02524 l -5.44715,0 c 0.0667,-0.76109 0.36044,-1.3674 0.88109,-1.8189 0.50731,-0.46438 1.12799,-0.69623 1.86226,-0.69623 z m 35.74587,0.32901 c 0.38716,0 0.74746,0.0768 1.08122,0.23157 0.33375,0.1548 0.62744,0.36763 0.8811,0.63853 0.24031,0.27089 0.43408,0.59343 0.58093,0.96753 0.1335,0.37409 0.20011,0.78075 0.20011,1.21934 0,0.4515 -0.0666,0.864 -0.20011,1.23809 -0.14685,0.36119 -0.34062,0.67714 -0.58093,0.94804 -0.25366,0.2709 -0.54735,0.48373 -0.8811,0.63853 -0.33376,0.1419 -0.69406,0.21359 -1.08122,0.21359 -0.38715,0 -0.74745,-0.0718 -1.08121,-0.21359 -0.33375,-0.1548 -0.6214,-0.36763 -0.86171,-0.63853 -0.25365,-0.2709 -0.44666,-0.59269 -0.58016,-0.96678 -0.14685,-0.37409 -0.22027,-0.78734 -0.22027,-1.23883 0,-0.4386 0.0734,-0.8445 0.22027,-1.21859 0.1335,-0.3741 0.32651,-0.69664 0.58016,-0.96754 0.24031,-0.2709 0.52796,-0.47789 0.86171,-0.61979 0.33376,-0.15479 0.69406,-0.23157 1.08121,-0.23157 z"
       id="rect7"
       inkscape:connector-curvature="0" />
    <g
       transform="scale(-1.0173123,0.98298231)"
       style="font-style:normal;font-weight:normal;font-size:51.29947281px;line-height:150%;font-family:Sans;letter-spacing:0px;word-spacing:0.18057413px;fill:#ffffff;fill-opacity:1;stroke:none;stroke-width:1px;stroke-linecap:butt;stroke-linejoin:miter;stroke-opacity:1"
       id="text4180">
      <g
         id="g4227" />
    </g>
    <g
       transform="matrix(-0.390358,0,0,0.37718507,338.98743,533.29956)"
       style="font-style:normal;font-weight:normal;font-size:14.16705799px;line-height:150%;font-family:Sans;letter-spacing:0px;word-spacing:0.04986805px;fill:#000e44;fill-opacity:1;stroke:none;stroke-width:1px;stroke-linecap:butt;stroke-linejoin:miter;stroke-opacity:1"
       id="text4184">
      <path
         d="m -397.86042,874.75886 q -0.85002,0 -1.51587,-0.38251 -0.66585,-0.38251 -1.04836,-1.04836 l 0,1.2892 -1.65754,0 0,-10.34193 1.89838,0 0,4.22177 q 0.39668,-0.68002 1.03419,-1.04836 0.65169,-0.38251 1.51587,-0.38251 0.72252,0 1.31754,0.31168 0.59501,0.31167 1.02002,0.83585 0.43918,0.52418 0.66585,1.23253 0.24084,0.70835 0.24084,1.48754 0,0.80752 -0.26917,1.50171 -0.25501,0.69418 -0.72252,1.21836 -0.46751,0.51001 -1.10503,0.80752 -0.63751,0.29751 -1.3742,0.29751 z m -0.52418,-1.61504 q 0.45335,0 0.83586,-0.17001 0.38251,-0.18417 0.65168,-0.48168 0.26917,-0.2975 0.41084,-0.69418 0.15584,-0.39668 0.15584,-0.85002 0,-0.45335 -0.14167,-0.86419 -0.14167,-0.41084 -0.41084,-0.72252 -0.25501,-0.31167 -0.60919,-0.49585 -0.35417,-0.18417 -0.77918,-0.18417 -0.63752,0 -1.14753,0.42501 -0.49585,0.41085 -0.76502,1.02003 l 0,1.77088 q 0.0992,0.28334 0.28334,0.51001 0.19834,0.22667 0.43918,0.39668 0.24084,0.15584 0.52418,0.255 0.28334,0.085 0.55251,0.085 z"
         style="font-style:normal;font-variant:normal;font-weight:bold;font-stretch:normal;font-size:14.16702652px;line-height:150%;font-family:Raleway;-inkscape-font-specification:'Raleway, Bold';text-align:start;writing-mode:lr-tb;text-anchor:start"
         id="path4241"
         inkscape:connector-curvature="0" />
      <path
         d="m -393.18264,876.06222 q 0.24084,0.0708 0.46751,0.0992 0.22667,0.0425 0.38251,0.0425 0.18417,0 0.34001,-0.0708 0.15583,-0.0708 0.28334,-0.25501 0.1275,-0.17 0.255,-0.48168 0.12751,-0.31167 0.26918,-0.77918 l -2.93258,-7.42352 1.95505,0 2.01172,5.78014 1.78505,-5.78014 1.78504,0 -3.11674,8.89689 q -0.26918,0.77918 -0.92086,1.27503 -0.65168,0.49585 -1.61504,0.49585 -0.22667,0 -0.46751,-0.0425 -0.22668,-0.0283 -0.48168,-0.11334 l 0,-1.64338 z"
         style="font-style:normal;font-variant:normal;font-weight:bold;font-stretch:normal;font-size:14.16702652px;line-height:150%;font-family:Raleway;-inkscape-font-specification:'Raleway, Bold';text-align:start;writing-mode:lr-tb;text-anchor:start"
         id="path4243"
         inkscape:connector-curvature="0" />
    </g>
    <path
       style="fill:#000e44;fill-opacity:1;stroke:none"
       d="m 486.74116,859.35697 c 1.04363,0 1.56573,0.34316 1.56573,1.02905 0,0.26545 -0.0752,0.47288 -0.22557,0.62292 -0.15031,0.14838 -0.44864,0.30425 -0.89444,0.46748 l -0.4173,0.15368 -0.35136,0.12855 c -0.1059,0.038 -0.18877,0.0982 -0.24855,0.18057 -0.0546,0.0758 -0.0817,0.16356 -0.0817,0.26413 0,0.32976 0.28799,0.49495 0.8636,0.49495 0.39627,0 0.84524,-0.0816 1.3474,-0.24484 l 0,0.62291 -0.40458,0.0596 c -0.30402,0.0445 -0.57823,0.0666 -0.82247,0.0666 -0.62002,0 -1.0772,-0.0897 -1.37099,-0.26939 -0.29549,-0.17807 -0.44329,-0.45768 -0.44329,-0.83855 0,-0.27534 0.0815,-0.49348 0.24371,-0.65506 0.16227,-0.16322 0.4531,-0.31978 0.87328,-0.46982 l 0.43604,-0.15602 0.29209,-0.10869 c 0.1691,-0.0626 0.28099,-0.12148 0.33565,-0.17589 0.058,-0.0577 0.0871,-0.13864 0.0871,-0.2425 0,-0.15828 -0.0601,-0.26936 -0.17962,-0.33368 -0.11957,-0.0626 -0.32954,-0.0941 -0.63017,-0.0941 -0.37405,10e-6 -0.7719,0.0675 -1.19379,0.20278 l 0,-0.57852 c 0.40823,-0.0841 0.81438,-0.12621 1.21919,-0.12621 z m -1.75544,0.0917 0,0.50196 -1.10672,0 0,3.15784 -0.78921,0 0,-3.15784 -1.10671,0 0,-0.50196 z m -4.18677,0 1.47078,3.6598 -0.57633,0 -0.38705,-0.97645 -1.56815,0 -0.38645,0.97645 -0.80735,0 1.46534,-3.6598 z m -2.73352,0 0,3.6598 -0.74325,0 0,-1.49594 -0.61747,0 -1.06559,1.49594 -0.88658,0 1.24037,-1.70864 c -0.20154,-0.094 -0.35624,-0.1977 -0.46385,-0.31146 -0.18106,-0.19455 -0.27154,-0.43872 -0.27154,-0.73221 0,-0.60508 0.38477,-0.90749 1.1551,-0.90749 z m -3.30744,0 0,0.50196 -1.10732,0 0,3.15784 -0.78922,0 0,-3.15784 -1.10672,0 0,-0.50196 z m -3.28506,0 -1.16054,1.85707 1.21435,1.80273 -0.63802,0 -0.88113,-1.30778 -0.82248,1.30778 -0.91743,0 1.20469,-1.93362 -1.16356,-1.72618 0.63802,0 0.83518,1.23123 0.77107,-1.23123 z m 5.84925,0.50196 -0.5074,0 c -0.23742,0 -0.4191,0.0354 -0.54549,0.10635 -0.14689,0.0808 -0.22013,0.21397 -0.22014,0.40028 10e-6,0.17807 0.0526,0.32254 0.15845,0.43301 0.14006,0.14673 0.37348,0.2203 0.69971,0.22029 l 0.41487,0 z m 3.2004,0.23491 -0.58965,1.45913 1.17868,0 z"
       id="rect2864-6"
       inkscape:connector-curvature="0"
       sodipodi:nodetypes="csccccccscccscccccccccccccccccccccccccccccccccccccccccsccccccccccccccccccccccccccccscccccc" />
  </g>
  <path
     style="fill:none;fill-opacity:1;fill-rule:evenodd;stroke:#000e44;stroke-width:3.91224456;stroke-linecap:round;stroke-linejoin:round;stroke-miterlimit:4;stroke-dasharray:none;stroke-opacity:1"
     d="m 222.96655,35.73635 0,-32.7405233 -12.98945,0"
     id="path4190"
     inkscape:connector-curvature="0" />
  <path
     id="path4192"
     d="m 33.655612,11.533639 c 0.288622,0.31365 0.432838,0.687158 0.432838,1.119758 l 0,31.433321 10.98031,0 c 0.418756,0 0.779295,0.149458 1.067918,0.447681 0.302793,0.314339 0.447292,0.687387 0.447292,1.120448 l 0,1.149418 c 0,0.433099 -0.144499,0.806108 -0.447292,1.105214 -0.288719,0.31338 -0.649162,0.462338 -1.067918,0.462338 l -13.592154,0 c 0.562963,-0.999885 0.851586,-2.120063 0.851586,-3.359271 0,-1.896742 -0.648878,-3.508959 -1.933397,-4.838647 l -0.447011,-0.432484 0,-27.088018 c 0,-0.4326 0.143835,-0.806108 0.432834,-1.119758 0.302515,-0.298337 0.663902,-0.447871 1.081809,-0.447871 l 1.111477,0 c 0.418376,0 0.778918,0.149534 1.081708,0.447871 z"
     style="clip-rule:evenodd;fill:#000e44;fill-opacity:1;fill-rule:evenodd"
     inkscape:connector-curvature="0"
     sodipodi:nodetypes="cscscsscscsccscssc" />
</svg>
