<?xml version="1.0" encoding="UTF-8"?>
<svg width="130" height="50" version="1.1" viewBox="0 0 130 50" xmlns="http://www.w3.org/2000/svg"><title>SQLUP logo</title><g transform="matrix(-.96625 0 0 1 531.89 -815.35)"><g transform="scale(-1.0173 .98298)" fill="#fff"></g><g transform="matrix(-1.274 0 0 1.231 545.24 815.88)"><g transform="matrix(.91402 0 0 .91402 3.1456 .32288)" fill="#005e2c"><polygon class="st0" transform="matrix(.26345 0 0 .26345 -.58412 -15.974)" points="52.2 75 30.6 62.5 9 75 9 99.9 30.6 112.3 52.2 99.9"/><path class="st0" d="m21.914 21.885 5.3744 3.1088 5.3744-3.1088v-6.2175l-5.3744-3.1088-5.3744 3.1088zm5.3744 3.7937-5.9804-3.4513v-6.9288l5.9804-3.4513 5.9804 3.4513v6.9288z" fill="#005e2c" stroke-width="1.0506"/><polygon class="st0" transform="matrix(.26345 0 0 .26345 -.58412 -15.974)" points="78.4 118.6 78.4 144.9 55.7 158 32.9 144.9 32.9 118.6 55.7 105.5"/><path class="st0" d="m15.302 10.161 5.4008 3.1088 5.3744-3.1088v-6.1912l-5.3744-3.1088-5.4008 3.1088zm5.4008 3.8201-6.0067-3.4513v-6.9288l5.9804-3.4513 5.9804 3.4513v6.9288z" stroke-width="1.0506"/></g></g><path class="cls-1" d="m548.41 843.47c-1.1537-0.75943-4.1845-1.0838-6.3877-0.50287-0.11835-2.1463-1.251-3.9553-3.3211-5.5337l-0.76609-0.50287-0.51074 0.75467c-1.004 1.4902-1.4272 3.4764-1.2775 5.282 0.11821 1.1125 0.51352 2.3625 1.2775 3.2697-2.8678 1.627-5.5117 1.2576-17.219 1.2576h-18.075c-0.0524 2.5855 0.37221 7.5582 3.6058 11.607 0.35751 0.44746 0.74862 0.87987 1.174 1.2966 2.6292 2.5746 6.6017 4.463 12.542 4.4677 9.0624 8e-3 16.827-4.7825 21.549-16.365 1.5538 0.0246 5.6565 0.27233 7.6644-3.5216 0.049-0.0637 0.51073-1.0058 0.51073-1.0058l-0.76539-0.50286z" fill="#1d63ed" stroke-width="0px"/><g><rect transform="scale(-1,1)" x="-496.56" y="817.18" width="74.127" height="27.399" ry="0" fill="#fff" stop-color="#000000" stroke="#005e2c" stroke-linecap="square" stroke-linejoin="bevel" stroke-width=".50866"/><rect transform="scale(-1,1)" x="-496.56" y="847.02" width="74.132" height="18.235" ry="0" fill="#005e2c" stop-color="#000000"/><g transform="scale(-1.0173 .98298)" fill="#fff" stroke-width="2.1726" aria-label="by STARTX"><path d="m-477.65 871.37q0-1.1485-0.47526-1.7992-0.4696-0.65631-1.2956-0.65631t-1.3013 0.65631q-0.4696 0.65066-0.4696 1.7992 0 1.1486 0.4696 1.8049 0.47526 0.65066 1.3013 0.65066t1.2956-0.65066q0.47526-0.65631 0.47526-1.8049zm-3.5418-2.2122q0.32816-0.56579 0.82605-0.83736 0.50355-0.27724 1.1995-0.27724 1.1542 0 1.8728 0.91658 0.7242 0.91657 0.7242 2.4102 0 1.4937-0.7242 2.4102-0.71855 0.91658-1.8728 0.91658-0.69592 0-1.1995-0.27158-0.49789-0.27724-0.82605-0.84302v0.95052h-1.0467v-8.8036h1.0467z"/><path d="m-472.21 875.12q-0.44132 1.1316-0.86 1.4767t-1.1203 0.34513h-0.8317v-0.87131h0.61105q0.42999 0 0.66762-0.20369 0.23763-0.20368 0.52619-0.96183l0.18671-0.47526-2.563-6.235h1.1033l1.9802 4.9563 1.9802-4.9563h1.1033z"/><path d="m-459.19 866.37v1.1146q-0.65065-0.31119-1.2278-0.46395t-1.1146-0.15276q-0.93355 0-1.4428 0.3621-0.50355 0.36211-0.50355 1.0297 0 0.56013 0.33381 0.84868 0.33947 0.2829 1.2787 0.45829l0.69026 0.14145q1.2787 0.24328 1.8841 0.85999 0.61105 0.61105 0.61105 1.6408 0 1.2278-0.82605 1.8614-0.82039 0.63368-2.4102 0.63368-0.59974 0-1.2787-0.13579-0.67329-0.13579-1.3975-0.40171v-1.1768q0.69591 0.3904 1.3635 0.58842 0.66763 0.19803 1.3126 0.19803 0.97881 0 1.5106-0.38474 0.53184-0.38473 0.53184-1.0976 0-0.62237-0.38473-0.97315-0.37908-0.35079-1.2504-0.52619l-0.69592-0.13578q-1.2787-0.25461-1.8501-0.79776-0.57144-0.54316-0.57144-1.5106 0-1.1203 0.78644-1.7652 0.7921-0.645 2.1783-0.645 0.59407 0 1.2108 0.1075t1.2617 0.3225z"/><path d="m-458.07 866.09h7.1459v0.96184h-2.9987v7.4854h-1.1485v-7.4854h-2.9987z"/><path d="m-447.9 867.22-1.5503 4.2038h3.1062zm-0.645-1.1259h1.2956l3.2193 8.4472h-1.1882l-0.76947-2.167h-3.8077l-0.76947 2.167h-1.2051z"/><path d="m-438.79 870.58q0.36776 0.12447 0.71289 0.53183 0.35079 0.40737 0.70158 1.1203l1.1599 2.3084h-1.2278l-1.0806-2.167q-0.41868-0.84868-0.81473-1.1259-0.39039-0.27723-1.0693-0.27723h-1.2447v3.5701h-1.1429v-8.4472h2.58q1.4484 0 2.1613 0.60539t0.71289 1.8275q0 0.79776-0.37342 1.3239-0.36776 0.52618-1.075 0.72987zm-2.8629-3.5475v2.9987h1.4371q0.82605 0 1.2447-0.37907 0.42434-0.38474 0.42434-1.1259t-0.42434-1.1146q-0.41868-0.37907-1.2447-0.37907z"/><path d="m-436.75 866.09h7.1459v0.96184h-2.9987v7.4854h-1.1486v-7.4854h-2.9987z"/><path d="m-428.9 866.09h1.2278l2.0991 3.1401 2.1104-3.1401h1.2278l-2.7158 4.0567 2.8968 4.3905h-1.2278l-2.3763-3.5927-2.3933 3.5927h-1.2334l3.0156-4.5093z"/></g><g transform="scale(-1.0173 .98298)" fill="#005e2c" stroke-width="2.1726" aria-label="Containers"><path d="m-475.83 841.81v1.2051q-0.5771-0.5375-1.2334-0.80342-0.65065-0.26592-1.3862-0.26592-1.4484 0-2.2179 0.88829-0.76947 0.88262-0.76947 2.5574 0 1.6691 0.76947 2.5574 0.76947 0.88263 2.2179 0.88263 0.73553 0 1.3862-0.26592 0.65631-0.26592 1.2334-0.80342v1.1938q-0.59973 0.40737-1.273 0.61105-0.66763 0.20369-1.4145 0.20369-1.918 0-3.0213-1.1712-1.1033-1.1768-1.1033-3.208 0-2.0368 1.1033-3.208 1.1033-1.1768 3.0213-1.1768 0.75815 0 1.4258 0.20368 0.67329 0.19803 1.2617 0.59973z" style="font-variant-caps:normal;font-variant-east-asian:normal;font-variant-ligatures:normal;font-variant-numeric:normal"/><path d="m-471.64 844q-0.83736 0-1.3239 0.65631-0.48657 0.65065-0.48657 1.7879t0.48091 1.7935q0.48658 0.65066 1.3296 0.65066 0.83171 0 1.3183-0.65631 0.48658-0.65631 0.48658-1.7879 0-1.1259-0.48658-1.7822-0.48657-0.66197-1.3183-0.66197zm0-0.88263q1.3579 0 2.133 0.88263 0.77512 0.88262 0.77512 2.4442 0 1.5559-0.77512 2.4442-0.77513 0.88263-2.133 0.88263-1.3635 0-2.1387-0.88263-0.76947-0.88829-0.76947-2.4442 0-1.5616 0.76947-2.4442 0.77513-0.88263 2.1387-0.88263z" style="font-variant-caps:normal;font-variant-east-asian:normal;font-variant-ligatures:normal;font-variant-numeric:normal"/><path d="m-461.75 845.79v3.8247h-1.041v-3.7908q0-0.8996-0.35078-1.3466-0.35079-0.44697-1.0524-0.44697-0.84302 0-1.3296 0.53749-0.48658 0.5375-0.48658 1.4654v3.5814h-1.0467v-6.3368h1.0467v0.98447q0.37342-0.57144 0.87697-0.85434 0.50921-0.28289 1.1712-0.28289 1.092 0 1.6521 0.67894 0.56013 0.67329 0.56013 1.9859z" style="font-variant-caps:normal;font-variant-east-asian:normal;font-variant-ligatures:normal;font-variant-numeric:normal"/><path d="m-458.63 841.47v1.7992h2.1443v0.80908h-2.1443v3.44q0 0.77512 0.20934 0.99578 0.215 0.22066 0.86566 0.22066h1.0693v0.87131h-1.0693q-1.2051 0-1.6634-0.44697-0.45829-0.45263-0.45829-1.6408v-3.44h-0.76381v-0.80908h0.76381v-1.7992z" style="font-variant-caps:normal;font-variant-east-asian:normal;font-variant-ligatures:normal;font-variant-numeric:normal"/><path d="m-452.23 846.42q-1.2617 0-1.7483 0.28855-0.48657 0.28855-0.48657 0.98447 0 0.55447 0.3621 0.88263 0.36776 0.32249 0.99578 0.32249 0.86566 0 1.3862-0.61104 0.52618-0.61671 0.52618-1.6351v-0.23197zm2.0764-0.43v3.6154h-1.041v-0.96184q-0.35644 0.5771-0.88828 0.85434-0.53184 0.27158-1.3013 0.27158-0.97315 0-1.5502-0.54316-0.57145-0.54881-0.57145-1.4654 0-1.0693 0.71289-1.6125 0.71855-0.54315 2.1387-0.54315h1.4597v-0.10184q0-0.71855-0.47526-1.1089-0.4696-0.39605-1.3239-0.39605-0.54315 0-1.058 0.13013-0.51486 0.13013-0.99012 0.39039v-0.96184q0.57144-0.22065 1.1089-0.32815 0.53749-0.11316 1.0467-0.11316 1.3749 0 2.0538 0.71289 0.67894 0.71289 0.67894 2.1613z" style="font-variant-caps:normal;font-variant-east-asian:normal;font-variant-ligatures:normal;font-variant-numeric:normal"/><path d="m-448.01 843.27h1.041v6.3368h-1.041zm0-2.4668h1.041v1.3183h-1.041z" style="font-variant-caps:normal;font-variant-east-asian:normal;font-variant-ligatures:normal;font-variant-numeric:normal"/><path d="m-439.52 845.79v3.8247h-1.041v-3.7908q0-0.8996-0.35078-1.3466-0.35079-0.44697-1.0524-0.44697-0.84302 0-1.3296 0.53749-0.48658 0.5375-0.48658 1.4654v3.5814h-1.0467v-6.3368h1.0467v0.98447q0.37342-0.57144 0.87697-0.85434 0.50921-0.28289 1.1712-0.28289 1.092 0 1.6521 0.67894 0.56013 0.67329 0.56013 1.9859z" style="font-variant-caps:normal;font-variant-east-asian:normal;font-variant-ligatures:normal;font-variant-numeric:normal"/><path d="m-432.02 846.18v0.50921h-4.7866q0.0679 1.075 0.645 1.6408 0.58276 0.56013 1.6182 0.56013 0.59973 0 1.1599-0.14711 0.56578-0.1471 1.1202-0.44131v0.98447q-0.56012 0.23763-1.1485 0.3621-0.58842 0.12448-1.1938 0.12448-1.5163 0-2.4046-0.88263-0.88263-0.88263-0.88263-2.3876 0-1.5559 0.83737-2.4668 0.84302-0.91657 2.2688-0.91657 1.2787 0 2.0198 0.82605 0.74684 0.82039 0.74684 2.2348zm-1.041-0.30552q-0.0113-0.85434-0.48092-1.3636-0.46395-0.5092-1.2334-0.5092-0.87131 0-1.3975 0.49223-0.52052 0.49223-0.59973 1.3862z" style="font-variant-caps:normal;font-variant-east-asian:normal;font-variant-ligatures:normal;font-variant-numeric:normal"/><path d="m-426.64 844.25q-0.17539-0.10184-0.38473-0.1471-0.20369-0.0509-0.45263-0.0509-0.88263 0-1.3579 0.5771-0.4696 0.57145-0.4696 1.6464v3.3381h-1.0467v-6.3368h1.0467v0.98447q0.32815-0.5771 0.85433-0.85434 0.52619-0.28289 1.2787-0.28289 0.1075 0 0.23763 0.017 0.13013 0.0113 0.28855 0.0396z" style="font-variant-caps:normal;font-variant-east-asian:normal;font-variant-ligatures:normal;font-variant-numeric:normal"/><path d="m-421.49 843.46v0.98447q-0.44131-0.22631-0.91657-0.33947t-0.98447-0.11316q-0.77512 0-1.1655 0.23763-0.38473 0.23763-0.38473 0.71289 0 0.3621 0.27723 0.57145 0.27724 0.20368 1.1146 0.39039l0.35645 0.0792q1.1089 0.23763 1.5729 0.67328 0.46961 0.43 0.46961 1.2051 0 0.88262-0.70158 1.3975-0.69592 0.51487-1.918 0.51487-0.50921 0-1.0637-0.10185-0.54881-0.0962-1.1599-0.2942v-1.075q0.5771 0.29987 1.1372 0.45263 0.56013 0.1471 1.1089 0.1471 0.73552 0 1.1316-0.24894 0.39605-0.2546 0.39605-0.71289 0-0.42434-0.28855-0.65066-0.28289-0.22631-1.2504-0.43565l-0.3621-0.0849q-0.96749-0.20368-1.3975-0.62236-0.43-0.42434-0.43-1.1599 0-0.89394 0.63368-1.3805 0.63368-0.48658 1.7992-0.48658 0.5771 0 1.0863 0.0849t0.9392 0.2546z" style="font-variant-caps:normal;font-variant-east-asian:normal;font-variant-ligatures:normal;font-variant-numeric:normal"/></g></g></g></svg>
