<?xml version="1.0" encoding="UTF-8" standalone="no"?>
<svg
   xmlns:dc="http://purl.org/dc/elements/1.1/"
   xmlns:cc="http://creativecommons.org/ns#"
   xmlns:rdf="http://www.w3.org/1999/02/22-rdf-syntax-ns#"
   xmlns:svg="http://www.w3.org/2000/svg"
   xmlns="http://www.w3.org/2000/svg"
   xmlns:sodipodi="http://sodipodi.sourceforge.net/DTD/sodipodi-0.dtd"
   xmlns:inkscape="http://www.inkscape.org/namespaces/inkscape"
   version="1.1"
   id="svg2"
   viewBox="0 0 590 130"
   height="130"
   width="590"
   inkscape:version="0.91 r13725"
   sodipodi:docname="logo.svg">
  <sodipodi:namedview
     pagecolor="#ffffff"
     bordercolor="#666666"
     borderopacity="1"
     objecttolerance="10"
     gridtolerance="10"
     guidetolerance="10"
     inkscape:pageopacity="0"
     inkscape:pageshadow="2"
     inkscape:window-width="1600"
     inkscape:window-height="834"
     id="namedview26"
     showgrid="false"
     inkscape:zoom="0.77734375"
     inkscape:cx="447.8939"
     inkscape:cy="-125.02131"
     inkscape:window-x="0"
     inkscape:window-y="27"
     inkscape:window-maximized="1"
     inkscape:current-layer="g5"
     fit-margin-top="0"
     fit-margin-left="0"
     fit-margin-right="0"
     fit-margin-bottom="0" />
  <title
     id="title4390">SQLUP logo</title>
  <defs
     id="defs4" />
  <metadata
     id="metadata7">
    <rdf:RDF>
      <cc:Work
         rdf:about="">
        <dc:format>image/svg+xml</dc:format>
        <dc:type
           rdf:resource="http://purl.org/dc/dcmitype/StillImage" />
        <dc:title>SQLUP logo</dc:title>
        <cc:license
           rdf:resource="http://creativecommons.org/licenses/by-sa/3.0/" />
        <dc:creator>
          <cc:Agent>
            <dc:title>startx</dc:title>
          </cc:Agent>
        </dc:creator>
      </cc:Work>
      <cc:License
         rdf:about="http://creativecommons.org/licenses/by-sa/3.0/">
        <cc:permits
           rdf:resource="http://creativecommons.org/ns#Reproduction" />
        <cc:permits
           rdf:resource="http://creativecommons.org/ns#Distribution" />
        <cc:requires
           rdf:resource="http://creativecommons.org/ns#Notice" />
        <cc:requires
           rdf:resource="http://creativecommons.org/ns#Attribution" />
        <cc:permits
           rdf:resource="http://creativecommons.org/ns#DerivativeWorks" />
        <cc:requires
           rdf:resource="http://creativecommons.org/ns#ShareAlike" />
      </cc:License>
    </rdf:RDF>
  </metadata>
  <path
     inkscape:connector-curvature="0"
     style="clip-rule:evenodd;fill:#0c6f5e;fill-opacity:1;fill-rule:evenodd"
     d="m 76.127104,107.04055 c -1.390557,-1.20615 -2.893675,-2.02436 -4.547762,-2.49259 L 70.638516,104.316 c -0.826801,-0.19525 -1.655078,-0.273 -2.519323,-0.273 -3.496342,0 -6.429666,1.28442 -8.87386,3.81473 l -0.564984,0.62271 c -0.637408,0.73765 -1.202642,1.51687 -1.654339,2.33355 -0.977283,1.87064 -1.466424,3.9312 -1.466424,6.22727 0,3.58047 1.242291,6.61472 3.685747,9.14427 2.444194,2.53033 5.377518,3.81447 8.87386,3.81447 3.422716,0 6.392246,-1.28414 8.837904,-3.81447 0.826564,-0.85542 1.50386,-1.7891 2.067626,-2.76124 l 0.226831,-0.46825 c 0.938853,-1.75162 1.389078,-3.73597 1.389078,-5.91478 0,-2.29607 -0.525335,-4.3969 -1.54079,-6.30476 -0.563775,-1.05092 -1.279235,-1.98435 -2.142745,-2.87877 l -0.829993,-0.81718 m -45.572706,0.81693 -0.864233,-0.81693 c -1.618133,-1.44039 -3.459648,-2.33482 -5.451406,-2.72455 -0.829505,-0.19525 -1.693988,-0.273 -2.558472,-0.273 -3.460136,0 -6.393473,1.28442 -8.837654,3.81473 l -0.563031,0.62271 c -0.64035,0.73765 -1.202629,1.51687 -1.656542,2.33355 -0.9755673,1.87064 -1.4639573,3.9312 -1.4639573,6.22727 0,3.58047 1.2400743,6.61472 3.6835303,9.14427 2.444181,2.53033 5.377518,3.81447 8.837654,3.81447 3.458909,0 6.428439,-1.28414 8.873874,-3.81447 0.826799,-0.85542 1.503843,-1.7891 2.067851,-2.76124 1.090581,-1.90789 1.616417,-4.00921 1.616417,-6.38303 0,-3.30799 -1.05216,-6.18828 -3.120512,-8.56082 z m -5.152647,-37.905079 38.394801,0 c 0.111361,-1.360354 -0.491359,-3.074002 -1.881916,-5.136852 l -16.694833,-22.259 C 43.338626,40.649446 41.232841,39.676267 38.863524,39.63803 l -8.873622,0 c -2.707964,0.193719 -4.250242,1.94534 -4.588401,5.252567 l 0,25.061804 z m -2.03018,-37.786552 17.86127,0 c 2.744908,0.116507 5.152897,1.245669 7.29465,3.424485 l 20.419003,26.034733 c 1.542265,2.139826 2.405772,4.241665 2.632597,6.304252 l 0,31.600062 c -1.090569,-0.23399 -2.257745,-0.35073 -3.460387,-0.35073 -4.776316,0 -8.798744,1.750089 -12.14682,5.213819 -1.240814,1.28568 -2.254064,2.64833 -3.04392,4.08797 l -16.057425,0 c -0.789117,-1.43964 -1.805072,-2.80229 -3.008453,-4.08797 l -1.164946,-1.12714 c -2.217858,-1.94712 -4.737907,-3.19227 -7.519522,-3.735949 -1.128753,-0.23399 -2.293699,-0.35073 -3.49708,-0.35073 -4.737907,0 -8.762539,1.750089 -12.1086493,5.213819 -1.239336,1.28568 -2.255292,2.64833 -3.045147,4.08797 -2.520049,-0.0403 -3.797807,-1.40064 -3.797807,-4.08797 l 0,-30.352605 c 0,-2.7248 1.31519,-4.087464 3.9478,-4.087464 l 12.7467973,0 0,-33.701635 c 0,-2.722517 1.316668,-4.084917 3.948039,-4.084917 z"
     id="path3"
     sodipodi:nodetypes="cccscccssscccsccccccscccsssccscccccccccccscccccsccccccsccssscss" />
  <g
     transform="matrix(-0.96625412,0,0,1,533.58082,-735.34568)"
     id="g5">
    <path
       style="clip-rule:evenodd;fill:#000e44;fill-opacity:1;fill-rule:evenodd"
       d="M 343.99414 29.072266 L 343.99414 102.81055 L 558.31641 102.81055 L 558.31641 29.072266 L 343.99414 29.072266 z M 362.99219 46.763672 L 369.75 46.763672 L 369.75 53.470703 L 362.99219 53.470703 L 362.99219 46.763672 z M 530.45117 56.646484 C 532.43464 56.646484 534.28352 56.9324 535.99805 57.503906 C 537.74619 58.075419 539.34348 58.99986 540.78906 60.277344 L 538.06641 64.363281 C 536.72168 63.354741 535.4103 62.615183 534.13281 62.144531 C 532.88894 61.673879 531.64621 61.4375 530.40234 61.4375 C 529.25933 61.4375 528.30056 61.673879 527.52734 62.144531 C 526.75413 62.615183 526.36719 63.371905 526.36719 64.414062 C 526.36719 64.884721 526.45105 65.269704 526.61914 65.572266 C 526.82085 65.874828 527.12393 66.14358 527.52734 66.378906 C 527.93076 66.614232 528.4511 66.850612 529.08984 67.085938 C 529.76221 67.287645 530.58562 67.506862 531.56055 67.742188 C 533.37592 68.212846 534.92368 68.681692 536.20117 69.152344 C 537.51228 69.622996 538.57012 70.162454 539.37695 70.767578 C 540.21741 71.372709 540.82356 72.077934 541.19336 72.884766 C 541.59678 73.65798 541.79883 74.599584 541.79883 75.708984 C 541.79883 78.297577 540.84006 80.348512 538.92383 81.861328 C 537.0076 83.34052 534.40199 84.080078 531.10742 84.080078 C 528.88863 84.080078 526.7195 83.727462 524.60156 83.021484 C 522.48362 82.315506 520.66906 81.307202 519.15625 79.996094 L 521.67773 75.759766 C 523.2914 76.902777 524.85437 77.775729 526.36719 78.380859 C 527.91362 78.952365 529.44422 79.238281 530.95703 79.238281 C 532.30175 79.238281 533.3596 78.986692 534.13281 78.482422 C 534.90603 77.978145 535.29297 77.255757 535.29297 76.314453 C 535.29297 75.373149 534.83933 74.683134 533.93164 74.246094 C 533.02395 73.80906 531.54484 73.305881 529.49414 72.734375 C 527.77962 72.263723 526.31767 71.810081 525.10742 71.373047 C 523.89717 70.936006 522.92124 70.448044 522.18164 69.910156 C 521.44204 69.33865 520.90454 68.700125 520.56836 67.994141 C 520.23218 67.254545 520.06445 66.379634 520.06445 65.371094 C 520.06445 64.026367 520.31604 62.81601 520.82031 61.740234 C 521.3582 60.664452 522.09776 59.757174 523.03906 59.017578 C 523.98037 58.244358 525.07254 57.655369 526.31641 57.251953 C 527.59389 56.848537 528.97198 56.646484 530.45117 56.646484 z M 393.24023 56.697266 C 395.45903 56.697266 397.17256 57.234764 398.38281 58.310547 C 399.59307 59.386323 400.36695 60.71487 400.70312 62.294922 C 401.7789 60.479544 403.13982 59.10146 404.78711 58.160156 C 406.4344 57.185228 408.31761 56.697266 410.43555 56.697266 C 412.04921 56.697266 413.3758 57.000345 414.41797 57.605469 C 415.46013 58.210599 416.26833 58.999688 416.83984 59.974609 C 417.41135 60.949538 417.79829 62.060822 418 63.304688 C 418.23533 64.54856 418.35156 65.808454 418.35156 67.085938 L 418.35156 83.576172 L 411.5957 83.576172 L 411.5957 68.75 C 411.5957 66.63206 411.22592 65.086257 410.48633 64.111328 C 409.78034 63.136406 408.78725 62.648438 407.50977 62.648438 C 406.16504 62.648438 404.90515 63.16878 403.72852 64.210938 C 402.55188 65.219484 401.7113 66.548024 401.20703 68.195312 L 401.20703 83.576172 L 394.44922 83.576172 L 394.44922 68.75 C 394.44922 66.63206 394.07944 65.086257 393.33984 64.111328 C 392.63386 63.136406 391.64272 62.648438 390.36523 62.648438 C 389.05413 62.648438 387.79229 63.151616 386.58203 64.160156 C 385.4054 65.168703 384.56677 66.497243 384.0625 68.144531 L 384.0625 83.576172 L 377.30469 83.576172 L 377.30469 57.152344 L 383.40625 57.152344 L 383.40625 62.042969 C 384.38117 60.328444 385.70972 59.017061 387.39062 58.109375 C 389.10515 57.168065 391.05506 56.697266 393.24023 56.697266 z M 436.33398 56.697266 C 440.13283 56.697266 443.07388 57.63887 445.1582 59.521484 C 447.27614 61.370481 448.33594 64.059948 448.33594 67.589844 L 448.33594 75.810547 C 448.33594 76.516525 448.45217 77.019704 448.6875 77.322266 C 448.95644 77.624828 449.37771 77.792554 449.94922 77.826172 L 449.94922 83.576172 C 448.8062 83.811498 447.81506 83.927734 446.97461 83.927734 C 445.69712 83.927734 444.70403 83.641818 443.99805 83.070312 C 443.32569 82.498807 442.90637 81.744045 442.73828 80.802734 L 442.58594 79.339844 C 441.4093 80.886278 439.98169 82.062309 438.30078 82.869141 C 436.61988 83.675973 434.82053 84.080078 432.9043 84.080078 C 431.62681 84.080078 430.43361 83.878025 429.32422 83.474609 C 428.21482 83.037575 427.25605 82.44858 426.44922 81.708984 C 425.64239 80.935764 425.00386 80.045649 424.5332 79.037109 C 424.09617 78.028563 423.87891 76.919232 423.87891 75.708984 C 423.87891 74.465112 424.14766 73.321455 424.68555 72.279297 C 425.25706 71.203514 426.02898 70.296237 427.00391 69.556641 C 428.01245 68.817045 429.20565 68.245219 430.58398 67.841797 C 431.96233 67.404763 433.47576 67.1875 435.12305 67.1875 C 436.29968 67.1875 437.44334 67.286573 438.55273 67.488281 C 439.69575 67.689989 440.70405 67.975899 441.57812 68.345703 L 441.57812 66.833984 C 441.57812 65.085842 441.073 63.740132 440.06445 62.798828 C 439.08953 61.857518 437.62758 61.386719 435.67773 61.386719 C 434.26577 61.386719 432.88769 61.640255 431.54297 62.144531 C 430.19824 62.648801 428.82017 63.388359 427.4082 64.363281 L 425.33984 60.076172 C 428.73527 57.82376 432.40067 56.697266 436.33398 56.697266 z M 466.79883 56.697266 C 468.84953 56.697266 470.64888 57.168065 472.19531 58.109375 C 473.74174 59.017061 475.0188 60.244581 476.02734 61.791016 L 476.02734 57.152344 L 481.92773 57.152344 L 481.92773 82.314453 C 481.92773 84.264303 481.55796 86.012166 480.81836 87.558594 C 480.07876 89.105028 479.05329 90.416405 477.74219 91.492188 C 476.4647 92.567963 474.91889 93.391385 473.10352 93.962891 C 471.32176 94.534403 469.37185 94.820312 467.25391 94.820312 C 464.36275 94.820312 461.92487 94.33235 459.94141 93.357422 C 457.99156 92.416118 456.3104 91.072361 454.89844 89.324219 L 458.58008 85.744141 C 459.58862 86.988006 460.84851 87.961984 462.36133 88.667969 C 463.90776 89.373947 465.53938 89.728516 467.25391 89.728516 C 468.29607 89.728516 469.28721 89.575999 470.22852 89.273438 C 471.20344 89.004494 472.06118 88.568021 472.80078 87.962891 C 473.54038 87.357767 474.11221 86.583882 474.51562 85.642578 C 474.95266 84.701268 475.16992 83.591937 475.16992 82.314453 L 475.16992 78.986328 C 474.29585 80.499138 473.07029 81.675169 471.49023 82.515625 C 469.91018 83.322457 468.21186 83.726562 466.39648 83.726562 C 464.61473 83.726562 463.00027 83.373947 461.55469 82.667969 C 460.10911 81.961991 458.84922 81.003223 457.77344 79.792969 C 456.73128 78.549096 455.92502 77.121476 455.35352 75.507812 C 454.78201 73.894142 454.49609 72.17866 454.49609 70.363281 C 454.49609 68.447049 454.79722 66.66486 455.40234 65.017578 C 456.00747 63.37029 456.84805 61.925513 457.92383 60.681641 C 458.99961 59.437775 460.29383 58.461844 461.80664 57.755859 C 463.31945 57.049881 464.98345 56.697266 466.79883 56.697266 z M 501.78125 56.697266 C 503.93281 56.697266 505.84839 57.067045 507.5293 57.806641 C 509.24382 58.546243 510.69055 59.539337 511.86719 60.783203 C 513.07744 62.027075 513.98472 63.471852 514.58984 65.119141 C 515.22859 66.766422 515.54883 68.481912 515.54883 70.263672 C 515.54883 70.700706 515.53166 71.120015 515.49805 71.523438 C 515.49805 71.926853 515.46372 72.262306 515.39648 72.53125 L 494.97461 72.53125 C 495.07546 73.573408 495.32705 74.497849 495.73047 75.304688 C 496.13389 76.111519 496.65422 76.801541 497.29297 77.373047 C 497.93171 77.944559 498.6541 78.381032 499.46094 78.683594 C 500.26777 78.986156 501.10835 79.138672 501.98242 79.138672 C 503.32715 79.138672 504.58899 78.818429 505.76562 78.179688 C 506.97588 77.507321 507.79929 76.632416 508.23633 75.556641 L 514.03516 77.171875 C 513.06023 79.188961 511.49726 80.852954 509.3457 82.164062 C 507.22776 83.441546 504.68886 84.080078 501.73047 84.080078 C 499.61253 84.080078 497.69694 83.727462 495.98242 83.021484 C 494.2679 82.281888 492.80595 81.288794 491.5957 80.044922 C 490.38545 78.801056 489.44385 77.356273 488.77148 75.708984 C 488.13274 74.061696 487.8125 72.331003 487.8125 70.515625 C 487.8125 68.633011 488.13274 66.867985 488.77148 65.220703 C 489.41023 63.539797 490.33467 62.075904 491.54492 60.832031 C 492.75517 59.554547 494.21712 58.546243 495.93164 57.806641 C 497.67978 57.067045 499.62969 56.697266 501.78125 56.697266 z M 362.99219 57.152344 L 369.75 57.152344 L 369.75 83.576172 L 362.99219 83.576172 L 362.99219 57.152344 z M 501.67969 61.589844 C 500.772 61.589844 499.91621 61.75757 499.10938 62.09375 C 498.33616 62.396312 497.64614 62.832791 497.04102 63.404297 C 496.43589 63.975803 495.93271 64.665818 495.5293 65.472656 C 495.1595 66.279488 494.94028 67.169603 494.87305 68.144531 L 508.58984 68.144531 C 508.42175 66.161063 507.6822 64.580933 506.37109 63.404297 C 505.09361 62.194049 503.52868 61.589844 501.67969 61.589844 z M 468.26172 62.447266 C 467.21956 62.447266 466.27795 62.681692 465.4375 63.152344 C 464.59705 63.589378 463.87466 64.19553 463.26953 64.96875 C 462.66441 65.708346 462.1936 66.564141 461.85742 67.539062 C 461.55486 68.513991 461.4043 69.522295 461.4043 70.564453 C 461.4043 71.640236 461.58919 72.650493 461.95898 73.591797 C 462.32878 74.533107 462.83196 75.356522 463.4707 76.0625 C 464.14306 76.768478 464.91695 77.323147 465.79102 77.726562 C 466.66509 78.129985 467.62385 78.332031 468.66602 78.332031 C 469.40561 78.332031 470.11084 78.213848 470.7832 77.978516 C 471.45556 77.74319 472.07693 77.422947 472.64844 77.019531 C 473.21995 76.616115 473.72507 76.14531 474.16211 75.607422 C 474.59914 75.069534 474.93459 74.497709 475.16992 73.892578 L 475.16992 67.589844 C 474.5648 66.043416 473.60798 64.800685 472.29688 63.859375 C 471.01939 62.918071 469.67368 62.447266 468.26172 62.447266 z M 436.23242 70.96875 C 434.48428 70.96875 433.05666 71.372849 431.94727 72.179688 C 430.83787 72.952901 430.2832 73.944043 430.2832 75.154297 C 430.2832 76.297309 430.71968 77.256076 431.59375 78.029297 C 432.46782 78.768893 433.54282 79.138672 434.82031 79.138672 C 435.96332 79.138672 437.04029 78.936619 438.04883 78.533203 C 439.09099 78.129781 439.89724 77.592282 440.46875 76.919922 C 441.20835 76.348416 441.57812 75.707931 441.57812 75.001953 L 441.57812 71.976562 C 440.77129 71.674001 439.89638 71.439581 438.95508 71.271484 C 438.01377 71.069776 437.10649 70.96875 436.23242 70.96875 z "
       transform="matrix(-1.0349244,0,0,1,552.21583,735.34568)"
       id="rect4200" />
    <path
       style="clip-rule:evenodd;fill:#0c6f5e;fill-opacity:1;fill-rule:evenodd"
       d="M 109.49414 29.072266 L 109.49414 102.81055 L 323.81445 102.81055 L 323.81445 29.072266 L 109.49414 29.072266 z M 228.61719 46.763672 L 235.375 46.763672 L 235.375 69.103516 L 245.96484 57.201172 L 253.17578 57.201172 L 243.3418 68.396484 L 253.88086 83.576172 L 246.66992 83.576172 L 239.00586 72.128906 L 235.375 75.708984 L 235.375 83.576172 L 228.61719 83.576172 L 228.61719 46.763672 z M 129.9043 47.771484 L 142.91406 47.771484 C 145.83884 47.771484 148.39297 48.242283 150.57812 49.183594 C 152.79692 50.124898 154.64581 51.403908 156.125 53.017578 C 157.6042 54.631248 158.71355 56.529668 159.45312 58.714844 C 160.19273 60.866402 160.5625 63.168927 160.5625 65.623047 C 160.5625 68.346111 160.14319 70.818315 159.30273 73.037109 C 158.4959 75.222286 157.31987 77.103541 155.77344 78.683594 C 154.227 80.230022 152.36096 81.440379 150.17578 82.314453 C 148.02422 83.154903 145.60351 83.576172 142.91406 83.576172 L 129.9043 83.576172 L 129.9043 47.771484 z M 136.86328 53.873047 L 136.86328 77.474609 L 142.91406 77.474609 C 144.62859 77.474609 146.14204 77.17153 147.45312 76.566406 C 148.79784 75.961282 149.90718 75.137868 150.78125 74.095703 C 151.68894 73.019927 152.377 71.75808 152.84766 70.3125 C 153.31831 68.866926 153.55469 67.303953 153.55469 65.623047 C 153.55469 63.908523 153.31831 62.328395 152.84766 60.882812 C 152.377 59.437239 151.68894 58.194508 150.78125 57.152344 C 149.87356 56.110186 148.74706 55.301981 147.40234 54.730469 C 146.09124 54.158963 144.59497 53.873047 142.91406 53.873047 L 136.86328 53.873047 z M 179.00586 56.697266 C 181.15742 56.697266 183.07495 57.067045 184.75586 57.806641 C 186.47038 58.546243 187.91517 59.554547 189.0918 60.832031 C 190.30205 62.075904 191.22649 63.522634 191.86523 65.169922 C 192.50398 66.817204 192.82422 68.565067 192.82422 70.414062 C 192.82422 72.229441 192.50398 73.960134 191.86523 75.607422 C 191.22649 77.25471 190.31921 78.71861 189.14258 79.996094 C 187.96595 81.239966 186.51921 82.231107 184.80469 82.970703 C 183.09016 83.710299 181.15742 84.080078 179.00586 84.080078 C 176.8543 84.080078 174.92156 83.710299 173.20703 82.970703 C 171.49251 82.231107 170.03057 81.239966 168.82031 79.996094 C 167.64368 78.71861 166.7364 77.25471 166.09766 75.607422 C 165.45891 73.960134 165.13867 72.229441 165.13867 70.414062 C 165.13867 68.565067 165.45891 66.817204 166.09766 65.169922 C 166.7364 63.522634 167.64368 62.075904 168.82031 60.832031 C 170.03057 59.554547 171.49251 58.546243 173.20703 57.806641 C 174.92156 57.067045 176.8543 56.697266 179.00586 56.697266 z M 210.99805 56.697266 C 213.88921 56.697266 216.34229 57.320581 218.35938 58.564453 C 220.41007 59.808319 221.94068 61.437992 222.94922 63.455078 L 216.34375 65.472656 C 215.77224 64.497728 215.01553 63.758176 214.07422 63.253906 C 213.13291 62.716018 212.09028 62.447266 210.94727 62.447266 C 209.97234 62.447266 209.06506 62.647365 208.22461 63.050781 C 207.38415 63.420579 206.6446 63.960038 206.00586 64.666016 C 205.40074 65.338382 204.91277 66.161797 204.54297 67.136719 C 204.20679 68.111647 204.03906 69.186651 204.03906 70.363281 C 204.03906 71.539918 204.22395 72.616875 204.59375 73.591797 C 204.96355 74.566725 205.45152 75.40535 206.05664 76.111328 C 206.69538 76.817306 207.43493 77.371975 208.27539 77.775391 C 209.11584 78.145195 210.00596 78.332031 210.94727 78.332031 C 212.15752 78.332031 213.26685 78.028959 214.27539 77.423828 C 215.31755 76.818704 216.03994 76.079146 216.44336 75.205078 L 223.05078 77.220703 C 222.1431 79.237789 220.64682 80.886572 218.5625 82.164062 C 216.47818 83.441547 213.97361 84.080078 211.04883 84.080078 C 208.89727 84.080078 206.96452 83.710299 205.25 82.970703 C 203.53548 82.231107 202.07158 81.239966 200.86133 79.996094 C 199.65108 78.71861 198.71142 77.25471 198.03906 75.607422 C 197.40031 73.926516 197.08008 72.17866 197.08008 70.363281 C 197.08008 68.514285 197.40031 66.766422 198.03906 65.119141 C 198.6778 63.471852 199.60225 62.027075 200.8125 60.783203 C 202.02275 59.539337 203.48469 58.546243 205.19922 57.806641 C 206.91374 57.067045 208.84649 56.697266 210.99805 56.697266 z M 269.11914 56.697266 C 271.2707 56.697266 273.18823 57.067045 274.86914 57.806641 C 276.58366 58.546243 278.02844 59.539337 279.20508 60.783203 C 280.41533 62.027075 281.32261 63.471852 281.92773 65.119141 C 282.56648 66.766422 282.88672 68.481912 282.88672 70.263672 C 282.88672 70.700706 282.86956 71.120015 282.83594 71.523438 C 282.83594 71.926853 282.80161 72.262306 282.73438 72.53125 L 262.3125 72.53125 C 262.41335 73.573408 262.66494 74.497849 263.06836 75.304688 C 263.47178 76.111519 263.99211 76.801541 264.63086 77.373047 C 265.2696 77.944559 265.99395 78.381032 266.80078 78.683594 C 267.60762 78.986156 268.4482 79.138672 269.32227 79.138672 C 270.66699 79.138672 271.92689 78.818429 273.10352 78.179688 C 274.31377 77.507321 275.13718 76.632416 275.57422 75.556641 L 281.37305 77.171875 C 280.39812 79.188961 278.83515 80.852954 276.68359 82.164062 C 274.56565 83.441546 272.02675 84.080078 269.06836 84.080078 C 266.95042 84.080078 265.03484 83.727462 263.32031 83.021484 C 261.60579 82.281888 260.14384 81.288794 258.93359 80.044922 C 257.72334 78.801056 256.78173 77.356273 256.10938 75.708984 C 255.47063 74.061696 255.15234 72.331003 255.15234 70.515625 C 255.15234 68.633011 255.47063 66.867985 256.10938 65.220703 C 256.74812 63.539797 257.67256 62.075904 258.88281 60.832031 C 260.09306 59.554547 261.55501 58.546243 263.26953 57.806641 C 265.01767 57.067045 266.96758 56.697266 269.11914 56.697266 z M 302.83203 56.798828 L 303.64062 56.798828 C 303.84233 56.798828 304.02722 56.815991 304.19531 56.849609 L 304.19531 63.001953 C 302.14461 63.035571 300.31093 63.437724 298.69727 64.210938 C 297.0836 64.95054 295.92473 66.077034 295.21875 67.589844 L 295.21875 83.576172 L 288.46094 83.576172 L 288.46094 57.152344 L 294.66406 57.152344 L 294.66406 62.798828 C 295.13472 61.891142 295.68938 61.084891 296.32812 60.378906 C 296.96687 59.63931 297.65494 59.000779 298.39453 58.462891 C 299.13413 57.924996 299.87369 57.520897 300.61328 57.251953 C 301.3865 56.949391 302.12605 56.798828 302.83203 56.798828 z M 269.01953 61.589844 C 268.11185 61.589844 267.2541 61.75757 266.44727 62.09375 C 265.67405 62.396312 264.98403 62.832791 264.37891 63.404297 C 263.77378 63.975803 263.2706 64.665818 262.86719 65.472656 C 262.49739 66.279488 262.27817 67.169603 262.21094 68.144531 L 275.92773 68.144531 C 275.75964 66.161063 275.02009 64.580933 273.70898 63.404297 C 272.4315 62.194049 270.86853 61.589844 269.01953 61.589844 z M 179.00586 62.447266 C 178.03094 62.447266 177.12366 62.647365 176.2832 63.050781 C 175.44275 63.454197 174.70319 64.008866 174.06445 64.714844 C 173.45932 65.420828 172.97136 66.261406 172.60156 67.236328 C 172.26538 68.211257 172.09766 69.271051 172.09766 70.414062 C 172.09766 71.590699 172.26538 72.665703 172.60156 73.640625 C 172.97136 74.581935 173.45932 75.40535 174.06445 76.111328 C 174.70319 76.817306 175.44275 77.371975 176.2832 77.775391 C 177.12366 78.145195 178.03094 78.332031 179.00586 78.332031 C 179.98079 78.332031 180.88807 78.145195 181.72852 77.775391 C 182.56897 77.371975 183.29331 76.817306 183.89844 76.111328 C 184.53718 75.40535 185.0232 74.566725 185.35938 73.591797 C 185.72916 72.616875 185.91406 71.539918 185.91406 70.363281 C 185.91406 69.220269 185.72916 68.162428 185.35938 67.1875 C 185.0232 66.212578 184.53718 65.372 183.89844 64.666016 C 183.29331 63.960038 182.56897 63.420579 181.72852 63.050781 C 180.88807 62.647365 179.98079 62.447266 179.00586 62.447266 z "
       transform="matrix(-1.0349244,0,0,1,552.21583,735.34568)"
       id="rect7" />
    <g
       transform="scale(-1.0173123,0.98298231)"
       style="font-style:normal;font-weight:normal;font-size:51.29947281px;line-height:150%;font-family:Sans;letter-spacing:0px;word-spacing:0.18057413px;fill:#ffffff;fill-opacity:1;stroke:none;stroke-width:1px;stroke-linecap:butt;stroke-linejoin:miter;stroke-opacity:1"
       id="text4180">
      <g
         id="g4227" />
    </g>
    <g
       transform="scale(-1.0173123,0.98298231)"
       style="font-style:normal;font-weight:normal;font-size:14.16705799px;line-height:150%;font-family:Sans;letter-spacing:0px;word-spacing:0.04986805px;fill:#000e44;fill-opacity:1;stroke:none;stroke-width:1px;stroke-linecap:butt;stroke-linejoin:miter;stroke-opacity:1"
       id="text4184">
      <path
         d="m -397.86042,874.75886 q -0.85002,0 -1.51587,-0.38251 -0.66585,-0.38251 -1.04836,-1.04836 l 0,1.2892 -1.65754,0 0,-10.34193 1.89838,0 0,4.22177 q 0.39668,-0.68002 1.03419,-1.04836 0.65169,-0.38251 1.51587,-0.38251 0.72252,0 1.31754,0.31168 0.59501,0.31167 1.02002,0.83585 0.43918,0.52418 0.66585,1.23253 0.24084,0.70835 0.24084,1.48754 0,0.80752 -0.26917,1.50171 -0.25501,0.69418 -0.72252,1.21836 -0.46751,0.51001 -1.10503,0.80752 -0.63751,0.29751 -1.3742,0.29751 z m -0.52418,-1.61504 q 0.45335,0 0.83586,-0.17001 0.38251,-0.18417 0.65168,-0.48168 0.26917,-0.2975 0.41084,-0.69418 0.15584,-0.39668 0.15584,-0.85002 0,-0.45335 -0.14167,-0.86419 -0.14167,-0.41084 -0.41084,-0.72252 -0.25501,-0.31167 -0.60919,-0.49585 -0.35417,-0.18417 -0.77918,-0.18417 -0.63752,0 -1.14753,0.42501 -0.49585,0.41085 -0.76502,1.02003 l 0,1.77088 q 0.0992,0.28334 0.28334,0.51001 0.19834,0.22667 0.43918,0.39668 0.24084,0.15584 0.52418,0.255 0.28334,0.085 0.55251,0.085 z"
         style="font-style:normal;font-variant:normal;font-weight:bold;font-stretch:normal;font-size:14.16702652px;line-height:150%;font-family:Raleway;-inkscape-font-specification:'Raleway, Bold';text-align:start;writing-mode:lr-tb;text-anchor:start"
         id="path4241" />
      <path
         d="m -393.18264,876.06222 q 0.24084,0.0708 0.46751,0.0992 0.22667,0.0425 0.38251,0.0425 0.18417,0 0.34001,-0.0708 0.15583,-0.0708 0.28334,-0.25501 0.1275,-0.17 0.255,-0.48168 0.12751,-0.31167 0.26918,-0.77918 l -2.93258,-7.42352 1.95505,0 2.01172,5.78014 1.78505,-5.78014 1.78504,0 -3.11674,8.89689 q -0.26918,0.77918 -0.92086,1.27503 -0.65168,0.49585 -1.61504,0.49585 -0.22667,0 -0.46751,-0.0425 -0.22668,-0.0283 -0.48168,-0.11334 l 0,-1.64338 z"
         style="font-style:normal;font-variant:normal;font-weight:bold;font-stretch:normal;font-size:14.16702652px;line-height:150%;font-family:Raleway;-inkscape-font-specification:'Raleway, Bold';text-align:start;writing-mode:lr-tb;text-anchor:start"
         id="path4243" />
    </g>
    <path
       style="fill:#000e44;fill-opacity:1;stroke:none"
       d="m 385.06111,849.73846 c 2.71979,10e-6 4.08045,0.89432 4.08045,2.6818 0,0.6918 -0.19615,1.23238 -0.58788,1.6234 -0.39172,0.38671 -1.1692,0.79291 -2.33101,1.2183 l -1.08749,0.40052 -0.91568,0.33502 c -0.27599,0.0988 -0.49197,0.25574 -0.64777,0.47059 -0.14245,0.19764 -0.21278,0.42622 -0.21278,0.68833 0,0.85938 0.75053,1.28989 2.25063,1.28989 1.03272,0 2.20279,-0.2127 3.51148,-0.63808 l 0,1.62338 -1.05439,0.15533 c -0.79233,0.11599 -1.50691,0.17362 -2.14345,0.17362 -1.61584,0 -2.80731,-0.2337 -3.57295,-0.70206 -0.77008,-0.46405 -1.15525,-1.19276 -1.15526,-2.18534 10e-6,-0.71756 0.21228,-1.28605 0.63515,-1.70715 0.4229,-0.42538 1.18082,-0.83337 2.27585,-1.2244 l 1.13635,-0.4066 0.76124,-0.28326 c 0.44069,-0.16328 0.73227,-0.31658 0.87472,-0.45838 0.15134,-0.15039 0.22696,-0.3613 0.22696,-0.632 0,-0.4125 -0.1565,-0.70198 -0.4681,-0.86958 -0.3116,-0.16327 -0.85882,-0.24516 -1.64227,-0.24517 -0.97484,1e-5 -2.01167,0.1761 -3.11116,0.52843 l 0,-1.50765 c 1.06388,-0.21913 2.12239,-0.32893 3.17736,-0.32894 z m -4.57488,0.23909 0,1.30816 -2.8842,0 0,8.22966 -2.05677,0 0,-8.22966 -2.88421,0 0,-1.30816 z m -10.91113,0 3.83301,9.53782 -1.502,0 -1.00869,-2.54474 -4.08675,0 -1.0071,2.54474 -2.10406,0 3.81883,-9.53782 z m -7.12383,0 0,9.53782 -1.93699,0 0,-3.89859 -1.60917,0 -2.77704,3.89859 -2.31052,0 3.23252,-4.45291 c -0.52524,-0.24492 -0.92839,-0.51522 -1.20884,-0.81169 -0.47184,-0.50702 -0.70765,-1.14334 -0.70766,-1.90819 10e-6,-1.57692 1.00273,-2.36503 3.0103,-2.36503 z m -8.61953,0 0,1.30816 -2.88578,0 0,8.22966 -2.05678,0 0,-8.22966 -2.88422,0 0,-1.30816 z m -8.56121,0 -3.02447,4.83972 3.16474,4.6981 -1.66276,0 -2.29633,-3.40822 -2.14345,3.40822 -2.39091,0 3.13954,-5.03922 -3.03235,-4.4986 1.66274,0 2.17656,3.20872 2.00949,-3.20872 z m 15.24375,1.30816 -1.32233,0 c -0.61874,0 -1.0922,0.0924 -1.42161,0.27716 -0.38281,0.21056 -0.57368,0.55763 -0.57369,1.04317 1e-5,0.46406 0.13695,0.84058 0.41293,1.12846 0.36502,0.38242 0.9733,0.57414 1.82352,0.57412 l 1.08118,0 z m 8.34056,0.6122 -1.53667,3.80264 3.07176,0 z"
       id="rect2864-6"
       inkscape:connector-curvature="0"
       sodipodi:nodetypes="csccccccscccscccccccccccccccccccccccccccccccccccccccccsccccccccccccccccccccccccccccscccccc" />
  </g>
  <path
     style="fill:none;fill-opacity:1;fill-rule:evenodd;stroke:#000e44;stroke-width:10.19570351;stroke-linecap:round;stroke-linejoin:round;stroke-miterlimit:4;stroke-dasharray:none;stroke-opacity:1"
     d="m 582.12593,92.827563 0,-85.3251258 -33.85183,0"
     id="path4190"
     inkscape:connector-curvature="0" />
  <path
     id="path4192"
     d="m 88.762565,29.75278 c 0.75218,0.817445 1.12802,1.790874 1.12802,2.918269 l 0,81.918401 28.615795,0 c 1.09132,0 2.03092,0.38947 2.7831,1.16664 0.78911,0.81922 1.16569,1.79139 1.16569,2.92005 l 0,2.9955 c 0,1.12867 -0.37658,2.10082 -1.16569,2.88029 -0.75243,0.81666 -1.69178,1.20487 -2.7831,1.20487 l -35.422525,0 c 1.46714,-2.60577 2.21932,-5.52506 2.21932,-8.75454 0,-4.94314 -1.69104,-9.14478 -5.038626,-12.61005 l -1.164956,-1.12713 0,-70.594031 c 0,-1.127395 0.374849,-2.100824 1.128009,-2.918269 0.788384,-0.777414 1.730195,-1.167149 2.819303,-1.167149 l 2.89662,0 c 1.09033,0 2.02994,0.389735 2.81904,1.167149 z"
     style="clip-rule:evenodd;fill:#000e44;fill-opacity:1;fill-rule:evenodd"
     inkscape:connector-curvature="0"
     sodipodi:nodetypes="cscscsscscsccscssc" />
</svg>
