<?xml version="1.0" encoding="UTF-8" standalone="no"?>
<!-- Generator: Adobe Illustrator 24.0.3, SVG Export Plug-In . SVG Version: 6.00 Build 0)  -->

<svg
   version="1.1"
   id="Logos"
   x="0px"
   y="0px"
   width="24"
   height="24"
   viewBox="0 0 24 24"
   xml:space="preserve"
   sodipodi:docname="os-ubi.svg"
   inkscape:version="1.1.1 (3bf5ae0d25, 2021-09-20)"
   xmlns:inkscape="http://www.inkscape.org/namespaces/inkscape"
   xmlns:sodipodi="http://sodipodi.sourceforge.net/DTD/sodipodi-0.dtd"
   xmlns="http://www.w3.org/2000/svg"
   xmlns:svg="http://www.w3.org/2000/svg"
   xmlns:rdf="http://www.w3.org/1999/02/22-rdf-syntax-ns#"
   xmlns:cc="http://creativecommons.org/ns#"
   xmlns:dc="http://purl.org/dc/elements/1.1/"><defs
   id="defs29" /><sodipodi:namedview
   id="namedview27"
   pagecolor="#ffffff"
   bordercolor="#666666"
   borderopacity="1.0"
   inkscape:pageshadow="2"
   inkscape:pageopacity="0"
   inkscape:pagecheckerboard="0"
   showgrid="false"
   inkscape:zoom="15.142514"
   inkscape:cx="15.618278"
   inkscape:cy="17.830592"
   inkscape:window-width="2048"
   inkscape:window-height="1083"
   inkscape:window-x="0"
   inkscape:window-y="0"
   inkscape:window-maximized="1"
   inkscape:current-layer="Logos" />
<style
   type="text/css"
   id="style2">
	.st0{fill:#FFFFFF;}
	.st1{fill:#EE0000;}
</style>
<title
   id="title4">Logo-Red_Hat-Ansible_Automation_Platform-A-Reverse-RGB</title>







<path
   class="st1"
   d="m 16.061309,12.104874 c 1.551262,0 3.802279,-0.32037 3.802279,-2.1667092 0.0084,-0.1433231 -0.0084,-0.2866463 -0.04215,-0.4215387 L 18.894049,5.4951464 C 18.68328,4.609915 18.489372,4.2136686 16.938109,3.4296065 15.732509,2.81416 13.102107,1.7940362 12.326475,1.7940362 c -0.725046,0 -0.935816,0.935816 -1.795755,0.935816 -0.8262155,0 -1.4416615,-0.6997543 -2.2257237,-0.6997543 -0.7419082,0 -1.2308932,0.5058465 -1.6018473,1.5512626 0,0 -1.0454161,2.9423405 -1.1803085,3.37231 -0.025292,0.075877 -0.033723,0.1601847 -0.033723,0.2444925 0.016862,1.1465854 4.5273255,4.906711 10.5721915,4.906711 m 4.046772,-1.41637 c 0.210769,1.020123 0.210769,1.121293 0.210769,1.256185 0,1.73674 -1.95594,2.706279 -4.527326,2.706279 -5.8172345,0 -10.9009915,-3.397602 -10.9009915,-5.6486192 0,-0.3119387 0.067446,-0.6238773 0.1854771,-0.9105237 -2.0908323,0.1096001 -4.79711114,0.4805542 -4.79711114,2.8664629 0,3.91188 9.26542204,8.725852 16.60019554,8.725852 5.623327,0 7.039697,-2.546094 7.039697,-4.552618 0.0084,-1.584986 -1.357355,-3.37231 -3.81071,-4.443018"
   id="path20"
   style="stroke-width:0.0843078" />
<path
   d="m 20.09965,10.688504 c 0.210769,1.020123 0.210769,1.121293 0.210769,1.256185 0,1.73674 -1.955939,2.706279 -4.527326,2.706279 -5.8172345,0 -10.9009914,-3.397602 -10.9009914,-5.6486192 0,-0.3119387 0.067446,-0.6238773 0.1854771,-0.9105237 L 5.5228405,6.970532 c -0.025292,0.075877 -0.033723,0.1601848 -0.033723,0.2360617 0,1.1465854 4.510465,4.8982803 10.5553295,4.8982803 1.551263,0 3.80228,-0.32037 3.80228,-2.1667092 0.0084,-0.1433231 -0.0084,-0.2866463 -0.04215,-0.4215387 z"
   id="path22"
   style="stroke-width:0.0843078" />

<metadata
   id="metadata846"><rdf:RDF><cc:Work
       rdf:about=""><dc:title>Logo-Red_Hat-Ansible_Automation_Platform-A-Reverse-RGB</dc:title></cc:Work></rdf:RDF></metadata></svg>
