<?xml version="1.0" encoding="UTF-8"?>
<svg width="60" height="40" version="1.1" viewBox="0 0 60 40" xmlns="http://www.w3.org/2000/svg" xmlns:cc="http://creativecommons.org/ns#" xmlns:dc="http://purl.org/dc/elements/1.1/" xmlns:rdf="http://www.w3.org/1999/02/22-rdf-syntax-ns#">
 <metadata>
  <rdf:RDF>
   <cc:Work rdf:about="">
    <dc:format>image/svg+xml</dc:format>
    <dc:type rdf:resource="http://purl.org/dc/dcmitype/StillImage"/>
   </cc:Work>
  </rdf:RDF>
 </metadata>
 <mask id="a" fill="#ffffff">
  <path d="m0 0h313.3v159.86h-313.3z" fill="#fff" fill-rule="evenodd"/>
 </mask>
 <mask id="b" fill="#ffffff">
  <path d="m0 0h313.3v159.86h-313.3z" fill="#fff" fill-rule="evenodd"/>
 </mask>
 <g transform="matrix(.49527 0 0 .49527 5.0758 3.2126)">
  <g fill="#a00c0c">
   <polygon class="st0" transform="matrix(1.6152 0 0 1.6152 -24.584 -106.93)" points="9 99.9 30.6 112.3 52.2 99.9 52.2 75 30.6 62.5 9 75"/>
   <path class="st0" d="m69.72 49.413 25.308 14.568 25.185-14.568v-29.012l-25.185-14.568-25.308 14.568zm25.308 17.901-28.148-16.173v-32.468l28.024-16.173 28.024 16.173v32.468z" stroke-width="1.2345"/>
   <path class="st0" d="m100.58 104.21 25.308 14.568 25.185-14.568v-29.012l-25.185-14.568-25.308 14.568zm25.308 17.901-28.148-16.173v-32.468l28.024-16.173 28.024 16.173v32.468z" stroke-width="1.2345"/>
   <polygon class="st0" transform="matrix(1.2345 0 0 1.2345 26.14 -17.499)" points="30.6 112.3 52.2 99.9 52.2 75 30.6 62.5 9 75 9 99.9"/>
  </g>
  <g transform="matrix(.11939 0 0 .11939 -4.7043 4.2866)" fill="#fff" fill-rule="evenodd">
   <g id="performance" fill="#fff" fill-rule="nonzero">
    <g id="Group" transform="translate(80,84)">
     <path id="Shape" d="m299.7 197c9.8 2.1 19.4 4.2 29.6 6.4-5.9 27.1-17.7 50.7-35.5 71.3-28 32.4-63.5 51.1-106 56.2-82 9.9-161.9-47.4-177.6-127.8 9.6-2.1 19.3-4.2 28.6-6.2 22.2 68.3 67.2 106.5 140.1 103.7 59.5-2.3 107.7-46.8 120.8-103.6z"/>
     <path d="m249.5 96.2c-0.6 1.1-1.1 2.3-1.8 3.3-18.1 26.3-36.2 52.7-54.5 79-8.1 11.6-19.5 15.8-31.6 12.2-10.6-3.2-18.3-12.4-19.4-23.1-1.2-11.8 3.9-21.8 14.6-27.2 25.8-12.8 51.7-25.4 77.6-38 4.8-2.3 9.5-4.6 14.3-6.9 0.2 0.1 0.5 0.4 0.8 0.7z"/>
     <path d="m289 106.4c-12 0.1-21.7-9.3-21.9-21.2-0.2-12.1 9.6-21.9 21.8-21.8 11.9 0 21.6 9.6 21.6 21.5 0.1 11.9-9.5 21.4-21.5 21.5z"/>
     <path d="m257.8 38.2c0.2 11.8-9.5 21.7-21.3 21.9-12 0.2-22.1-9.7-22.1-21.7 0-11.9 9.7-21.5 21.6-21.7 11.8 0 21.6 9.7 21.8 21.5z"/>
     <path d="m21.9 172.6c-12 0-21.6-9.6-21.7-21.5 0-11.9 9.6-21.6 21.5-21.7 12.1-0.1 22 9.8 21.9 21.8 0 11.9-9.7 21.4-21.7 21.4z"/>
     <path d="m25.3 84.6c0.5-11.9 10.5-21.4 22.2-21 11.9 0.4 21.5 10.5 21.2 22.1-0.3 12.1-10.6 21.9-22.5 21.3s-21.4-10.7-20.9-22.4z"/>
     <path d="m167.7 0.2c12.1 0 21.5 9.3 21.7 21.3 0.1 12.2-9.5 21.8-21.8 21.7-12-0.1-21.4-9.6-21.5-21.6 0-11.8 9.7-21.4 21.6-21.4z"/>
     <path d="m121.1 39c0 11.9-9.7 21.4-21.7 21.3s-21.4-9.6-21.4-21.6c0-12.1 9.4-21.5 21.5-21.5 12.3-0.1 21.6 9.3 21.6 21.8z"/>
     <path d="m313.8 172.2c-11.7 0-21.6-10.1-21.5-21.7 0.1-11.9 9.8-21.5 21.7-21.5s21.7 9.7 21.7 21.4c0.1 12-9.8 21.8-21.9 21.8z"/>
    </g>
    <path d="m249.5 35.3c29 0 57.1 5.7 83.5 16.8 25.5 10.8 48.5 26.3 68.2 46s35.2 42.7 46 68.2c11.2 26.4 16.8 54.5 16.8 83.5s-5.7 57.1-16.8 83.5c-10.8 25.5-26.3 48.5-46 68.2s-42.7 35.2-68.2 46c-26.4 11.2-54.5 16.8-83.5 16.8s-57.1-5.7-83.5-16.8c-25.5-10.8-48.5-26.3-68.2-46s-35.2-42.7-46-68.2c-11.2-26.4-16.8-54.5-16.8-83.5s5.7-57.1 16.8-83.5c10.8-25.5 26.3-48.5 46-68.2s42.7-35.2 68.2-46c26.4-11.2 54.5-16.8 83.5-16.8zm0-35c-137.8 0-249.5 111.7-249.5 249.5s111.7 249.5 249.5 249.5 249.5-111.7 249.5-249.5-111.7-249.5-249.5-249.5z"/>
   </g>
  </g>
 </g>
</svg>
