<?xml version="1.0" encoding="UTF-8" standalone="no"?>
<svg
   xmlns:dc="http://purl.org/dc/elements/1.1/"
   xmlns:cc="http://creativecommons.org/ns#"
   xmlns:rdf="http://www.w3.org/1999/02/22-rdf-syntax-ns#"
   xmlns:svg="http://www.w3.org/2000/svg"
   xmlns="http://www.w3.org/2000/svg"
   xmlns:sodipodi="http://sodipodi.sourceforge.net/DTD/sodipodi-0.dtd"
   xmlns:inkscape="http://www.inkscape.org/namespaces/inkscape"
   width="40"
   height="40"
   version="1.1"
   viewBox="0 0 40 40"
   id="svg73"
   sodipodi:docname="app-phpmyadmin.svg"
   inkscape:version="1.0.2 (e86c870879, 2021-01-15)">
  <defs
     id="defs77" />
  <sodipodi:namedview
     pagecolor="#ffffff"
     bordercolor="#666666"
     borderopacity="1"
     objecttolerance="10"
     gridtolerance="10"
     guidetolerance="10"
     inkscape:pageopacity="0"
     inkscape:pageshadow="2"
     inkscape:window-width="1920"
     inkscape:window-height="1016"
     id="namedview75"
     showgrid="false"
     inkscape:zoom="3.4957592"
     inkscape:cx="12.35684"
     inkscape:cy="47.784553"
     inkscape:window-x="0"
     inkscape:window-y="0"
     inkscape:window-maximized="1"
     inkscape:current-layer="g67" />
  <metadata
     id="metadata51">
    <rdf:RDF>
      <cc:Work
         rdf:about="">
        <dc:format>image/svg+xml</dc:format>
        <dc:type
           rdf:resource="http://purl.org/dc/dcmitype/StillImage" />
        <dc:title></dc:title>
      </cc:Work>
    </rdf:RDF>
  </metadata>
  <mask
     id="a"
     fill="#ffffff">
    <path
       d="M 0,0 H 313.3 V 159.86 H 0 Z"
       fill="#ffffff"
       fill-rule="evenodd"
       id="path53" />
  </mask>
  <mask
     id="b"
     fill="#ffffff">
    <path
       d="M 0,0 H 313.3 V 159.86 H 0 Z"
       fill="#ffffff"
       fill-rule="evenodd"
       id="path56" />
  </mask>
  <g
     transform="matrix(0.49527,0,0,0.49527,5.0758,3.2126)"
     id="g69">
    <g
       fill="#a00c0c"
       id="g67">
      <polygon
         class="st0"
         transform="matrix(1.6152,0,0,1.6152,-20.545799,-106.93)"
         points="30.6,62.5 9,75 9,99.9 30.6,112.3 52.2,99.9 52.2,75 "
         id="polygon59" />
    </g>
  </g>
  <path
     d="m 9.8931,6.2369 c 1.8737,2.6708 3.106,5.9906 3.3855,9.6541 a 19.699,19.699 0 0 1 -1.0262,8.0232 6.5511,6.5511 0 0 1 4.5338,-2.3257 c 0.07636,-0.0062 0.15118,-0.0092 0.226,-0.01222 0.12216,-0.74978 0.71772,-5.2683 -1.4919,-10.201 -1.6309,-3.6436 -4.5812,-4.8255 -5.6272,-5.1385 z m 2.7136,0.056501 c 0,0 3.6741,1.6278 5.079,8.4706 0.92692,4.5125 0.07483,7.3848 -0.61388,8.8157 a 11.219,11.219 0 0 1 6.8809,-3.045 c 1.3133,-0.09926 2.5884,0.03055 3.7902,0.3558 -0.15271,-1.1315 -0.90555,-5.2134 -4.1719,-9.0402 -4.9828,-5.8379 -10.964,-5.5585 -10.964,-5.5585 z m 22.626,14.814 -27.365,4.656 a 3.4878,3.4878 0 0 1 2.344,3.442 3.5275,3.5275 0 0 1 -0.16187,0.9315 c 0.08398,-0.04122 4.1063,-1.947 9.6846,-3.106 4.9446,-1.0277 8.7394,-0.54974 9.5976,-0.41689 a 9.8648,9.8648 0 0 1 5.9006,-5.5066 z m -9.4876,6.2273 c -3.5397,0 -7.0871,0.75589 -10.1,1.7805 -4.3796,1.4904 -4.5063,2.0585 -8.4752,1.5927 -2.8037,-0.32832 -5.6196,-1.7027 -5.6196,-1.7027 0,0 3.6741,3.0083 7.504,3.248 3.0327,0.19088 5.3523,-1.2552 8.1163,-2.1593 4.0635,-1.3301 6.8886,-1.4812 9.5487,-1.4889 4.3964,-0.01222 11.48,1.8768 11.48,1.8768 0,0 -3.2221,-1.5942 -7.6857,-2.6265 a 21.203,21.203 0 0 0 -4.769,-0.5192 z"
     fill="#ffffff"
     stroke-width="1.527"
     id="path71" />
</svg>
