<?xml version="1.0" encoding="UTF-8"?>
<svg width="60" height="40" version="1.1" viewBox="0 0 60 40" xmlns="http://www.w3.org/2000/svg" xmlns:cc="http://creativecommons.org/ns#" xmlns:dc="http://purl.org/dc/elements/1.1/" xmlns:rdf="http://www.w3.org/1999/02/22-rdf-syntax-ns#">
 <metadata>
  <rdf:RDF>
   <cc:Work rdf:about="">
    <dc:format>image/svg+xml</dc:format>
    <dc:type rdf:resource="http://purl.org/dc/dcmitype/StillImage"/>
   </cc:Work>
  </rdf:RDF>
 </metadata>
 <mask id="a" fill="#ffffff">
  <path d="m0 0h313.3v159.86h-313.3z" fill="#fff" fill-rule="evenodd"/>
 </mask>
 <mask id="b" fill="#ffffff">
  <path d="m0 0h313.3v159.86h-313.3z" fill="#fff" fill-rule="evenodd"/>
 </mask>
 <g transform="matrix(.49527 0 0 .49527 5.0758 3.2126)">
  <g fill="#a00c0c">
   <polygon class="st0" transform="matrix(1.6152 0 0 1.6152 -24.584 -106.93)" points="9 99.9 30.6 112.3 52.2 99.9 52.2 75 30.6 62.5 9 75"/>
   <path class="st0" d="m69.72 49.413 25.308 14.568 25.185-14.568v-29.012l-25.185-14.568-25.308 14.568zm25.308 17.901-28.148-16.173v-32.468l28.024-16.173 28.024 16.173v32.468z" stroke-width="1.2345"/>
   <path class="st0" d="m100.58 104.21 25.308 14.568 25.185-14.568v-29.012l-25.185-14.568-25.308 14.568zm25.308 17.901-28.148-16.173v-32.468l28.024-16.173 28.024 16.173v32.468z" stroke-width="1.2345"/>
   <polygon class="st0" transform="matrix(1.2345 0 0 1.2345 26.14 -17.499)" points="30.6 112.3 52.2 99.9 52.2 75 30.6 62.5 9 75 9 99.9"/>
  </g>
 </g>
 <path d="m7.8931 6.2369c1.8737 2.6708 3.106 5.9906 3.3855 9.6541a19.699 19.699 0 0 1-1.0262 8.0232 6.5511 6.5511 0 0 1 4.5338-2.3257c0.07636-0.0062 0.15118-0.0092 0.226-0.01222 0.12216-0.74978 0.71772-5.2683-1.4919-10.201-1.6309-3.6436-4.5812-4.8255-5.6272-5.1385zm2.7136 0.056501s3.6741 1.6278 5.079 8.4706c0.92692 4.5125 0.07483 7.3848-0.61388 8.8157a11.219 11.219 0 0 1 6.8809-3.045c1.3133-0.09926 2.5884 0.03055 3.7902 0.3558-0.15271-1.1315-0.90555-5.2134-4.1719-9.0402-4.9828-5.8379-10.964-5.5585-10.964-5.5585zm22.626 14.814-27.365 4.656a3.4878 3.4878 0 0 1 2.344 3.442 3.5275 3.5275 0 0 1-0.16187 0.9315c0.08398-0.04122 4.1063-1.947 9.6846-3.106 4.9446-1.0277 8.7394-0.54974 9.5976-0.41689a9.8648 9.8648 0 0 1 5.9006-5.5066zm-9.4876 6.2273c-3.5397 0-7.0871 0.75589-10.1 1.7805-4.3796 1.4904-4.5063 2.0585-8.4752 1.5927-2.8037-0.32832-5.6196-1.7027-5.6196-1.7027s3.6741 3.0083 7.504 3.248c3.0327 0.19088 5.3523-1.2552 8.1163-2.1593 4.0635-1.3301 6.8886-1.4812 9.5487-1.4889 4.3964-0.01222 11.48 1.8768 11.48 1.8768s-3.2221-1.5942-7.6857-2.6265a21.203 21.203 0 0 0-4.769-0.5192z" fill="#fff" stroke-width="1.527"/>
</svg>
