<?xml version="1.0" encoding="UTF-8"?>
<svg width="60" height="40" version="1.1" viewBox="0 0 60 40" xmlns="http://www.w3.org/2000/svg" xmlns:cc="http://creativecommons.org/ns#" xmlns:dc="http://purl.org/dc/elements/1.1/" xmlns:rdf="http://www.w3.org/1999/02/22-rdf-syntax-ns#" xmlns:xlink="http://www.w3.org/1999/xlink">
 <metadata>
  <rdf:RDF>
   <cc:Work rdf:about="">
    <dc:format>image/svg+xml</dc:format>
    <dc:type rdf:resource="http://purl.org/dc/dcmitype/StillImage"/>
   </cc:Work>
  </rdf:RDF>
 </metadata>
 <mask id="a" fill="#ffffff">
  <path d="m0 0h313.3v159.86h-313.3z" fill="#fff" fill-rule="evenodd"/>
 </mask>
 <mask id="b" fill="#ffffff">
  <path d="m0 0h313.3v159.86h-313.3z" fill="#fff" fill-rule="evenodd"/>
 </mask>
 <g>
  <g transform="matrix(.49527 0 0 .49527 5.0758 3.2126)">
   <g fill="#222">
    <polygon class="st0" transform="matrix(1.6152 0 0 1.6152 -24.584 -106.93)" points="9 99.9 30.6 112.3 52.2 99.9 52.2 75 30.6 62.5 9 75"/>
    <path class="st0" d="m69.72 49.413 25.308 14.568 25.185-14.568v-29.012l-25.185-14.568-25.308 14.568zm25.308 17.901-28.148-16.173v-32.468l28.024-16.173 28.024 16.173v32.468z" stroke-width="1.2345"/>
    <path class="st0" d="m100.58 104.21 25.308 14.568 25.185-14.568v-29.012l-25.185-14.568-25.308 14.568zm25.308 17.901-28.148-16.173v-32.468l28.024-16.173 28.024 16.173v32.468z" stroke-width="1.2345"/>
    <polygon class="st0" transform="matrix(1.2345 0 0 1.2345 26.14 -17.499)" points="30.6 112.3 52.2 99.9 52.2 75 30.6 62.5 9 75 9 99.9"/>
   </g>
   <g transform="matrix(.66255 0 0 .66255 89.519 7.1168)" stroke-width="1.5647">
    <path class="st1" d="m-57.75 52.302c4.0683-0.31294 7.3542 2.3471 7.6672 6.4154 0.31295 4.2248-2.66 7.6672-6.7283 7.9801-3.9118 0.31294-7.3542-2.66-7.6672-6.5719-0.31294-4.2248 2.5036-7.3542 6.7283-7.8236z" fill="#c8c8c8"/>
    <path class="st2" d="m-107.2 85.631c0-4.0683 3.1295-7.1978 6.8848-7.1978 3.7553 0 7.3542 3.4424 7.3542 7.3542 0 3.7554-3.1294 7.0413-6.7283 7.1978-4.5377 0-7.5107-2.8165-7.5107-7.3542z" fill="#88969b"/>
    <path class="st3" d="m-96.086 39.941c-0.62589 0.31294-0.93884-0.15647-1.0953-0.62589-5.7895-10.797-4.0683-24.41 6.1024-32.546 2.66-2.1906 7.6672-2.66 9.8578-0.46942 0.93884 0.78237 1.0953 1.7212 1.2518 2.8165 0.31295 2.3471 0.78237 4.6942 2.3471 6.5719 1.7212 2.0341 3.9118 2.8165 6.4154 2.66 2.1906 0 4.3812-0.31295 5.7895 2.1906 0.78236 1.4083 0.46941 6.8848-0.78236 7.9801-0.62591 0.46942-1.0953 0.15647-1.5648 0-3.5989-1.4083-7.3542-1.4083-11.11-0.78236-1.2518 0.15647-1.8777-0.15647-1.8777-1.5647-0.15648-2.3471-0.62589-4.5377-1.8777-6.5719-2.3471-4.2248-6.7283-4.3812-9.5448-0.46942-2.3471 3.1295-2.973 6.8848-3.5989 10.64-0.62589 3.2859-0.46942 6.7283-0.31294 10.171 0 0-0.15648 0 0 0z" fill="#888"/>
    <path class="st1" d="m-92.174 42.288c-0.31295-0.46942-0.15648-0.93884 0.31295-1.2518 8.919-8.1366 22.219-9.7013 32.546-1.7212 2.66 2.1906 4.3812 6.7283 2.973 9.3884-0.6259 1.0953-1.4083 1.5647-2.3471 1.8777-2.1906 0.93884-4.2248 1.8777-5.633 3.9118-1.4082 2.0341-1.7212 4.3812-1.0953 6.8848 0.46941 2.0341 1.2518 4.2248-0.78236 6.1024-1.0953 1.0953-6.4154 2.0341-7.8237 1.0953-0.62588-0.46942-0.46941-0.93884-0.31293-1.5647 0.46941-3.9118-0.46943-7.5107-1.8777-10.953-0.46943-1.2518-0.31295-1.8777 0.93884-2.1906 2.1906-0.62589 4.2248-1.7212 5.7895-3.2859 3.4424-3.2859 2.66-7.5107-1.8777-9.3884-3.5989-1.5647-7.3542-1.2518-10.953-0.93884-3.4424 0.15647-6.7283 1.0953-9.8578 2.0341z" fill="#c8c8c8"/>
    <path class="st2" d="m-94.208 46.356c0.46941-0.46942 0.78236-0.31295 1.2518 0 10.327 6.2589 15.647 18.62 10.953 30.669-1.2518 3.1295-5.3201 6.2589-8.2931 5.4766-1.2518-0.31295-1.8777-0.93884-2.5036-1.7212-1.4082-1.8777-2.973-3.5989-5.3201-4.3812-2.5036-0.78236-4.6942-0.31295-6.8848 0.93884-1.8777 1.0953-3.7554 2.5036-6.1024 1.0953-1.4082-0.78236-3.7553-5.633-3.2859-7.1977 0.31295-0.6259 0.93884-0.6259 1.5647-0.6259 3.9118-0.62589 7.0413-2.5036 10.014-5.0071 0.93884-0.78236 1.7212-0.78236 2.5036 0.31295 1.2518 1.8777 2.8165 3.4424 4.8507 4.5377 4.0683 2.3471 7.9801 0.31295 8.4495-4.3812 0.46941-3.9118-0.93884-7.3542-2.1906-10.797-1.4083-3.1295-3.1295-6.1024-5.0071-8.919z" fill="#88969b"/>
    <path class="st4" d="m-99.215 47.295c-0.62588 3.1295-2.0342 6.1024-3.9118 8.7625-5.633 8.4495-13.77 11.892-23.784 10.953-3.5989-0.31294-6.5719-3.2859-6.8848-6.2589-0.15647-1.2518 0.15648-2.1906 0.93883-3.1295 1.0953-1.4083 2.0342-2.66 2.5036-4.3812 0.93884-3.4424-0.31293-6.2589-2.8165-8.7625-3.4424-3.4424-2.973-6.5719 1.0953-9.0754 0.46943-0.31295 1.0953-0.62589 1.7212-0.93884 0.93884-0.46942 1.7212-0.46942 2.0342 0.62589 1.4082 3.5989 4.2248 6.2589 7.3542 8.4495 1.0953 0.93884 1.0953 1.5647 0.15648 2.66-1.8777 2.0341-2.973 4.5377-3.1295 7.3542-0.31295 3.4424 1.7212 5.633 5.1636 5.633 2.1906 0 4.2248-0.78236 6.1024-1.7212 4.8506-2.5036 8.606-6.1024 12.205-9.8578 0.46943-0.15647 0.62591-0.46942 1.2518-0.31294z" fill="#565656"/>
    <path class="st5" d="m-124.88 14.436c0.31294 0 1.0953 0.15647 1.8777 0.31295 5.7895 1.0953 9.3884-0.93884 11.266-6.4154 1.2518-3.5989 3.9118-4.6942 7.3542-2.8165 0.15648 0 0.15648 0.15647 0.31294 0.15647 3.5989 2.0341 3.5989 2.3471 1.4083 5.4766-1.8777 2.5036-2.8165 5.3201-3.2859 8.2931-0.31295 1.7212-0.93884 2.0341-2.5036 1.4083-2.5036-0.93884-5.1636-0.93884-7.8236 0-2.973 0.93884-4.2248 3.5989-3.2859 6.5719 1.2518 3.9118 4.6942 5.633 7.6672 7.6672 2.973 2.0341 6.4154 3.1295 9.7013 4.5377 0.46942 0.15647 1.2518 0.15647 1.0953 0.93884-0.15647 0.46942-0.78236 0.46942-1.4082 0.46942-7.0413 0.31295-13.77-0.78236-19.246-5.4766-5.1636-4.2248-8.919-9.3884-8.2931-16.586 0.46942-2.3471 2.1906-4.0683 5.1636-4.5377z" fill="#e6e6e6"/>
    <path class="st4" d="m-137.71 58.405c-3.7554 0.46942-7.5107-2.66-7.8236-6.5719-0.31295-3.7553 2.8165-7.5107 6.4154-7.8236 4.0683-0.46942 7.8236 2.3471 8.1366 6.1024 0.15647 3.5989-2.1906 7.9801-6.7283 8.2931z" fill="#565656"/>
    <path class="st3" d="m-71.989 2.7003c3.9118-0.31295 7.6672 2.8165 7.9801 6.7283 0.31295 3.7553-2.8165 7.3542-6.5719 7.6672-4.0683 0.31294-7.6672-2.66-7.9801-6.5719-0.31293-3.9118 2.5036-7.5107 6.5719-7.8236z" fill="#888"/>
    <path class="st5" d="m-112.83 5.6733c0.46941 4.0683-2.3471 7.5107-6.5719 8.1366-3.5989 0.46942-7.3542-2.5036-7.8236-5.946-0.46942-4.5377 2.0341-7.8236 6.2589-8.2931 3.9118-0.46942 7.6672 2.5036 8.1366 6.1024z" fill="#e6e6e6"/>
   </g>
  </g>
 </g>
</svg>
