<?xml version="1.0" encoding="UTF-8" standalone="no"?>
<svg
   xmlns:dc="http://purl.org/dc/elements/1.1/"
   xmlns:cc="http://creativecommons.org/ns#"
   xmlns:rdf="http://www.w3.org/1999/02/22-rdf-syntax-ns#"
   xmlns:svg="http://www.w3.org/2000/svg"
   xmlns="http://www.w3.org/2000/svg"
   xmlns:sodipodi="http://sodipodi.sourceforge.net/DTD/sodipodi-0.dtd"
   xmlns:inkscape="http://www.inkscape.org/namespaces/inkscape"
   width="40"
   height="40"
   version="1.1"
   viewBox="0 0 40 40"
   id="svg82"
   sodipodi:docname="os-alpine.svg"
   inkscape:version="1.0.2 (e86c870879, 2021-01-15)">
  <defs
     id="defs86" />
  <sodipodi:namedview
     pagecolor="#ffffff"
     bordercolor="#666666"
     borderopacity="1"
     objecttolerance="10"
     gridtolerance="10"
     guidetolerance="10"
     inkscape:pageopacity="0"
     inkscape:pageshadow="2"
     inkscape:window-width="1920"
     inkscape:window-height="1016"
     id="namedview84"
     showgrid="false"
     inkscape:zoom="2.471875"
     inkscape:cx="45.912883"
     inkscape:cy="90.801663"
     inkscape:window-x="0"
     inkscape:window-y="0"
     inkscape:window-maximized="1"
     inkscape:current-layer="g68" />
  <metadata
     id="metadata52">
    <rdf:RDF>
      <cc:Work
         rdf:about="">
        <dc:format>image/svg+xml</dc:format>
        <dc:type
           rdf:resource="http://purl.org/dc/dcmitype/StillImage" />
        <dc:title></dc:title>
      </cc:Work>
    </rdf:RDF>
  </metadata>
  <mask
     id="a"
     fill="#ffffff">
    <path
       d="M 0,0 H 313.3 V 159.86 H 0 Z"
       fill="#ffffff"
       fill-rule="evenodd"
       id="path54" />
  </mask>
  <mask
     id="b"
     fill="#ffffff">
    <path
       d="M 0,0 H 313.3 V 159.86 H 0 Z"
       fill="#ffffff"
       fill-rule="evenodd"
       id="path57" />
  </mask>
  <g
     id="g80">
    <g
       transform="matrix(0.49527,0,0,0.49527,5.0758,3.2126)"
       id="g78">
      <g
         fill="#222222"
         id="g68">
        <polygon
           class="st0"
           transform="matrix(1.6152,0,0,1.6152,-20.545799,-106.93)"
           points="52.2,99.9 52.2,75 30.6,62.5 9,75 9,99.9 30.6,112.3 "
           id="polygon60" />
      </g>
      <g
         transform="matrix(0.66255,0,0,0.66255,93.557201,7.1168)"
         id="g76">
        <g
           transform="matrix(1.689,0,0,1.689,264.98,-22.121)"
           id="g74">
          <path
             d="m -214.69,4.2217 27.579,16.623 v 33.113 l -27.579,16.49 -27.579,-16.49 v -33.113 z"
             fill="#ffffff"
             id="path70" />
          <path
             d="m -223.72,45.842 v -7.36 l -5.2998,5.3054 c 0.57099,0.39739 1.1091,0.72394 1.6154,0.98949 0.50624,0.26603 0.98011,0.47153 1.4216,0.62776 0.4415,0.15671 0.85109,0.26368 1.2278,0.33312 0.37722,0.069 0.72206,0.0999 1.035,0.10416 m 27.095,-0.61181 c 0.009,0.008 0.061,0.0516 0.15623,0.11213 0.0957,0.061 0.23553,0.13935 0.42132,0.21676 0.18533,0.0769 0.4171,0.15342 0.69673,0.21019 0.27963,0.0572 0.60712,0.0948 0.98433,0.0948 0.31482,0 0.66201,-0.0277 1.0425,-0.0938 0.38098,-0.0666 0.79432,-0.17219 1.241,-0.32795 0.44712,-0.15624 0.92709,-0.36268 1.4404,-0.63058 0.51328,-0.26837 1.0599,-0.59867 1.6398,-1.0022 l -4.0218,-3.9397 -13.329,-13.379 -5.8487,5.8502 -7.8897,-8.136 -19.801,19.577 c 0.57943,0.40349 1.1251,0.73379 1.6379,1.0022 0.51281,0.2679 0.99231,0.47434 1.439,0.63057 0.44619,0.15577 0.85953,0.26134 1.24,0.32749 0.38004,0.0666 0.72723,0.0943 1.0416,0.0943 0.37721,0 0.7047,-0.0375 0.98386,-0.0948 0.27963,-0.0568 0.51093,-0.13324 0.69673,-0.21066 0.18579,-0.0769 0.32514,-0.1553 0.42085,-0.21629 0.0957,-0.061 0.14732,-0.10463 0.1567,-0.1126 l 8.9388,-8.9388 3.1965,-3.0651 8.8515,8.8515 3.0924,3.1801 c 0.009,0.008 0.061,0.0516 0.1567,0.11213 0.0957,0.061 0.23505,0.13935 0.42085,0.21676 0.18579,0.0769 0.41756,0.15342 0.69672,0.21019 0.27963,0.0572 0.60759,0.0948 0.98481,0.0948 0.31435,0 0.662,-0.0277 1.0425,-0.0938 0.3805,-0.0666 0.79431,-0.17219 1.241,-0.32795 0.44666,-0.15624 0.92662,-0.36268 1.4399,-0.63058 0.51328,-0.26837 1.0599,-0.59867 1.6398,-1.0022 l -7.1029,-6.9556 1.3221,-1.3221 6.1467,6.1467 3.5845,3.5517 m -18.062,-43.837 31.178,18.043 v 35.942 l -31.178,17.899 -31.178,-17.899 v -35.942 z"
             fill="#222222"
             id="path72" />
        </g>
      </g>
    </g>
  </g>
</svg>
