<?xml version="1.0" encoding="UTF-8"?>
<svg width="60" height="40" version="1.1" viewBox="0 0 60 40" xmlns="http://www.w3.org/2000/svg" xmlns:cc="http://creativecommons.org/ns#" xmlns:dc="http://purl.org/dc/elements/1.1/" xmlns:rdf="http://www.w3.org/1999/02/22-rdf-syntax-ns#" xmlns:xlink="http://www.w3.org/1999/xlink">
 <metadata>
  <rdf:RDF>
   <cc:Work rdf:about="">
    <dc:format>image/svg+xml</dc:format>
    <dc:type rdf:resource="http://purl.org/dc/dcmitype/StillImage"/>
   </cc:Work>
  </rdf:RDF>
 </metadata>
 <mask id="a" fill="#ffffff">
  <path d="m0 0h313.3v159.86h-313.3z" fill="#fff" fill-rule="evenodd"/>
 </mask>
 <mask id="b" fill="#ffffff">
  <path d="m0 0h313.3v159.86h-313.3z" fill="#fff" fill-rule="evenodd"/>
 </mask>
 <g>
  <g transform="matrix(.49527 0 0 .49527 5.0758 3.2126)">
   <g fill="#222">
    <polygon class="st0" transform="matrix(1.6152 0 0 1.6152 -24.584 -106.93)" points="9 99.9 30.6 112.3 52.2 99.9 52.2 75 30.6 62.5 9 75"/>
    <path class="st0" d="m69.72 49.413 25.308 14.568 25.185-14.568v-29.012l-25.185-14.568-25.308 14.568zm25.308 17.901-28.148-16.173v-32.468l28.024-16.173 28.024 16.173v32.468z" stroke-width="1.2345"/>
    <path class="st0" d="m100.58 104.21 25.308 14.568 25.185-14.568v-29.012l-25.185-14.568-25.308 14.568zm25.308 17.901-28.148-16.173v-32.468l28.024-16.173 28.024 16.173v32.468z" stroke-width="1.2345"/>
    <polygon class="st0" transform="matrix(1.2345 0 0 1.2345 26.14 -17.499)" points="30.6 112.3 52.2 99.9 52.2 75 30.6 62.5 9 75 9 99.9"/>
   </g>
   <g transform="matrix(.66255 0 0 .66255 89.519 7.1168)">
    <g transform="matrix(1.689 0 0 1.689 264.98 -22.121)">
     <path d="m-214.69 4.2217 27.579 16.623v33.113l-27.579 16.49-27.579-16.49v-33.113z" fill="#fff"/>
     <path d="m-223.72 45.842v-7.36l-5.2998 5.3054c0.57099 0.39739 1.1091 0.72394 1.6154 0.98949 0.50624 0.26603 0.98011 0.47153 1.4216 0.62776 0.4415 0.15671 0.85109 0.26368 1.2278 0.33312 0.37722 0.069 0.72206 0.0999 1.035 0.10416m27.095-0.61181c9e-3 8e-3 0.061 0.0516 0.15623 0.11213 0.0957 0.061 0.23553 0.13935 0.42132 0.21676 0.18533 0.0769 0.4171 0.15342 0.69673 0.21019 0.27963 0.0572 0.60712 0.0948 0.98433 0.0948 0.31482 0 0.66201-0.0277 1.0425-0.0938 0.38098-0.0666 0.79432-0.17219 1.241-0.32795 0.44712-0.15624 0.92709-0.36268 1.4404-0.63058 0.51328-0.26837 1.0599-0.59867 1.6398-1.0022l-4.0218-3.9397-13.329-13.379-5.8487 5.8502-7.8897-8.136-19.801 19.577c0.57943 0.40349 1.1251 0.73379 1.6379 1.0022 0.51281 0.2679 0.99231 0.47434 1.439 0.63057 0.44619 0.15577 0.85953 0.26134 1.24 0.32749 0.38004 0.0666 0.72723 0.0943 1.0416 0.0943 0.37721 0 0.7047-0.0375 0.98386-0.0948 0.27963-0.0568 0.51093-0.13324 0.69673-0.21066 0.18579-0.0769 0.32514-0.1553 0.42085-0.21629 0.0957-0.061 0.14732-0.10463 0.1567-0.1126l8.9388-8.9388 3.1965-3.0651 8.8515 8.8515 3.0924 3.1801c9e-3 8e-3 0.061 0.0516 0.1567 0.11213 0.0957 0.061 0.23505 0.13935 0.42085 0.21676 0.18579 0.0769 0.41756 0.15342 0.69672 0.21019 0.27963 0.0572 0.60759 0.0948 0.98481 0.0948 0.31435 0 0.662-0.0277 1.0425-0.0938 0.3805-0.0666 0.79431-0.17219 1.241-0.32795 0.44666-0.15624 0.92662-0.36268 1.4399-0.63058 0.51328-0.26837 1.0599-0.59867 1.6398-1.0022l-7.1029-6.9556 1.3221-1.3221 6.1467 6.1467 3.5845 3.5517m-18.062-43.837 31.178 18.043v35.942l-31.178 17.899-31.178-17.899v-35.942z" fill="#222"/>
    </g>
   </g>
  </g>
 </g>
</svg>
