<?xml version="1.0" encoding="UTF-8"?>
<svg width="60" height="40" version="1.1" viewBox="0 0 60 40" xmlns="http://www.w3.org/2000/svg" xmlns:cc="http://creativecommons.org/ns#" xmlns:dc="http://purl.org/dc/elements/1.1/" xmlns:rdf="http://www.w3.org/1999/02/22-rdf-syntax-ns#" xmlns:xlink="http://www.w3.org/1999/xlink">
 <metadata>
  <rdf:RDF>
   <cc:Work rdf:about="">
    <dc:format>image/svg+xml</dc:format>
    <dc:type rdf:resource="http://purl.org/dc/dcmitype/StillImage"/>
   </cc:Work>
  </rdf:RDF>
 </metadata>
 <defs>
  <clipPath>
   <g transform="matrix(.99477 0 0 1 1.7861 0)">
    <path d="m322.54 2800.9-4.435 5.7298-4.435-5.7298v-43.143h-18.94l23.375-25.537 23.131 25.537h-18.696z" fill="#efa724" fill-rule="evenodd"/>
   </g>
  </clipPath>
 </defs>
 <mask id="a" fill="#ffffff">
  <path d="m0 0h313.3v159.86h-313.3z" fill="#fff" fill-rule="evenodd"/>
 </mask>
 <mask id="b" fill="#ffffff">
  <path d="m0 0h313.3v159.86h-313.3z" fill="#fff" fill-rule="evenodd"/>
 </mask>
 <g>
  <g transform="matrix(.49527 0 0 .49527 5.0758 3.2126)">
   <g fill="#222">
    <polygon class="st0" transform="matrix(1.6152 0 0 1.6152 -24.584 -106.93)" points="9 99.9 30.6 112.3 52.2 99.9 52.2 75 30.6 62.5 9 75"/>
    <path class="st0" d="m69.72 49.413 25.308 14.568 25.185-14.568v-29.012l-25.185-14.568-25.308 14.568zm25.308 17.901-28.148-16.173v-32.468l28.024-16.173 28.024 16.173v32.468z" stroke-width="1.2345"/>
    <path class="st0" d="m100.58 104.21 25.308 14.568 25.185-14.568v-29.012l-25.185-14.568-25.308 14.568zm25.308 17.901-28.148-16.173v-32.468l28.024-16.173 28.024 16.173v32.468z" stroke-width="1.2345"/>
    <polygon class="st0" transform="matrix(1.2345 0 0 1.2345 26.14 -17.499)" points="30.6 112.3 52.2 99.9 52.2 75 30.6 62.5 9 75 9 99.9"/>
   </g>
   <g transform="matrix(0 -.35966 .35966 0 -662.49 151.52)">
    <g transform="translate(16.28 -899.17)">
     <g transform="matrix(1.0667 0 0 1 -26.936 -4.1328e-5)">
      <path d="m323.37 2798.2-5.4062 5.8005-5.4062-5.8005v-40.826h-18.013l23.419-24.898 23.025 24.898h-17.619z" fill="#5b5b5b" fill-rule="evenodd"/>
     </g>
    </g>
   </g>
   <g transform="matrix(.35966 0 0 .35966 -93.082 -654.13)">
    <g transform="translate(16.28 -899.17)">
     <g transform="matrix(1.0667 0 0 1 -26.936 -4.1328e-5)">
      <path d="m323.37 2798.2-5.4062 5.8005-5.4062-5.8005v-40.826h-18.013l23.419-24.898 23.025 24.898h-17.619z" fill="#898989" fill-rule="evenodd"/>
     </g>
    </g>
   </g>
   <g transform="matrix(0 .35966 -.35966 0 1036 -78.859)">
    <g transform="matrix(1.0667 0 0 1 -26.936 -4.1328e-5)">
     <path d="m323.37 2798.2-5.4062 5.8005-5.4062-5.8005v-40.826h-18.013l23.419-24.898 23.025 24.898h-17.619z" fill="#4e4e4e" fill-rule="evenodd"/>
    </g>
   </g>
   <g transform="matrix(-.35966 0 0 -.35966 143.15 720.93)">
    <g transform="translate(16.28 -899.17)">
     <g transform="matrix(1.0667 0 0 1 -26.936 -4.1328e-5)">
      <path d="m323.37 2798.2-5.4062 5.8005-5.4062-5.8005v-40.826h-18.013l23.419-24.898 23.025 24.898h-17.619z" fill="#7c7c7c" fill-rule="evenodd"/>
     </g>
    </g>
   </g>
   <g transform="matrix(.35966 0 0 .35966 -236.4 -808.45)" stroke="#fff" stroke-width="3.5433">
    <path d="m671.98 2285.8h49.606v49.606h-49.606z" fill="#7c7c7c"/>
    <path d="m732.22 2285.8h49.606v49.606h-49.606z" fill="#5b5b5b"/>
    <path d="m732.22 2346h49.606v49.606h-49.606z" fill="#898989"/>
    <path d="m671.98 2346h49.606v49.606h-49.606z" fill="#4e4e4e"/>
   </g>
   <g fill="none" stroke="#fff">
    <path d="m-2.9008 33.402 12.616-12.616 12.616 12.616-12.616 12.616z" stroke-width="1.2744"/>
    <path d="m12.418 18.082 12.616-12.616 12.616 12.616-12.616 12.616z" stroke-width="1.2743"/>
    <path d="m27.737 33.402 12.616-12.616 12.616 12.616-12.616 12.616z" stroke-width="1.2744"/>
    <path d="m12.418 48.721 12.616-12.616 12.616 12.616-12.616 12.616z" stroke-width="1.2744"/>
   </g>
  </g>
 </g>
</svg>
