<?xml version="1.0" encoding="UTF-8" standalone="no"?>
<svg
   xmlns:dc="http://purl.org/dc/elements/1.1/"
   xmlns:cc="http://creativecommons.org/ns#"
   xmlns:rdf="http://www.w3.org/1999/02/22-rdf-syntax-ns#"
   xmlns:svg="http://www.w3.org/2000/svg"
   xmlns="http://www.w3.org/2000/svg"
   xmlns:sodipodi="http://sodipodi.sourceforge.net/DTD/sodipodi-0.dtd"
   xmlns:inkscape="http://www.inkscape.org/namespaces/inkscape"
   width="40"
   height="40"
   version="1.1"
   viewBox="0 0 40 40"
   id="svg168"
   sodipodi:docname="os-centos.svg"
   inkscape:version="1.0.2 (e86c870879, 2021-01-15)">
  <sodipodi:namedview
     pagecolor="#ffffff"
     bordercolor="#666666"
     borderopacity="1"
     objecttolerance="10"
     gridtolerance="10"
     guidetolerance="10"
     inkscape:pageopacity="0"
     inkscape:pageshadow="2"
     inkscape:window-width="1920"
     inkscape:window-height="1016"
     id="namedview170"
     showgrid="false"
     inkscape:zoom="3.4957592"
     inkscape:cx="15.624466"
     inkscape:cy="45.689921"
     inkscape:window-x="0"
     inkscape:window-y="0"
     inkscape:window-maximized="1"
     inkscape:current-layer="g112" />
  <metadata
     id="metadata88">
    <rdf:RDF>
      <cc:Work
         rdf:about="">
        <dc:format>image/svg+xml</dc:format>
        <dc:type
           rdf:resource="http://purl.org/dc/dcmitype/StillImage" />
        <dc:title></dc:title>
      </cc:Work>
    </rdf:RDF>
  </metadata>
  <defs
     id="defs96">
    <clipPath
       id="clipPath94">
      <g
         transform="matrix(0.99477,0,0,1,1.7861,0)"
         id="g92">
        <path
           d="m 322.54,2800.9 -4.435,5.7298 -4.435,-5.7298 v -43.143 h -18.94 l 23.375,-25.537 23.131,25.537 H 322.54 Z"
           fill="#efa724"
           fill-rule="evenodd"
           id="path90" />
      </g>
    </clipPath>
  </defs>
  <mask
     id="a"
     fill="#ffffff">
    <path
       d="M 0,0 H 313.3 V 159.86 H 0 Z"
       fill="#ffffff"
       fill-rule="evenodd"
       id="path98" />
  </mask>
  <mask
     id="b"
     fill="#ffffff">
    <path
       d="M 0,0 H 313.3 V 159.86 H 0 Z"
       fill="#ffffff"
       fill-rule="evenodd"
       id="path101" />
  </mask>
  <g
     id="g166">
    <g
       transform="matrix(0.49527,0,0,0.49527,5.0758,3.2126)"
       id="g164">
      <g
         fill="#222222"
         id="g112">
        <polygon
           class="st0"
           transform="matrix(1.6152,0,0,1.6152,-20.545799,-106.93)"
           points="52.2,99.9 52.2,75 30.6,62.5 9,75 9,99.9 30.6,112.3 "
           id="polygon104" />
      </g>
      <g
         transform="matrix(0,-0.35966,0.35966,0,-658.4518,151.52)"
         id="g120">
        <g
           transform="translate(16.28,-899.17)"
           id="g118">
          <g
             transform="matrix(1.0667,0,0,1,-26.936,-4.1328e-5)"
             id="g116">
            <path
               d="m 323.37,2798.2 -5.4062,5.8005 -5.4062,-5.8005 v -40.826 h -18.013 l 23.419,-24.898 23.025,24.898 h -17.619 z"
               fill="#5b5b5b"
               fill-rule="evenodd"
               id="path114" />
          </g>
        </g>
      </g>
      <g
         transform="matrix(0.35966,0,0,0.35966,-89.043799,-654.13)"
         id="g128">
        <g
           transform="translate(16.28,-899.17)"
           id="g126">
          <g
             transform="matrix(1.0667,0,0,1,-26.936,-4.1328e-5)"
             id="g124">
            <path
               d="m 323.37,2798.2 -5.4062,5.8005 -5.4062,-5.8005 v -40.826 h -18.013 l 23.419,-24.898 23.025,24.898 h -17.619 z"
               fill="#898989"
               fill-rule="evenodd"
               id="path122" />
          </g>
        </g>
      </g>
      <g
         transform="matrix(0,0.35966,-0.35966,0,1040.0382,-78.859)"
         id="g134">
        <g
           transform="matrix(1.0667,0,0,1,-26.936,-4.1328e-5)"
           id="g132">
          <path
             d="m 323.37,2798.2 -5.4062,5.8005 -5.4062,-5.8005 v -40.826 h -18.013 l 23.419,-24.898 23.025,24.898 h -17.619 z"
             fill="#4e4e4e"
             fill-rule="evenodd"
             id="path130" />
        </g>
      </g>
      <g
         transform="matrix(-0.35966,0,0,-0.35966,147.1882,720.93)"
         id="g142">
        <g
           transform="translate(16.28,-899.17)"
           id="g140">
          <g
             transform="matrix(1.0667,0,0,1,-26.936,-4.1328e-5)"
             id="g138">
            <path
               d="m 323.37,2798.2 -5.4062,5.8005 -5.4062,-5.8005 v -40.826 h -18.013 l 23.419,-24.898 23.025,24.898 h -17.619 z"
               fill="#7c7c7c"
               fill-rule="evenodd"
               id="path136" />
          </g>
        </g>
      </g>
      <g
         transform="matrix(0.35966,0,0,0.35966,-232.3618,-808.45)"
         stroke="#ffffff"
         stroke-width="3.5433"
         id="g152">
        <path
           d="m 671.98,2285.8 h 49.606 v 49.606 H 671.98 Z"
           fill="#7c7c7c"
           id="path144" />
        <path
           d="m 732.22,2285.8 h 49.606 v 49.606 H 732.22 Z"
           fill="#5b5b5b"
           id="path146" />
        <path
           d="m 732.22,2346 h 49.606 v 49.606 H 732.22 Z"
           fill="#898989"
           id="path148" />
        <path
           d="m 671.98,2346 h 49.606 v 49.606 H 671.98 Z"
           fill="#4e4e4e"
           id="path150" />
      </g>
      <g
         fill="none"
         stroke="#ffffff"
         id="g162"
         transform="translate(4.0382014)">
        <path
           d="M -2.9008,33.402 9.7152,20.786 22.3312,33.402 9.7152,46.018 Z"
           stroke-width="1.2744"
           id="path154" />
        <path
           d="M 12.418,18.082 25.034,5.466 37.65,18.082 25.034,30.698 Z"
           stroke-width="1.2743"
           id="path156" />
        <path
           d="M 27.737,33.402 40.353,20.786 52.969,33.402 40.353,46.018 Z"
           stroke-width="1.2744"
           id="path158" />
        <path
           d="M 12.418,48.721 25.034,36.105 37.65,48.721 25.034,61.337 Z"
           stroke-width="1.2744"
           id="path160" />
      </g>
    </g>
  </g>
</svg>
