<?xml version="1.0" encoding="UTF-8" standalone="no"?>
<svg
   xmlns:dc="http://purl.org/dc/elements/1.1/"
   xmlns:cc="http://creativecommons.org/ns#"
   xmlns:rdf="http://www.w3.org/1999/02/22-rdf-syntax-ns#"
   xmlns:svg="http://www.w3.org/2000/svg"
   xmlns="http://www.w3.org/2000/svg"
   xmlns:xlink="http://www.w3.org/1999/xlink"
   xmlns:sodipodi="http://sodipodi.sourceforge.net/DTD/sodipodi-0.dtd"
   xmlns:inkscape="http://www.inkscape.org/namespaces/inkscape"
   width="40"
   height="40"
   version="1.1"
   viewBox="0 0 40 40"
   id="svg198"
   sodipodi:docname="os-fedora.svg"
   inkscape:version="1.0.2 (e86c870879, 2021-01-15)">
  <defs
     id="defs202" />
  <sodipodi:namedview
     pagecolor="#ffffff"
     bordercolor="#666666"
     borderopacity="1"
     objecttolerance="10"
     gridtolerance="10"
     guidetolerance="10"
     inkscape:pageopacity="0"
     inkscape:pageshadow="2"
     inkscape:window-width="1920"
     inkscape:window-height="1016"
     id="namedview200"
     showgrid="false"
     inkscape:zoom="1.2359375"
     inkscape:cx="-189.03951"
     inkscape:cy="3.4572747"
     inkscape:window-x="0"
     inkscape:window-y="0"
     inkscape:window-maximized="1"
     inkscape:current-layer="g194"
     inkscape:document-rotation="0" />
  <metadata
     id="metadata172">
    <rdf:RDF>
      <cc:Work
         rdf:about="">
        <dc:format>image/svg+xml</dc:format>
        <dc:type
           rdf:resource="http://purl.org/dc/dcmitype/StillImage" />
        <dc:title></dc:title>
      </cc:Work>
    </rdf:RDF>
  </metadata>
  <mask
     id="a"
     fill="#ffffff">
    <path
       d="M 0,0 H 313.3 V 159.86 H 0 Z"
       fill="#ffffff"
       fill-rule="evenodd"
       id="path174" />
  </mask>
  <mask
     id="b"
     fill="#ffffff">
    <path
       d="M 0,0 H 313.3 V 159.86 H 0 Z"
       fill="#ffffff"
       fill-rule="evenodd"
       id="path177" />
  </mask>
  <g
     id="g196">
    <g
       transform="matrix(0.49527,0,0,0.49527,5.0758,3.2126)"
       id="g194">
      <g
         fill="#222222"
         id="g188">
        <polygon
           class="st0"
           transform="matrix(1.6152,0,0,1.6152,-20.545799,-106.93)"
           points="52.2,99.9 52.2,75 30.6,62.5 9,75 9,99.9 30.6,112.3 "
           id="polygon180" />
      </g>
      <path
         id="in"
         d="m 18.149201,33.882 h 11.121 v 11.121 c 0,6.1389 -4.9823,11.121 -11.121,11.121 -6.1389,0 -11.1209996,-4.9823 -11.1209996,-11.121 0,-6.1389 4.9822996,-11.121 11.1209996,-11.121 z"
         fill="none"
         stroke="#787878"
         stroke-width="6.7896" />
      <use
         id="finity"
         transform="rotate(180,29.244202,33.893)"
         width="100%"
         height="100%"
         fill="none"
         stroke="#787878"
         xlink:href="#in"
         x="0"
         y="0" />
      <path
         id="free"
         d="m 32.672201,30.496 v 14.492 c 0,8.0202 -6.5027,14.523 -14.523,14.523 -1.2168,0 -2.0819,-0.13738 -3.2083,-0.4318 -1.6424,-0.42981 -2.9847,-1.7765 -2.9852,-3.3428 0,-1.8933 1.3743,-3.2704 3.4286,-3.2704 0.97774,0 1.3325,0.18773 2.7649,0.18773 4.2285,0 7.6584,-3.4251 7.6658,-7.6536 v -6.661 c 0,-0.59686 -0.48502,-1.0804 -1.0829,-1.0804 l -5.0359,-8.04e-4 c -1.8763,0 -3.3923,-1.4966 -3.3923,-3.378 -8.04e-4,-1.8931 1.5315,-3.3836 3.4281,-3.3836"
         fill="#ffffff"
         stroke-width="0.23244"
         style="fill:#ffffff;fill-opacity:1" />
      <use
         id="dom"
         transform="rotate(180,29.244202,33.893)"
         width="100%"
         height="100%"
         xlink:href="#free"
         x="0"
         y="0"
         style="fill:#ffffff;fill-opacity:1" />
    </g>
  </g>
</svg>
