<?xml version="1.0" encoding="UTF-8"?>
<svg width="60" height="40" version="1.1" viewBox="0 0 60 40" xmlns="http://www.w3.org/2000/svg" xmlns:cc="http://creativecommons.org/ns#" xmlns:dc="http://purl.org/dc/elements/1.1/" xmlns:rdf="http://www.w3.org/1999/02/22-rdf-syntax-ns#" xmlns:xlink="http://www.w3.org/1999/xlink">
 <metadata>
  <rdf:RDF>
   <cc:Work rdf:about="">
    <dc:format>image/svg+xml</dc:format>
    <dc:type rdf:resource="http://purl.org/dc/dcmitype/StillImage"/>
   </cc:Work>
  </rdf:RDF>
 </metadata>
 <mask id="a" fill="#ffffff">
  <path d="m0 0h313.3v159.86h-313.3z" fill="#fff" fill-rule="evenodd"/>
 </mask>
 <mask id="b" fill="#ffffff">
  <path d="m0 0h313.3v159.86h-313.3z" fill="#fff" fill-rule="evenodd"/>
 </mask>
 <g>
  <g transform="matrix(.49527 0 0 .49527 5.0758 3.2126)">
   <g fill="#222">
    <polygon class="st0" transform="matrix(1.6152 0 0 1.6152 -24.584 -106.93)" points="9 99.9 30.6 112.3 52.2 99.9 52.2 75 30.6 62.5 9 75"/>
    <path class="st0" d="m69.72 49.413 25.308 14.568 25.185-14.568v-29.012l-25.185-14.568-25.308 14.568zm25.308 17.901-28.148-16.173v-32.468l28.024-16.173 28.024 16.173v32.468z" stroke-width="1.2345"/>
    <path class="st0" d="m100.58 104.21 25.308 14.568 25.185-14.568v-29.012l-25.185-14.568-25.308 14.568zm25.308 17.901-28.148-16.173v-32.468l28.024-16.173 28.024 16.173v32.468z" stroke-width="1.2345"/>
    <polygon class="st0" transform="matrix(1.2345 0 0 1.2345 26.14 -17.499)" points="30.6 112.3 52.2 99.9 52.2 75 30.6 62.5 9 75 9 99.9"/>
   </g>
   <path id="in" d="m14.111 33.882h11.121v11.121c0 6.1389-4.9823 11.121-11.121 11.121-6.1389 0-11.121-4.9823-11.121-11.121 0-6.1389 4.9823-11.121 11.121-11.121z" fill="none" stroke="#787878" stroke-width="6.7896"/>
   <use id="finity" transform="rotate(180 25.206 33.893)" width="100%" height="100%" fill="none" stroke="#787878" xlink:href="#in"/>
   <path id="free" d="m28.634 30.496v14.492c0 8.0202-6.5027 14.523-14.523 14.523-1.2168 0-2.0819-0.13738-3.2083-0.4318-1.6424-0.42981-2.9847-1.7765-2.9852-3.3428 0-1.8933 1.3743-3.2704 3.4286-3.2704 0.97774 0 1.3325 0.18773 2.7649 0.18773 4.2285 0 7.6584-3.4251 7.6658-7.6536v-6.661c0-0.59686-0.48502-1.0804-1.0829-1.0804l-5.0359-8.04e-4c-1.8763 0-3.3923-1.4966-3.3923-3.378-8.04e-4 -1.8931 1.5315-3.3836 3.4281-3.3836" fill="#fff" stroke-width=".23244"/>
   <use id="dom" transform="rotate(180 25.206 33.893)" width="100%" height="100%" xlink:href="#free"/>
  </g>
 </g>
</svg>
