<?xml version="1.0" encoding="UTF-8" standalone="no"?>
<svg
   xmlns:dc="http://purl.org/dc/elements/1.1/"
   xmlns:cc="http://creativecommons.org/ns#"
   xmlns:rdf="http://www.w3.org/1999/02/22-rdf-syntax-ns#"
   xmlns:svg="http://www.w3.org/2000/svg"
   xmlns="http://www.w3.org/2000/svg"
   xmlns:sodipodi="http://sodipodi.sourceforge.net/DTD/sodipodi-0.dtd"
   xmlns:inkscape="http://www.inkscape.org/namespaces/inkscape"
   width="40"
   height="40"
   version="1.1"
   viewBox="0 0 40 40"
   id="svg232"
   sodipodi:docname="os-rocky.svg"
   inkscape:version="1.0.2 (e86c870879, 2021-01-15)">
  <defs
     id="defs236" />
  <sodipodi:namedview
     pagecolor="#ffffff"
     bordercolor="#666666"
     borderopacity="1"
     objecttolerance="10"
     gridtolerance="10"
     guidetolerance="10"
     inkscape:pageopacity="0"
     inkscape:pageshadow="2"
     inkscape:window-width="1920"
     inkscape:window-height="1016"
     id="namedview234"
     showgrid="false"
     inkscape:zoom="4.94375"
     inkscape:cx="15.432307"
     inkscape:cy="40.957445"
     inkscape:window-x="0"
     inkscape:window-y="0"
     inkscape:window-maximized="1"
     inkscape:current-layer="g220" />
  <metadata
     id="metadata204">
    <rdf:RDF>
      <cc:Work
         rdf:about="">
        <dc:format>image/svg+xml</dc:format>
        <dc:type
           rdf:resource="http://purl.org/dc/dcmitype/StillImage" />
        <dc:title></dc:title>
      </cc:Work>
    </rdf:RDF>
  </metadata>
  <mask
     id="a"
     fill="#ffffff">
    <path
       d="M 0,0 H 313.3 V 159.86 H 0 Z"
       fill="#ffffff"
       fill-rule="evenodd"
       id="path206" />
  </mask>
  <mask
     id="b"
     fill="#ffffff">
    <path
       d="M 0,0 H 313.3 V 159.86 H 0 Z"
       fill="#ffffff"
       fill-rule="evenodd"
       id="path209" />
  </mask>
  <g
     id="g230">
    <g
       transform="matrix(0.49527,0,0,0.49527,5.0758,3.2126)"
       id="g228">
      <g
         fill="#222222"
         id="g220">
        <polygon
           class="st0"
           transform="matrix(1.6152,0,0,1.6152,-20.545799,-106.93)"
           points="30.6,62.5 9,75 9,99.9 30.6,112.3 52.2,99.9 52.2,75 "
           id="polygon212" />
      </g>
      <g
         transform="matrix(0.66255,0,0,0.66255,93.557197,7.1168)"
         id="g226">
        <circle
           cx="-97.313004"
           cy="40.637001"
           r="42.723999"
           fill="#f6f6f6"
           id="circle222" />
        <path
           d="m -56.626,54.862 c 1.5542,-4.4481 2.3992,-9.2293 2.3992,-14.208 0,-23.794 -19.303,-43.082 -43.112,-43.082 -23.81,0 -43.111,19.289 -43.111,43.082 0,11.773 4.7262,22.443 12.385,30.22 l 43.731,-43.702 10.796,10.79 z m -7.8745,13.709 -19.834,-19.82 -31.058,31.038 c 5.4914,2.5339 11.607,3.948 18.053,3.948 13.154,0 24.931,-5.8859 32.839,-15.166 z"
           fill="#444444"
           stroke-width="0.10778"
           id="path224" />
      </g>
    </g>
  </g>
</svg>
