<?xml version="1.0" encoding="UTF-8" standalone="no"?>
<svg
   xmlns:dc="http://purl.org/dc/elements/1.1/"
   xmlns:cc="http://creativecommons.org/ns#"
   xmlns:rdf="http://www.w3.org/1999/02/22-rdf-syntax-ns#"
   xmlns:svg="http://www.w3.org/2000/svg"
   xmlns="http://www.w3.org/2000/svg"
   xmlns:sodipodi="http://sodipodi.sourceforge.net/DTD/sodipodi-0.dtd"
   xmlns:inkscape="http://www.inkscape.org/namespaces/inkscape"
   width="40"
   height="40"
   version="1.1"
   viewBox="0 0 40 40"
   id="svg367"
   sodipodi:docname="runner-oc.svg"
   inkscape:version="1.0.2 (e86c870879, 2021-01-15)">
  <defs
     id="defs371" />
  <sodipodi:namedview
     pagecolor="#ffffff"
     bordercolor="#666666"
     borderopacity="1"
     objecttolerance="10"
     gridtolerance="10"
     guidetolerance="10"
     inkscape:pageopacity="0"
     inkscape:pageshadow="2"
     inkscape:window-width="1920"
     inkscape:window-height="1016"
     id="namedview369"
     showgrid="false"
     inkscape:zoom="4.94375"
     inkscape:cx="10.159489"
     inkscape:cy="30.767279"
     inkscape:window-x="0"
     inkscape:window-y="0"
     inkscape:window-maximized="1"
     inkscape:current-layer="g359" />
  <metadata
     id="metadata343">
    <rdf:RDF>
      <cc:Work
         rdf:about="">
        <dc:format>image/svg+xml</dc:format>
        <dc:type
           rdf:resource="http://purl.org/dc/dcmitype/StillImage" />
        <dc:title></dc:title>
      </cc:Work>
    </rdf:RDF>
  </metadata>
  <mask
     id="a"
     fill="#ffffff">
    <path
       d="M 0,0 H 313.3 V 159.86 H 0 Z"
       fill="#ffffff"
       fill-rule="evenodd"
       id="path345" />
  </mask>
  <mask
     id="b"
     fill="#ffffff">
    <path
       d="M 0,0 H 313.3 V 159.86 H 0 Z"
       fill="#ffffff"
       fill-rule="evenodd"
       id="path348" />
  </mask>
  <g
     transform="matrix(0.49527,0,0,0.49527,5.0758,3.2126)"
     id="g365">
    <g
       fill="#0ca09d"
       id="g359">
      <polygon
         class="st0"
         transform="matrix(1.6152,0,0,1.6152,-20.545799,-106.93)"
         points="52.2,99.9 52.2,75 30.6,62.5 9,75 9,99.9 30.6,112.3 "
         id="polygon351" />
    </g>
    <g
       fill="#fdfdfd"
       stroke="#ffffff"
       stroke-linecap="round"
       stroke-linejoin="round"
       stroke-width="3.8486"
       aria-label="&gt;_"
       id="g363"
       transform="translate(4.0382014)">
      <path
         d="m 25.358,2.941 c -0.95437,1.17e-4 -1.7282,0.85972 -1.7281,1.9201 2e-6,0.016274 0.0033,0.031825 0.0037,0.048002 -0.0014,0.14408 -0.0083,0.31765 -0.0037,0.4431 0.02276,0.61159 0.15608,1.0797 0.23632,1.6432 0.14537,1.206 0.26718,2.2057 0.19201,3.1349 -0.07311,0.35039 -0.33119,0.67084 -0.56126,0.89358 l -0.04061,0.73111 c -1.0371,0.08592 -2.0811,0.24326 -3.1238,0.48002 -4.487,1.0188 -8.3503,3.3301 -11.292,6.4508 -0.19085,-0.1302 -0.52475,-0.36974 -0.62403,-0.4431 -0.30853,0.04167 -0.62036,0.13686 -1.0265,-0.0997 -0.77334,-0.52057 -1.4777,-1.2391 -2.33,-2.1047 -0.39051,-0.41405 -0.67331,-0.80833 -1.1373,-1.2074 -0.10536,-0.09063 -0.26616,-0.21322 -0.38402,-0.30648 -0.36273,-0.2892 -0.79057,-0.44003 -1.2037,-0.45417 -0.53123,-0.01819 -1.0426,0.18951 -1.3773,0.60926 -0.59496,0.74622 -0.40447,1.8868 0.42463,2.5478 0.00843,0.0067 0.01737,0.01191 0.025844,0.01846 0.11393,0.09236 0.25345,0.21069 0.35817,0.28801 0.49235,0.36352 0.94211,0.54961 1.4327,0.83819 1.0335,0.63827 1.8904,1.1675 2.57,1.8056 0.26539,0.28289 0.31177,0.78138 0.34709,0.99697 l 0.55387,0.49479 c -2.965,4.4621 -4.3373,9.9738 -3.5263,15.59 l -0.72372,0.21047 c -0.19074,0.24632 -0.46028,0.63389 -0.74219,0.74957 -0.88916,0.28006 -1.8899,0.38291 -3.098,0.50956 -0.5672,0.04716 -1.0566,0.01902 -1.6579,0.13293 -0.13235,0.02507 -0.31675,0.07312 -0.46156,0.10708 -0.00501,0.0011 -0.00974,0.0025 -0.01477,0.0037 -0.0079,0.0018 -0.018266,0.0056 -0.025844,0.0074 -1.0185,0.2461 -1.6729,1.1823 -1.4622,2.1047 0.2107,0.92263 1.2056,1.4837 2.2303,1.2628 0.00738,-0.0017 0.018134,-0.0019 0.025844,-0.0037 0.011565,-0.0026 0.021752,-0.0083 0.033229,-0.01107 0.14284,-0.03136 0.32184,-0.06624 0.44679,-0.0997 0.59119,-0.15829 1.0194,-0.39087 1.5508,-0.59449 1.1434,-0.4101 2.0904,-0.7527 3.0131,-0.88619 0.38534,-0.03018 0.79132,0.23776 0.99328,0.35078 l 0.75326,-0.12924 c 1.7334,5.3742 5.3661,9.718 9.966,12.444 l -0.31386,0.75326 c 0.11313,0.29249 0.2379,0.68824 0.15363,0.9771 -0.33542,0.86979 -0.90994,1.7879 -1.5642,2.8114 -0.31677,0.47286 -0.64096,0.83983 -0.92681,1.381 -0.0684,0.12949 -0.15552,0.3284 -0.22155,0.46525 -0.44414,0.95028 -0.11835,2.0448 0.7348,2.4555 0.85852,0.41331 1.9242,-0.02261 2.3853,-0.97481 7.09e-4,-0.0013 0.0031,-0.0024 0.0037,-0.0037 4.69e-4,-0.0011 -4.68e-4,-0.0026 0,-0.0037 0.06569,-0.135 0.15875,-0.31246 0.21416,-0.4394 0.24484,-0.5609 0.32631,-1.0416 0.49848,-1.5841 0.45723,-1.1485 0.70844,-2.3536 1.3379,-3.1045 0.17236,-0.20562 0.45336,-0.2847 0.74469,-0.36271 l 0.3914,-0.70896 c 4.0101,1.5392 8.4988,1.9523 12.983,0.9342 1.0229,-0.23225 2.0104,-0.53283 2.9651,-0.89358 0.11,0.19512 0.31444,0.5702 0.36925,0.66464 0.29606,0.09632 0.61921,0.14606 0.8825,0.53541 0.47091,0.80454 0.79295,1.7563 1.1853,2.906 0.1722,0.54248 0.25731,1.0232 0.50218,1.5841 0.05582,0.12784 0.14841,0.30779 0.21416,0.4431 0.46021,0.9553 1.5292,1.3927 2.389,0.9785 0.85305,-0.41094 1.1792,-1.5053 0.7348,-2.4555 -0.06604,-0.13684 -0.15683,-0.33577 -0.22524,-0.46525 -0.28588,-0.54114 -0.61002,-0.90445 -0.92681,-1.3773 -0.65427,-1.0235 -1.1969,-1.8737 -1.5324,-2.7435 -0.14027,-0.4486 0.02367,-0.72759 0.13293,-1.0191 -0.06543,-0.075 -0.20546,-0.49864 -0.28801,-0.69788 4.7804,-2.8226 8.3064,-7.3284 9.9623,-12.532 0.2236,0.03514 0.61225,0.1039 0.7385,0.12924 0.2599,-0.17141 0.49886,-0.39507 0.96743,-0.35817 0.92262,0.13344 1.8696,0.47615 3.0131,0.88619 0.5315,0.2036 0.95964,0.43992 1.5508,0.59818 0.12495,0.03345 0.30395,0.06466 0.44679,0.096 0.01149,0.0028 0.02165,0.0084 0.03323,0.01107 0.0077,0.0018 0.01845,0.002 0.02584,0.0037 1.0247,0.2206 2.0198,-0.34014 2.2303,-1.2628 0.21041,-0.92246 -0.4436,-1.8589 -1.4622,-2.1047 -0.14816,-0.0337 -0.35829,-0.09091 -0.50218,-0.11816 -0.60133,-0.11388 -1.0907,-0.0858 -1.6579,-0.13293 -1.2081,-0.12659 -2.2088,-0.22955 -3.098,-0.50956 -0.36254,-0.14064 -0.62046,-0.57204 -0.74589,-0.74957 l -0.69787,-0.20307 c 0.36184,-2.6177 0.26427,-5.3421 -0.36186,-8.0681 -0.63196,-2.7513 -1.7488,-5.2676 -3.2383,-7.4846 0.17902,-0.16274 0.51709,-0.46211 0.61295,-0.55018 0.02802,-0.31007 0.004,-0.63517 0.32494,-0.9785 0.67957,-0.63814 1.5365,-1.1673 2.57,-1.8056 0.49056,-0.28861 0.94404,-0.47464 1.4364,-0.83819 0.11134,-0.08221 0.26337,-0.2124 0.38032,-0.30647 0.82893,-0.66126 1.0198,-1.8017 0.42464,-2.5478 -0.59515,-0.74607 -1.7484,-0.81634 -2.5773,-0.15508 -0.11799,0.09345 -0.27809,0.21535 -0.38402,0.30648 -0.46395,0.39914 -0.75048,0.79337 -1.141,1.2074 -0.85222,0.86563 -1.5566,1.5878 -2.33,2.1084 -0.3351,0.19509 -0.82593,0.12759 -1.0487,0.11447 l -0.65726,0.46894 c -3.7479,-3.93 -8.8507,-6.4427 -14.345,-6.9308 -0.01537,-0.23026 -0.0355,-0.64647 -0.04061,-0.77173 -0.22494,-0.21524 -0.49667,-0.39901 -0.56495,-0.86404 -0.07517,-0.92919 0.05034,-1.9289 0.1957,-3.1349 0.08025,-0.56347 0.21356,-1.0316 0.23632,-1.6432 0.0052,-0.13903 -0.0032,-0.34077 -0.0037,-0.4911 -1.11e-4,-1.0604 -0.77371,-1.9202 -1.7281,-1.9201 z m -2.1638,13.404 -0.51325,9.065 -0.03693,0.01846 c -0.03442,0.81097 -0.70186,1.4585 -1.5213,1.4585 -0.33567,0 -0.6455,-0.1078 -0.89727,-0.29171 l -0.01477,0.0074 -7.433,-5.2692 c 2.2844,-2.2463 5.2064,-3.9064 8.5739,-4.671 0.61514,-0.13967 1.23,-0.2433 1.8425,-0.31755 z m 4.3313,0 c 3.9316,0.48354 7.5675,2.2638 10.354,4.9922 l -7.3849,5.2359 -0.02584,-0.01107 c -0.65548,0.47874 -1.579,0.35996 -2.0899,-0.28063 -0.2093,-0.26243 -0.31912,-0.57099 -0.33232,-0.8825 l -0.0074,-0.0037 z m -17.443,8.3745 6.7868,6.0704 -0.0074,0.03693 c 0.61258,0.53254 0.70292,1.4567 0.19201,2.0973 -0.20928,0.26244 -0.48942,0.43846 -0.79019,0.52064 l -0.0074,0.02954 -8.6995,2.5109 c -0.44274,-4.0487 0.51149,-7.9844 2.5257,-11.266 z m 30.504,0.0037 c 1.0084,1.6344 1.772,3.46 2.2266,5.439 0.44913,1.9553 0.56185,3.9072 0.37663,5.7935 l -8.7438,-2.5183 -0.0074,-0.03693 c -0.78298,-0.21399 -1.2642,-1.0105 -1.0819,-1.8093 0.07468,-0.32726 0.2484,-0.6041 0.48372,-0.80865 l -0.0037,-0.01847 6.7498,-6.0409 z m -16.62,6.5357 h 2.7804 l 1.7281,2.1601 -0.62034,2.6955 -2.4961,1.2001 -2.5035,-1.2037 -0.62034,-2.6955 z m 8.9136,7.3923 c 0.11816,-0.006 0.2358,0.0047 0.35078,0.02584 l 0.01477,-0.01846 8.9986,1.5213 c -1.3169,3.6999 -3.837,6.9052 -7.204,9.0503 l -3.4931,-8.4373 0.01107,-0.01477 c -0.32087,-0.74558 2.35e-4,-1.6199 0.7385,-1.9755 0.18901,-0.09103 0.38649,-0.14144 0.58341,-0.15139 z m -15.113,0.03693 c 0.68671,0.0096 1.3027,0.48626 1.4622,1.1853 0.0747,0.32725 0.03834,0.6515 -0.08493,0.93789 l 0.02584,0.03323 -3.4562,8.3524 c -3.2313,-2.0735 -5.8051,-5.1782 -7.1819,-8.9875 l 8.921,-1.5139 0.01477,0.01846 c 0.09979,-0.01836 0.20099,-0.02722 0.29909,-0.02584 z m 7.5363,3.6592 c 0.23921,-0.0088 0.48193,0.04029 0.71265,0.15139 0.30243,0.14564 0.53606,0.37494 0.68311,0.64988 h 0.03323 l 4.3977,7.9462 c -0.57074,0.19133 -1.1575,0.35484 -1.7576,0.4911 -3.3633,0.76365 -6.716,0.53227 -9.7518,-0.50218 l 4.3867,-7.9314 h 0.0074 c 0.26322,-0.49206 0.76242,-0.78563 1.2887,-0.80496 z"
         color="#000000"
         fill="#ffffff"
         stroke="#ffffff"
         stroke-width="0.02954"
         style="text-indent:0;text-decoration:none;text-decoration-line:none;text-transform:none"
         id="path361" />
    </g>
  </g>
</svg>
