<?xml version="1.0" encoding="UTF-8"?>
<svg width="60" height="40" version="1.1" viewBox="0 0 60 40" xmlns="http://www.w3.org/2000/svg" xmlns:cc="http://creativecommons.org/ns#" xmlns:dc="http://purl.org/dc/elements/1.1/" xmlns:rdf="http://www.w3.org/1999/02/22-rdf-syntax-ns#" xmlns:xlink="http://www.w3.org/1999/xlink">
 <metadata>
  <rdf:RDF>
   <cc:Work rdf:about="">
    <dc:format>image/svg+xml</dc:format>
    <dc:type rdf:resource="http://purl.org/dc/dcmitype/StillImage"/>
   </cc:Work>
  </rdf:RDF>
 </metadata>
 <mask id="a" fill="#ffffff">
  <path d="m0 0h313.3v159.86h-313.3z" fill="#fff" fill-rule="evenodd"/>
 </mask>
 <mask id="b" fill="#ffffff">
  <path d="m0 0h313.3v159.86h-313.3z" fill="#fff" fill-rule="evenodd"/>
 </mask>
 <g transform="matrix(.49527 0 0 .49527 5.0758 3.2126)">
  <g fill="#0ca09d">
   <polygon class="st0" transform="matrix(1.6152 0 0 1.6152 -24.584 -106.93)" points="9 99.9 30.6 112.3 52.2 99.9 52.2 75 30.6 62.5 9 75"/>
   <path class="st0" d="m69.72 49.413 25.308 14.568 25.185-14.568v-29.012l-25.185-14.568-25.308 14.568zm25.308 17.901-28.148-16.173v-32.468l28.024-16.173 28.024 16.173v32.468z" stroke-width="1.2345"/>
   <path class="st0" d="m100.58 104.21 25.308 14.568 25.185-14.568v-29.012l-25.185-14.568-25.308 14.568zm25.308 17.901-28.148-16.173v-32.468l28.024-16.173 28.024 16.173v32.468z" stroke-width="1.2345"/>
   <polygon class="st0" transform="matrix(1.2345 0 0 1.2345 26.14 -17.499)" points="30.6 112.3 52.2 99.9 52.2 75 30.6 62.5 9 75 9 99.9"/>
  </g>
  <g fill="#fdfdfd" stroke="#fff" stroke-linecap="round" stroke-linejoin="round" stroke-width="3.8486" aria-label="&gt;_">
   <path d="m25.325 12.642 12.845 31.703-19.402-15.283zm22.819 39.006-19.758-47.55c-0.56402-1.3713-1.6919-2.097-3.0607-2.097-1.3714 0-2.5813 0.72564-3.1453 2.097l-21.686 52.156h7.4184l8.5846-21.504 25.618 20.697c1.0303 0.83313 1.7738 1.2099 2.7402 1.2099 1.9354 0 3.627-1.4509 3.627-3.5452 0-0.34083-0.12039-0.88179-0.3383-1.4636z" fill="#fff" stroke-width="1.4975"/>
  </g>
 </g>
</svg>
