<?xml version="1.0" encoding="UTF-8" standalone="no"?>
<svg
   xmlns:dc="http://purl.org/dc/elements/1.1/"
   xmlns:cc="http://creativecommons.org/ns#"
   xmlns:rdf="http://www.w3.org/1999/02/22-rdf-syntax-ns#"
   xmlns:svg="http://www.w3.org/2000/svg"
   xmlns="http://www.w3.org/2000/svg"
   xmlns:sodipodi="http://sodipodi.sourceforge.net/DTD/sodipodi-0.dtd"
   xmlns:inkscape="http://www.inkscape.org/namespaces/inkscape"
   width="40"
   height="40"
   version="1.1"
   viewBox="0 0 40 40"
   id="svg463"
   sodipodi:docname="runner-php.svg"
   inkscape:version="1.0.2 (e86c870879, 2021-01-15)">
  <sodipodi:namedview
     pagecolor="#ffffff"
     bordercolor="#666666"
     borderopacity="1"
     objecttolerance="10"
     gridtolerance="10"
     guidetolerance="10"
     inkscape:pageopacity="0"
     inkscape:pageshadow="2"
     inkscape:window-width="1920"
     inkscape:window-height="1016"
     id="namedview465"
     showgrid="false"
     inkscape:zoom="3.4957592"
     inkscape:cx="1.2133952"
     inkscape:cy="27.340941"
     inkscape:window-x="0"
     inkscape:window-y="0"
     inkscape:window-maximized="1"
     inkscape:current-layer="g425" />
  <metadata
     id="metadata373">
    <rdf:RDF>
      <cc:Work
         rdf:about="">
        <dc:format>image/svg+xml</dc:format>
        <dc:type
           rdf:resource="http://purl.org/dc/dcmitype/StillImage" />
        <dc:title></dc:title>
      </cc:Work>
    </rdf:RDF>
  </metadata>
  <defs
     id="defs409">
    <clipPath
       id="clip134-3">
      <rect
         width="167"
         height="205"
         id="rect375"
         x="0"
         y="0" />
    </clipPath>
    <clipPath
       id="clip135-1">
      <path
         d="M 0,204.8 H 166.4 V 0 H 0 Z"
         id="path378" />
    </clipPath>
    <clipPath
       id="clip136-7">
      <path
         d="M 0,204.8 H 166.4 V 0 H 0 Z"
         id="path381" />
    </clipPath>
    <clipPath
       id="clip137-5">
      <path
         d="M 0,204.8 H 167 V -0.2 H 0 Z"
         id="path384" />
    </clipPath>
    <clipPath
       id="clip138-9">
      <rect
         width="167"
         height="205"
         id="rect387"
         x="0"
         y="0" />
    </clipPath>
    <clipPath
       id="clip139-6">
      <rect
         width="167"
         height="205"
         id="rect390"
         x="0"
         y="0" />
    </clipPath>
    <clipPath
       id="clip140-2">
      <path
         d="M 0,204.8 H 166.4 V 0 H 0 Z"
         id="path393" />
    </clipPath>
    <clipPath
       id="clip141-17">
      <path
         d="M 0,204.8 H 166.4 V 0 H 0 Z"
         id="path396" />
    </clipPath>
    <clipPath
       id="clip142-8">
      <path
         d="M 0,204.8 H 167 V -0.2 H 0 Z"
         id="path399" />
    </clipPath>
    <clipPath
       id="clip143-5">
      <path
         d="M 0,204.8 H 167 V -0.2 H 0 Z"
         id="path402" />
    </clipPath>
    <clipPath
       id="clipPath407">
      <path
         d="M 0,204.8 H 167 V -0.2 H 0 Z"
         id="path405" />
    </clipPath>
  </defs>
  <mask
     id="a"
     fill="#ffffff">
    <path
       d="M 0,0 H 313.3 V 159.86 H 0 Z"
       fill="#ffffff"
       fill-rule="evenodd"
       id="path411" />
  </mask>
  <mask
     id="b"
     fill="#ffffff">
    <path
       d="M 0,0 H 313.3 V 159.86 H 0 Z"
       fill="#ffffff"
       fill-rule="evenodd"
       id="path414" />
  </mask>
  <g
     transform="matrix(0.49527,0,0,0.49527,5.0758,3.2126)"
     id="g461">
    <g
       fill="#0ca09d"
       id="g425">
      <polygon
         class="st0"
         transform="matrix(1.6152,0,0,1.6152,-20.545799,-106.93)"
         points="52.2,99.9 52.2,75 30.6,62.5 9,75 9,99.9 30.6,112.3 "
         id="polygon417" />
    </g>
    <g
       fill="#fdfdfd"
       stroke="#ffffff"
       stroke-linecap="round"
       stroke-linejoin="round"
       stroke-width="3.8486"
       aria-label="&gt;_"
       id="g459"
       transform="translate(4.0382014)">
      <g
         transform="matrix(0.66255,0,0,0.66255,89.772,9.0161)"
         id="g457">
        <g
           transform="matrix(0.24729,0,0,0.24729,-288.01,14.96)"
           id="g455">
          <g
             transform="matrix(1.3001,0,0,1.3001,-148.19,18.617)"
             id="g453">
            <g
               transform="translate(623.37,-38.632)"
               clip-path="url(#clip134-3)"
               id="g445">
              <g
                 clip-path="url(#clip135-1)"
                 id="g443">
                <g
                   clip-path="url(#clip136-7)"
                   id="g441">
                  <g
                     clip-path="url(#clip137-5)"
                     id="g439">
                    <g
                       clip-path="url(#clip138-9)"
                       id="g437">
                      <g
                         clip-path="url(#clip139-6)"
                         id="g435">
                        <g
                           clip-path="url(#clip140-2)"
                           id="g433">
                          <g
                             clip-path="url(#clip141-17)"
                             id="g431">
                            <g
                               clip-path="url(#clip142-8)"
                               id="g429">
                              <g
                                 clip-path="url(#clip143-5)"
                                 id="g427" />
                            </g>
                          </g>
                        </g>
                      </g>
                    </g>
                  </g>
                </g>
              </g>
            </g>
            <g
               transform="matrix(5.1718,0,0,5.1718,253.17,-98.171)"
               id="g451">
              <g
                 transform="matrix(0.27072,0,0,0.27072,-20.848,13.255)"
                 fill-rule="evenodd"
                 id="g449">
                <path
                   d="m 306.76,106.08 14.028,-71.014 h 32.437 c 14.027,0.877 21.041,7.89 21.041,20.165 0,21.041 -16.657,33.315 -31.562,32.438 h -15.779 l -3.507,18.411 z m 23.671,-31.561 4.384,-26.302 h 11.397 c 6.137,0 10.52,2.63 10.52,7.89 -0.876,14.905 -7.89,17.535 -15.78,18.412 h -10.52 z m 40.576,13.15 14.027,-71.013 h 16.658 l -3.507,18.41 h 15.78 c 14.028,0.877 19.288,7.89 17.535,16.658 l -6.137,35.945 h -17.534 l 6.137,-32.438 c 0.876,-4.384 0.876,-7.014 -5.26,-7.014 h -13.151 l -7.89,39.452 z m 53.233,18.411 14.027,-71.014 h 32.438 c 14.028,0.877 21.042,7.89 21.042,20.165 0,21.041 -16.658,33.315 -31.562,32.438 h -15.781 l -3.507,18.411 z m 23.67,-31.561 4.384,-26.302 h 11.398 c 6.137,0 10.52,2.63 10.52,7.89 -0.876,14.905 -7.89,17.535 -15.78,18.412 h -10.521 z"
                   fill="#ffffff"
                   id="path447" />
              </g>
            </g>
          </g>
        </g>
      </g>
    </g>
  </g>
</svg>
