<?xml version="1.0" encoding="UTF-8"?>
<svg width="40" height="40" version="1.1" viewBox="0 0 40 40" xmlns="http://www.w3.org/2000/svg"><mask id="a" fill="#ffffff"><path d="m0 0h313.3v159.86h-313.3z" fill="#fff" fill-rule="evenodd"/></mask><mask id="b" fill="#ffffff"><path d="m0 0h313.3v159.86h-313.3z" fill="#fff" fill-rule="evenodd"/></mask><g transform="translate(4)"><g transform="matrix(.91402 0 0 .91402 3.1456 .32288)" fill="#005e2c"><polygon class="st0" transform="matrix(.26345 0 0 .26345 -.58412 -15.974)" points="30.6 62.5 9 75 9 99.9 30.6 112.3 52.2 99.9 52.2 75"/><path class="st0" d="m21.914 21.885 5.3744 3.1088 5.3744-3.1088v-6.2175l-5.3744-3.1088-5.3744 3.1088zm5.3744 3.7937-5.9804-3.4513v-6.9288l5.9804-3.4513 5.9804 3.4513v6.9288z" stroke-width="1.0506"/><polygon class="st0" transform="matrix(.26345 0 0 .26345 -.58412 -15.974)" points="78.4 144.9 55.7 158 32.9 144.9 32.9 118.6 55.7 105.5 78.4 118.6"/><path class="st0" d="m15.302 10.161 5.4008 3.1088 5.3744-3.1088v-6.1912l-5.3744-3.1088-5.4008 3.1088zm5.4008 3.8201-6.0067-3.4513v-6.9288l5.9804-3.4513 5.9804 3.4513v6.9288z" stroke-width="1.0506"/></g></g><path class="cls-1" d="m1.5122 22.414c0.90559-0.61694 3.2846-0.8804 5.014-0.40852 0.09281-1.7436 0.98193-3.2131 2.6069-4.4954l0.60135-0.40852 0.4009 0.61306c0.78806 1.2106 1.1203 2.8241 1.0028 4.2909-0.09281 0.90374-0.4031 1.9192-1.0028 2.6562 2.2511 1.3217 4.3264 1.0216 13.516 1.0216h14.188c0.04118 2.1004-0.29216 6.14-2.8304 9.4288-0.28062 0.3635-0.58762 0.71477-0.92152 1.0533-2.0638 2.0915-5.182 3.6256-9.8445 3.6294-7.1135 7e-3 -13.208-3.8851-16.915-13.294-1.2197 0.02002-4.4401 0.22122-6.0162-2.8608-0.03848-0.05169-0.4009-0.81704-0.4009-0.81704l0.6008-0.40851z" fill="#1d63ed" stroke-width="0px"/></svg>
