<?xml version="1.0" encoding="UTF-8" standalone="no"?>
<svg
   xmlns:dc="http://purl.org/dc/elements/1.1/"
   xmlns:cc="http://creativecommons.org/ns#"
   xmlns:rdf="http://www.w3.org/1999/02/22-rdf-syntax-ns#"
   xmlns:svg="http://www.w3.org/2000/svg"
   xmlns="http://www.w3.org/2000/svg"
   xmlns:xlink="http://www.w3.org/1999/xlink"
   xmlns:sodipodi="http://sodipodi.sourceforge.net/DTD/sodipodi-0.dtd"
   xmlns:inkscape="http://www.inkscape.org/namespaces/inkscape"
   width="40"
   height="40"
   version="1.1"
   viewBox="0 0 40 40"
   id="svg191"
   sodipodi:docname="sv-apache.svg"
   inkscape:version="1.0.2 (e86c870879, 2021-01-15)">
  <sodipodi:namedview
     pagecolor="#ffffff"
     bordercolor="#666666"
     borderopacity="1"
     objecttolerance="10"
     gridtolerance="10"
     guidetolerance="10"
     inkscape:pageopacity="0"
     inkscape:pageshadow="2"
     inkscape:window-width="1920"
     inkscape:window-height="1016"
     id="namedview193"
     showgrid="false"
     inkscape:zoom="4.94375"
     inkscape:cx="49.912986"
     inkscape:cy="29.582376"
     inkscape:window-x="0"
     inkscape:window-y="0"
     inkscape:window-maximized="1"
     inkscape:current-layer="g85" />
  <metadata
     id="metadata2">
    <rdf:RDF>
      <cc:Work
         rdf:about="">
        <dc:format>image/svg+xml</dc:format>
        <dc:type
           rdf:resource="http://purl.org/dc/dcmitype/StillImage" />
        <dc:title></dc:title>
      </cc:Work>
    </rdf:RDF>
  </metadata>
  <defs
     id="defs69">
    <clipPath
       id="clip134">
      <rect
         width="167"
         height="205"
         id="rect4"
         x="0"
         y="0" />
    </clipPath>
    <clipPath
       id="clip135">
      <path
         d="M 0,204.8 H 166.4 V 0 H 0 Z"
         id="path7" />
    </clipPath>
    <clipPath
       id="clip136">
      <path
         d="M 0,204.8 H 166.4 V 0 H 0 Z"
         id="path10" />
    </clipPath>
    <clipPath
       id="clip137">
      <path
         d="M 0,204.8 H 167 V -0.2 H 0 Z"
         id="path13" />
    </clipPath>
    <clipPath
       id="clip138">
      <rect
         width="167"
         height="205"
         id="rect16"
         x="0"
         y="0" />
    </clipPath>
    <clipPath
       id="clip139">
      <rect
         width="167"
         height="205"
         id="rect19"
         x="0"
         y="0" />
    </clipPath>
    <clipPath
       id="clip140">
      <path
         d="M 0,204.8 H 166.4 V 0 H 0 Z"
         id="path22" />
    </clipPath>
    <clipPath
       id="clip141">
      <path
         d="M 0,204.8 H 166.4 V 0 H 0 Z"
         id="path25" />
    </clipPath>
    <clipPath
       id="clip142">
      <path
         d="M 0,204.8 H 167 V -0.2 H 0 Z"
         id="path28" />
    </clipPath>
    <clipPath
       id="clip143">
      <path
         d="M 0,204.8 H 167 V -0.2 H 0 Z"
         id="path31" />
    </clipPath>
    <clipPath
       id="clip144">
      <path
         d="M 0,204.8 H 167 V -0.2 H 0 Z"
         id="path34" />
    </clipPath>
    <clipPath
       id="clipPath39">
      <path
         d="m 113.37,5.9062 47.73,47.73 -0.56641,0.5625 -47.73,-47.727 z"
         id="path37" />
    </clipPath>
    <linearGradient
       id="SVGID_20_"
       x1="-7802.6001"
       x2="-7726.6001"
       y1="-1102"
       y2="-1102"
       gradientTransform="matrix(0.4226,-0.9063,0.9063,0.4226,4442.7,-6372.7)"
       gradientUnits="userSpaceOnUse">
      <stop
         stop-color="#9E2064"
         offset=".3233"
         id="stop41" />
      <stop
         stop-color="#C92037"
         offset=".6302"
         id="stop43" />
      <stop
         stop-color="#CD2335"
         offset=".7514"
         id="stop45" />
      <stop
         stop-color="#E97826"
         offset="1"
         id="stop47" />
    </linearGradient>
    <linearGradient
       id="linearGradient41254"
       x1="-7802.6001"
       x2="-7726.6001"
       y1="-1102"
       y2="-1102"
       gradientTransform="matrix(0.4226,-0.9063,0.9063,0.4226,4442.7,-6372.7)"
       gradientUnits="userSpaceOnUse"
       xlink:href="#SVGID_20_" />
    <linearGradient
       id="linearGradient42115"
       x1="-7995.7002"
       x2="-7651.8999"
       y1="-1100.6"
       y2="-1100.6"
       gradientTransform="matrix(0.4226,-0.9063,0.9063,0.4226,4442.7,-6372.7)"
       gradientUnits="userSpaceOnUse">
      <stop
         stop-color="#9E2064"
         offset=".3233"
         id="stop51" />
      <stop
         stop-color="#C92037"
         offset=".6302"
         id="stop53" />
      <stop
         stop-color="#CD2335"
         offset=".7514"
         id="stop55" />
      <stop
         stop-color="#E97826"
         offset="1"
         id="stop57" />
    </linearGradient>
    <linearGradient
       id="linearGradient42117"
       x1="-7995.7002"
       x2="-7651.8999"
       y1="-1101.8"
       y2="-1101.8"
       gradientTransform="matrix(0.4226,-0.9063,0.9063,0.4226,4442.7,-6372.7)"
       gradientUnits="userSpaceOnUse">
      <stop
         stop-color="#9E2064"
         offset=".3233"
         id="stop60" />
      <stop
         stop-color="#C92037"
         offset=".6302"
         id="stop62" />
      <stop
         stop-color="#CD2335"
         offset=".7514"
         id="stop64" />
      <stop
         stop-color="#E97826"
         offset="1"
         id="stop66" />
    </linearGradient>
    <linearGradient
       inkscape:collect="always"
       xlink:href="#SVGID_20_"
       id="linearGradient8357"
       gradientUnits="userSpaceOnUse"
       gradientTransform="matrix(0.4226,-0.9063,0.9063,0.4226,4442.7,-6372.7)"
       x1="-7802.6001"
       y1="-1102"
       x2="-7726.6001"
       y2="-1102" />
  </defs>
  <mask
     id="a"
     fill="#ffffff">
    <path
       d="M 0,0 H 313.3 V 159.86 H 0 Z"
       fill="#ffffff"
       fill-rule="evenodd"
       id="path71" />
  </mask>
  <mask
     id="b"
     fill="#ffffff">
    <path
       d="M 0,0 H 313.3 V 159.86 H 0 Z"
       fill="#ffffff"
       fill-rule="evenodd"
       id="path74" />
  </mask>
  <g
     id="g189">
    <g
       transform="matrix(0.49527,0,0,0.49527,5.0758,3.2126)"
       id="g187">
      <g
         fill="#050544"
         id="g85">
        <polygon
           class="st0"
           transform="matrix(1.6152,0,0,1.6152,-20.545799,-106.93)"
           points="52.2,99.9 52.2,75 30.6,62.5 9,75 9,99.9 30.6,112.3 "
           id="polygon77" />
      </g>
      <g
         transform="matrix(0.66255,0,0,0.66255,93.557201,7.1168)"
         id="g185">
        <g
           transform="matrix(0.24729,0,0,0.24729,-288.01,14.96)"
           id="g183">
          <g
             transform="matrix(1.3001,0,0,1.3001,-148.19,18.617)"
             id="g181">
            <g
               transform="translate(623.37,-38.632)"
               clip-path="url(#clip134)"
               id="g107">
              <g
                 clip-path="url(#clip135)"
                 id="g105">
                <g
                   clip-path="url(#clip136)"
                   id="g103">
                  <g
                     clip-path="url(#clip137)"
                     id="g101">
                    <g
                       clip-path="url(#clip138)"
                       id="g99">
                      <g
                         clip-path="url(#clip139)"
                         id="g97">
                        <g
                           clip-path="url(#clip140)"
                           id="g95">
                          <g
                             clip-path="url(#clip141)"
                             id="g93">
                            <g
                               clip-path="url(#clip142)"
                               id="g91">
                              <g
                                 clip-path="url(#clip143)"
                                 id="g89">
                                <g
                                   clip-path="url(#clip144)"
                                   id="g87" />
                              </g>
                            </g>
                          </g>
                        </g>
                      </g>
                    </g>
                  </g>
                </g>
              </g>
            </g>
            <g
               transform="matrix(5.1718,0,0,5.1718,253.17,-98.171)"
               id="g179">
              <g
                 id="g177">
                <g
                   transform="matrix(0.27072,0,0,0.27072,-20.848,13.255)"
                   fill-rule="evenodd"
                   id="g175">
                  <g
                     transform="matrix(0.68206,0,0,0.68206,305.51,-67.449)"
                     id="g163">
                    <path
                       d="m 192,60.2 c -5.4,3.2 -14.2,12.1 -24.9,25.1 l 9.8,18.4 c 6.8,-9.8 13.8,-18.6 20.8,-26.1 0.5,-0.6 0.8,-0.9 0.8,-0.9 -0.3,0.3 -0.5,0.6 -0.8,0.9 -2.3,2.5 -9.2,10.5 -19.5,26.5 10,-0.5 25.4,-2.5 37.9,-4.7 3.7,-20.9 -3.7,-30.5 -3.7,-30.5 0,0 -9.4,-15.2 -20.4,-8.7 z"
                       fill="#ffffff"
                       id="path109" />
                    <g
                       fill="none"
                       id="g119">
                      <path
                         d="m 175.5,165.2 h 0.2 l -1.4,0.2 c -0.1,0 -0.2,0.1 -0.2,0.1 0.4,-0.2 0.9,-0.2 1.4,-0.3 z"
                         id="path111" />
                      <path
                         d="m 165.5,198.2 c -0.8,0.2 -1.6,0.3 -2.4,0.4 0.8,-0.1 1.6,-0.3 2.4,-0.4 z"
                         id="path113" />
                      <path
                         d="m 97.9,272.1 c 0.1,-0.3 0.2,-0.6 0.3,-0.8 2.1,-5.7 4.3,-11.2 6.4,-16.5 2.4,-6 4.7,-11.9 7,-17.5 2.4,-6 4.8,-11.7 7.2,-17.3 2.5,-5.8 4.9,-11.5 7.3,-16.9 2,-4.4 3.9,-8.7 5.8,-12.8 0.6,-1.4 1.3,-2.7 1.9,-4.1 1.2,-2.7 2.5,-5.3 3.7,-7.9 1.1,-2.4 2.2,-4.7 3.3,-6.9 0.4,-0.8 0.7,-1.5 1.1,-2.3 0.1,-0.1 0.1,-0.2 0.2,-0.4 l -1.2,0.1 -0.9,-1.9 c -0.1,0.2 -0.2,0.4 -0.3,0.5 -1.7,3.4 -3.4,6.8 -5.1,10.3 -1,2 -1.9,4 -2.9,6 -2.7,5.6 -5.3,11.2 -7.9,16.9 -2.6,5.7 -5.2,11.5 -7.7,17.3 -2.5,5.7 -4.9,11.4 -7.2,17 -2.4,5.7 -4.7,11.3 -6.9,16.9 -2.3,5.8 -4.6,11.6 -6.8,17.4 l -1.5,3.9 c -1.8,4.6 -3.5,9.2 -5.2,13.7 l 1.5,3 1.3,-0.1 c 0,-0.1 0.1,-0.3 0.1,-0.4 2.2,-5.8 4.3,-11.6 6.5,-17.2 z"
                         id="path115" />
                      <path
                         d="M 162.5,198.7 Z"
                         id="path117" />
                    </g>
                    <g
                       fill="#be202e"
                       id="g129">
                      <path
                         d="m 159.2,214.8 c -1.2,0.2 -2.5,0.4 -3.8,0.7 0.7,-0.1 1.3,-0.2 2,-0.3 0.6,-0.2 1.2,-0.3 1.8,-0.4 z"
                         id="path121" />
                      <path
                         d="m 159.2,214.8 c -1.2,0.2 -2.5,0.4 -3.8,0.7 0.7,-0.1 1.3,-0.2 2,-0.3 0.6,-0.2 1.2,-0.3 1.8,-0.4 z"
                         opacity="0.35"
                         id="path123" />
                      <path
                         d="m 162.5,198.7 c 0.2,0 0.4,0 0.6,-0.1 0.8,-0.1 1.6,-0.3 2.4,-0.4 -1,0.1 -2,0.3 -3,0.5 z"
                         id="path125" />
                      <path
                         d="m 162.5,198.7 c 0.2,0 0.4,0 0.6,-0.1 0.8,-0.1 1.6,-0.3 2.4,-0.4 -1,0.1 -2,0.3 -3,0.5 z"
                         opacity="0.35"
                         id="path127" />
                    </g>
                    <g
                       id="g143">
                      <path
                         d="m 148.1,151.2 c 3,-5.5 6,-11 9,-16.2 3.2,-5.5 6.3,-10.8 9.6,-15.9 l 0.6,-0.9 c 3.2,-5 6.4,-9.9 9.6,-14.5 l -9.8,-18.4 c -0.7,0.9 -1.5,1.8 -2.2,2.7 -2.8,3.5 -5.7,7.3 -8.7,11.3 -3.4,4.5 -6.8,9.3 -10.4,14.4 -3.3,4.7 -6.6,9.5 -9.9,14.6 -2.8,4.3 -5.6,8.7 -8.4,13.3 -0.1,0.2 -0.2,0.3 -0.3,0.5 l 12.7,25.1 c 2.7,-5.5 5.4,-10.8 8.2,-16 z"
                         fill="#ddddfd"
                         id="path131" />
                      <path
                         d="m 90.3,292.4 c -1.7,4.6 -3.4,9.3 -5.1,14.1 0,0.1 0,0.1 -0.1,0.2 -0.2,0.7 -0.5,1.4 -0.7,2 -1.1,3.2 -2.1,6.1 -4.4,12.8 3.7,1.7 6.7,6.2 9.6,11.3 -0.3,-5.3 -2.5,-10.2 -6.6,-14.1 18.4,0.8 34.3,-3.8 42.5,-17.3 0.7,-1.2 1.4,-2.5 2,-3.8 -3.7,4.7 -8.4,6.7 -17.1,6.3 h -0.1 0.1 c 12.8,-5.7 19.2,-11.2 24.9,-20.4 1.3,-2.2 2.7,-4.5 4,-7.1 -11.2,11.5 -24.2,14.8 -37.9,12.3 l -10.3,1.1 c -0.1,0.9 -0.5,1.8 -0.8,2.6 z"
                         fill="#8c8cf6"
                         id="path133" />
                      <path
                         d="m 95.1,269.5 c 2.2,-5.7 4.5,-11.5 6.8,-17.4 2.2,-5.6 4.5,-11.2 6.9,-16.9 2.4,-5.7 4.8,-11.3 7.2,-17 2.5,-5.8 5.1,-11.6 7.7,-17.3 2.6,-5.7 5.2,-11.3 7.9,-16.9 1,-2 1.9,-4 2.9,-6 1.7,-3.5 3.4,-6.9 5.1,-10.3 0.1,-0.2 0.2,-0.4 0.3,-0.5 L 127.2,142 c -0.2,0.3 -0.4,0.7 -0.6,1 -3,4.8 -5.9,9.8 -8.8,14.8 -2.9,5.1 -5.8,10.3 -8.6,15.5 -2.4,4.4 -4.7,8.9 -6.9,13.4 -0.5,0.9 -0.9,1.8 -1.3,2.7 -2.8,5.7 -5.3,11.2 -7.5,16.5 -2.6,6 -4.8,11.7 -6.8,17.1 -1.3,3.6 -2.5,7 -3.6,10.3 -0.9,2.8 -1.7,5.7 -2.5,8.5 -1.9,6.6 -3.5,13.3 -4.9,19.9 L 88.4,287 c 1.7,-4.5 3.4,-9.1 5.2,-13.7 0.5,-1.2 1,-2.5 1.5,-3.8 z"
                         fill="#b8b8fa"
                         id="path135" />
                      <path
                         d="m 75.5,262.7 c -1.6,8.1 -2.7,16.1 -3.3,24.1 0,0.3 0,0.6 -0.1,0.8 -4,-6.4 -14.6,-12.6 -14.6,-12.5 7.6,11.1 13.4,22 14.3,32.8 -4.1,0.8 -9.7,-0.4 -16.1,-2.7 6.7,6.2 11.8,7.9 13.8,8.4 -6.2,0.4 -12.6,4.6 -19.1,9.5 9.5,-3.9 17.2,-5.4 22.7,-4.2 -8.7,24.7 -17.5,51.9 -26.2,80.9 2.7,-0.8 4.3,-2.6 5.2,-5 1.6,-5.2 11.9,-39.6 28.1,-84.8 0.5,-1.3 0.9,-2.6 1.4,-3.9 0.1,-0.4 0.3,-0.7 0.4,-1.1 1.7,-4.7 3.5,-9.6 5.3,-14.5 0.4,-1.1 0.8,-2.2 1.3,-3.4 V 287 L 75.9,261.8 c -0.3,0.4 -0.3,0.7 -0.4,0.9 z"
                         fill="#7171f4"
                         id="path137" />
                      <path
                         d="m 141.9,169.2 c -0.4,0.7 -0.7,1.5 -1.1,2.3 l -3.3,6.9 c -1.2,2.6 -2.4,5.2 -3.7,7.9 -0.6,1.3 -1.3,2.7 -1.9,4.1 -1.9,4.1 -3.8,8.4 -5.8,12.8 -2.4,5.4 -4.8,11 -7.3,16.9 -2.4,5.6 -4.8,11.3 -7.2,17.3 -2.3,5.7 -4.6,11.5 -7,17.5 -2.1,5.4 -4.2,10.9 -6.4,16.5 -0.1,0.3 -0.2,0.5 -0.3,0.8 -2.1,5.6 -4.3,11.4 -6.4,17.3 0,0.1 -0.1,0.3 -0.1,0.4 l 10.3,-1.1 c -0.2,0 -0.4,-0.1 -0.6,-0.1 12.3,-1.5 28.6,-10.7 39.1,-22 4.9,-5.2 9.3,-11.4 13.3,-18.6 3,-5.4 5.9,-11.3 8.6,-17.9 2.4,-5.8 4.6,-12 6.8,-18.7 -2.8,1.5 -6,2.6 -9.6,3.3 -0.6,0.1 -1.3,0.3 -1.9,0.4 -0.6,0.1 -1.3,0.2 -2,0.3 11.4,-4.4 18.7,-12.9 23.9,-23.3 -3,2.1 -7.9,4.7 -13.8,6 -0.8,0.2 -1.6,0.3 -2.4,0.4 -0.2,0 -0.4,0.1 -0.6,0.1 4,-1.7 7.3,-3.5 10.2,-5.7 l 1.8,-1.5 c 0.9,-0.8 1.7,-1.6 2.5,-2.4 0.5,-0.5 1,-1.1 1.5,-1.7 1.1,-1.4 2.2,-2.8 3.2,-4.4 0.3,-0.5 0.6,-1 0.9,-1.5 0.4,-0.7 0.7,-1.5 1.1,-2.2 1.6,-3.2 2.9,-6.1 3.9,-8.6 0.5,-1.3 1,-2.4 1.3,-3.5 0.2,-0.4 0.3,-0.8 0.4,-1.3 0.4,-1.2 0.7,-2.3 1,-3.2 0.4,-1.4 0.6,-2.5 0.8,-3.3 -0.4,0.3 -0.8,0.6 -1.3,0.9 -3.5,2.1 -9.4,3.9 -14.2,4.8 l 9.4,-1 -9.4,1 h -0.2 c -0.5,0.1 -1,0.2 -1.4,0.2 0.1,0 0.2,-0.1 0.2,-0.1 l -32.2,3.5 c 0,0.3 -0.1,0.4 -0.1,0.5 z"
                         fill="#ddddfd"
                         id="path139" />
                      <path
                         d="m 178.1,104 c -2.9,4.4 -6,9.4 -9.4,15.1 -0.2,0.3 -0.4,0.6 -0.5,0.9 -2.9,4.9 -6,10.3 -9.2,16.2 -2.8,5.1 -5.7,10.5 -8.8,16.4 -2.6,5.1 -5.4,10.5 -8.2,16.3 l 32.2,-3.5 c 9.4,-4.3 13.6,-8.2 17.7,-13.9 1.1,-1.6 2.2,-3.2 3.3,-4.9 3.3,-5.2 6.6,-10.9 9.5,-16.5 2.8,-5.5 5.3,-10.9 7.2,-15.8 1.2,-3.1 2.2,-6 2.8,-8.5 0.6,-2.2 1,-4.4 1.4,-6.4 -12.6,2.1 -28,4.1 -38,4.6 z"
                         fill="#f0f0fe"
                         id="path141" />
                    </g>
                    <path
                       d="m 157.3,215.1 c -0.6,0.1 -1.3,0.2 -2,0.3 0.7,0 1.4,-0.1 2,-0.3 z"
                       fill="#be202e"
                       id="path145" />
                    <path
                       d="m 157.3,215.1 c -0.6,0.1 -1.3,0.2 -2,0.3 0.7,0 1.4,-0.1 2,-0.3 z"
                       fill="#be202e"
                       opacity="0.35"
                       id="path147" />
                    <path
                       d="m 157.3,215.1 c -0.6,0.1 -1.3,0.2 -2,0.3 0.7,0 1.4,-0.1 2,-0.3 z"
                       fill="url(#linearGradient42115)"
                       id="path149"
                       style="fill:url(#linearGradient42115)" />
                    <path
                       d="m 162.5,198.7 c 0.2,0 0.4,-0.1 0.6,-0.1 -0.2,0 -0.4,0.1 -0.6,0.1 z"
                       fill="#be202e"
                       id="path151" />
                    <path
                       d="m 162.5,198.7 c 0.2,0 0.4,-0.1 0.6,-0.1 -0.2,0 -0.4,0.1 -0.6,0.1 z"
                       fill="#be202e"
                       opacity="0.35"
                       id="path153" />
                    <path
                       d="m 162.5,198.7 c 0.2,0 0.4,-0.1 0.6,-0.1 -0.2,0 -0.4,0.1 -0.6,0.1 z"
                       fill="url(#linearGradient42117)"
                       id="path155"
                       style="fill:url(#linearGradient42117)" />
                    <polygon
                       points=""
                       fill="#be202e"
                       id="polygon157" />
                    <polygon
                       points=""
                       fill="#be202e"
                       opacity="0.35"
                       id="polygon159" />
                    <polygon
                       points=""
                       fill="url(#linearGradient41254)"
                       id="polygon161"
                       style="fill:url(#linearGradient8357)" />
                  </g>
                  <g
                     transform="matrix(0.68206,0,0,0.68206,-100.71,-67.449)"
                     id="g173">
                    <polygon
                       points=""
                       fill="#be202e"
                       id="polygon165" />
                    <polygon
                       points=""
                       fill="#be202e"
                       opacity="0.35"
                       id="polygon167" />
                    <polygon
                       points=""
                       fill="url(#linearGradient41254)"
                       id="polygon169"
                       style="fill:url(#linearGradient41254)" />
                    <path
                       d="m 656.7,351.97 c -9.5121,27.006 -6.4627,21.831 -15.975,53.538 2.952,-0.87468 4.7014,-2.8427 5.6854,-5.4667 1.7494,-5.6854 -2.8218,4.1601 14.89,-45.259 -1.3075,-0.75489 -2.9954,-1.8846 -4.6011,-2.8116 z"
                       fill="#050544"
                       stroke-width="1.0934"
                       id="path171" />
                  </g>
                </g>
              </g>
            </g>
          </g>
        </g>
      </g>
    </g>
  </g>
</svg>
