<?xml version="1.0" encoding="UTF-8" standalone="no"?>
<svg
   xmlns:dc="http://purl.org/dc/elements/1.1/"
   xmlns:cc="http://creativecommons.org/ns#"
   xmlns:rdf="http://www.w3.org/1999/02/22-rdf-syntax-ns#"
   xmlns:svg="http://www.w3.org/2000/svg"
   xmlns="http://www.w3.org/2000/svg"
   xmlns:xlink="http://www.w3.org/1999/xlink"
   xmlns:sodipodi="http://sodipodi.sourceforge.net/DTD/sodipodi-0.dtd"
   xmlns:inkscape="http://www.inkscape.org/namespaces/inkscape"
   width="40"
   height="40"
   version="1.1"
   viewBox="0 0 40 40"
   id="svg324"
   sodipodi:docname="sv-couchbase.svg"
   inkscape:version="1.0.2 (e86c870879, 2021-01-15)">
  <sodipodi:namedview
     pagecolor="#ffffff"
     bordercolor="#666666"
     borderopacity="1"
     objecttolerance="10"
     gridtolerance="10"
     guidetolerance="10"
     inkscape:pageopacity="0"
     inkscape:pageshadow="2"
     inkscape:window-width="1920"
     inkscape:window-height="1016"
     id="namedview326"
     showgrid="false"
     inkscape:zoom="6.9915183"
     inkscape:cx="47.568357"
     inkscape:cy="26.573406"
     inkscape:window-x="0"
     inkscape:window-y="0"
     inkscape:window-maximized="1"
     inkscape:current-layer="g260" />
  <metadata
     id="metadata195">
    <rdf:RDF>
      <cc:Work
         rdf:about="">
        <dc:format>image/svg+xml</dc:format>
        <dc:type
           rdf:resource="http://purl.org/dc/dcmitype/StillImage" />
        <dc:title></dc:title>
      </cc:Work>
    </rdf:RDF>
  </metadata>
  <defs
     id="defs244">
    <clipPath
       id="clip134">
      <rect
         width="167"
         height="205"
         id="rect197"
         x="0"
         y="0" />
    </clipPath>
    <clipPath
       id="clip135">
      <path
         d="M 0,204.8 H 166.4 V 0 H 0 Z"
         id="path200" />
    </clipPath>
    <clipPath
       id="clip136">
      <path
         d="M 0,204.8 H 166.4 V 0 H 0 Z"
         id="path203" />
    </clipPath>
    <clipPath
       id="clip137">
      <path
         d="M 0,204.8 H 167 V -0.2 H 0 Z"
         id="path206" />
    </clipPath>
    <clipPath
       id="clip138">
      <rect
         width="167"
         height="205"
         id="rect209"
         x="0"
         y="0" />
    </clipPath>
    <clipPath
       id="clip139">
      <rect
         width="167"
         height="205"
         id="rect212"
         x="0"
         y="0" />
    </clipPath>
    <clipPath
       id="clip140">
      <path
         d="M 0,204.8 H 166.4 V 0 H 0 Z"
         id="path215" />
    </clipPath>
    <clipPath
       id="clip141">
      <path
         d="M 0,204.8 H 166.4 V 0 H 0 Z"
         id="path218" />
    </clipPath>
    <clipPath
       id="clip142">
      <path
         d="M 0,204.8 H 167 V -0.2 H 0 Z"
         id="path221" />
    </clipPath>
    <clipPath
       id="clip143">
      <path
         d="M 0,204.8 H 167 V -0.2 H 0 Z"
         id="path224" />
    </clipPath>
    <clipPath
       id="clip144">
      <path
         d="M 0,204.8 H 167 V -0.2 H 0 Z"
         id="path227" />
    </clipPath>
    <clipPath
       id="clipPath232">
      <path
         d="m 113.37,5.9062 47.73,47.73 -0.56641,0.5625 -47.73,-47.727 z"
         id="path230" />
    </clipPath>
    <linearGradient
       id="SVGID_20_"
       x1="-7802.6001"
       x2="-7726.6001"
       y1="-1102"
       y2="-1102"
       gradientTransform="matrix(0.4226,-0.9063,0.9063,0.4226,4442.7,-6372.7)"
       gradientUnits="userSpaceOnUse">
      <stop
         stop-color="#9E2064"
         offset=".3233"
         id="stop234" />
      <stop
         stop-color="#C92037"
         offset=".6302"
         id="stop236" />
      <stop
         stop-color="#CD2335"
         offset=".7514"
         id="stop238" />
      <stop
         stop-color="#E97826"
         offset="1"
         id="stop240" />
    </linearGradient>
    <linearGradient
       id="linearGradient41254"
       x1="-7802.6001"
       x2="-7726.6001"
       y1="-1102"
       y2="-1102"
       gradientTransform="matrix(0.4226,-0.9063,0.9063,0.4226,4442.7,-6372.7)"
       gradientUnits="userSpaceOnUse"
       xlink:href="#SVGID_20_" />
    <linearGradient
       inkscape:collect="always"
       xlink:href="#SVGID_20_"
       id="linearGradient8355"
       gradientUnits="userSpaceOnUse"
       gradientTransform="matrix(0.4226,-0.9063,0.9063,0.4226,4442.7,-6372.7)"
       x1="-7802.6001"
       y1="-1102"
       x2="-7726.6001"
       y2="-1102" />
  </defs>
  <mask
     id="a"
     fill="#ffffff">
    <path
       d="M 0,0 H 313.3 V 159.86 H 0 Z"
       fill="#ffffff"
       fill-rule="evenodd"
       id="path246" />
  </mask>
  <mask
     id="b"
     fill="#ffffff">
    <path
       d="M 0,0 H 313.3 V 159.86 H 0 Z"
       fill="#ffffff"
       fill-rule="evenodd"
       id="path249" />
  </mask>
  <g
     id="g322">
    <g
       transform="matrix(0.49527,0,0,0.49527,5.0758,3.2126)"
       id="g320">
      <g
         fill="#050544"
         id="g260">
        <polygon
           class="st0"
           transform="matrix(1.6152,0,0,1.6152,-20.545799,-106.93)"
           points="52.2,99.9 52.2,75 30.6,62.5 9,75 9,99.9 30.6,112.3 "
           id="polygon252" />
      </g>
      <g
         transform="matrix(0.66255,0,0,0.66255,93.557201,7.1168)"
         id="g318">
        <g
           transform="matrix(0.24729,0,0,0.24729,-288.01,14.96)"
           id="g316">
          <g
             transform="matrix(1.3001,0,0,1.3001,-148.19,18.617)"
             id="g314">
            <g
               transform="translate(623.37,-38.632)"
               clip-path="url(#clip134)"
               id="g282">
              <g
                 clip-path="url(#clip135)"
                 id="g280">
                <g
                   clip-path="url(#clip136)"
                   id="g278">
                  <g
                     clip-path="url(#clip137)"
                     id="g276">
                    <g
                       clip-path="url(#clip138)"
                       id="g274">
                      <g
                         clip-path="url(#clip139)"
                         id="g272">
                        <g
                           clip-path="url(#clip140)"
                           id="g270">
                          <g
                             clip-path="url(#clip141)"
                             id="g268">
                            <g
                               clip-path="url(#clip142)"
                               id="g266">
                              <g
                                 clip-path="url(#clip143)"
                                 id="g264">
                                <g
                                   clip-path="url(#clip144)"
                                   id="g262" />
                              </g>
                            </g>
                          </g>
                        </g>
                      </g>
                    </g>
                  </g>
                </g>
              </g>
            </g>
            <g
               transform="matrix(5.1718,0,0,5.1718,253.17,-98.171)"
               id="g312">
              <g
                 id="g310">
                <g
                   transform="matrix(0.27072,0,0,0.27072,-20.848,13.255)"
                   fill-rule="evenodd"
                   id="g308">
                  <g
                     transform="matrix(0.68206,0,0,0.68206,305.51,-67.449)"
                     id="g290">
                    <polygon
                       points=""
                       fill="#be202e"
                       id="polygon284" />
                    <polygon
                       points=""
                       fill="#be202e"
                       opacity="0.35"
                       id="polygon286" />
                    <polygon
                       points=""
                       fill="url(#linearGradient41254)"
                       id="polygon288"
                       style="fill:url(#linearGradient8355)" />
                  </g>
                  <g
                     transform="matrix(0.68206,0,0,0.68206,-100.71,-67.449)"
                     id="g306">
                    <polygon
                       points=""
                       fill="#be202e"
                       id="polygon292" />
                    <polygon
                       points=""
                       fill="#be202e"
                       opacity="0.35"
                       id="polygon294" />
                    <polygon
                       points=""
                       fill="url(#linearGradient41254)"
                       id="polygon296"
                       style="fill:url(#linearGradient41254)" />
                    <g
                       transform="matrix(0.59918,0,0,0.59918,190.74,76.987)"
                       fill="none"
                       fill-rule="nonzero"
                       stroke="#ffffff"
                       stroke-linecap="round"
                       stroke-linejoin="round"
                       stroke-width="12.465"
                       id="g304">
                      <g
                         transform="matrix(1.4375,0,0,1.4375,2094.9,1546.9)"
                         stroke="none"
                         id="g302">
                        <path
                           d="m -831.14,-1027 c -133.93,0 -177.95,-39.276 -177.95,95.306 0,134.58 49.508,117.29 183.44,117.29 133.932,0 190.31,13.17 190.31,-121.41 0,-134.58 -61.877,-91.184 -195.81,-91.184 z"
                           fill="#fdfdff"
                           id="path298" />
                        <path
                           d="m -651.17,-880.84 c 0,15.518 -9.0662,29.498 -26.623,32.549 -30.478,5.3471 -94.448,8.6129 -148.08,8.6129 -53.632,0 -117.6,-3.2692 -148.1,-8.6129 -17.534,-3.0508 -26.6,-17.034 -26.6,-32.549 v -101.42 c -0.023,-15.538 11.932,-30.041 26.6,-32.572 9.0662,-1.5783 30.005,-3.0739 46.436,-3.0309 6.2041,0.023 11.2,4.8905 11.22,12.316 0,0.023 -0.0232,70.902 -0.0232,70.902 31.51,-0.10919 58.864,-1.8827 90.464,-1.8827 31.576,0 58.95,1.7735 90.441,1.8827 v -70.902 c 0.0232,-7.425 5.0195,-12.292 11.2,-12.316 16.435,-0.043 37.39,1.4493 46.436,3.0309 14.688,2.5313 26.623,17.034 26.623,32.572 v 101.42 z m -180.56,-152.94 c -142.74,0 -189.65,-41.858 -189.65,101.57 0,143.43 52.762,125 195.5,125 142.738,0 196.2,17.601 196.2,-125.83 0,-143.43 -59.323,-100.74 -202.06,-100.74 z"
                           fill="#050544"
                           id="path300" />
                      </g>
                    </g>
                  </g>
                </g>
              </g>
            </g>
          </g>
        </g>
      </g>
    </g>
  </g>
</svg>
