<?xml version="1.0" encoding="UTF-8" standalone="no"?>
<svg
   xmlns:dc="http://purl.org/dc/elements/1.1/"
   xmlns:cc="http://creativecommons.org/ns#"
   xmlns:rdf="http://www.w3.org/1999/02/22-rdf-syntax-ns#"
   xmlns:svg="http://www.w3.org/2000/svg"
   xmlns="http://www.w3.org/2000/svg"
   xmlns:sodipodi="http://sodipodi.sourceforge.net/DTD/sodipodi-0.dtd"
   xmlns:inkscape="http://www.inkscape.org/namespaces/inkscape"
   width="40"
   height="40"
   version="1.1"
   viewBox="0 0 40 40"
   id="svg554"
   sodipodi:docname="sv-memcache.svg"
   inkscape:version="1.0.2 (e86c870879, 2021-01-15)">
  <sodipodi:namedview
     pagecolor="#ffffff"
     bordercolor="#666666"
     borderopacity="1"
     objecttolerance="10"
     gridtolerance="10"
     guidetolerance="10"
     inkscape:pageopacity="0"
     inkscape:pageshadow="2"
     inkscape:window-width="1920"
     inkscape:window-height="1016"
     id="namedview556"
     showgrid="false"
     inkscape:zoom="4.94375"
     inkscape:cx="28.11077"
     inkscape:cy="25.909176"
     inkscape:window-x="0"
     inkscape:window-y="0"
     inkscape:window-maximized="1"
     inkscape:current-layer="g512" />
  <metadata
     id="metadata457">
    <rdf:RDF>
      <cc:Work
         rdf:about="">
        <dc:format>image/svg+xml</dc:format>
        <dc:type
           rdf:resource="http://purl.org/dc/dcmitype/StillImage" />
        <dc:title></dc:title>
      </cc:Work>
    </rdf:RDF>
  </metadata>
  <defs
     id="defs496">
    <clipPath
       id="clip134">
      <rect
         width="167"
         height="205"
         id="rect459"
         x="0"
         y="0" />
    </clipPath>
    <clipPath
       id="clip135">
      <path
         d="M 0,204.8 H 166.4 V 0 H 0 Z"
         id="path462" />
    </clipPath>
    <clipPath
       id="clip136">
      <path
         d="M 0,204.8 H 166.4 V 0 H 0 Z"
         id="path465" />
    </clipPath>
    <clipPath
       id="clip137">
      <path
         d="M 0,204.8 H 167 V -0.2 H 0 Z"
         id="path468" />
    </clipPath>
    <clipPath
       id="clip138">
      <rect
         width="167"
         height="205"
         id="rect471"
         x="0"
         y="0" />
    </clipPath>
    <clipPath
       id="clip139">
      <rect
         width="167"
         height="205"
         id="rect474"
         x="0"
         y="0" />
    </clipPath>
    <clipPath
       id="clip140">
      <path
         d="M 0,204.8 H 166.4 V 0 H 0 Z"
         id="path477" />
    </clipPath>
    <clipPath
       id="clip141">
      <path
         d="M 0,204.8 H 166.4 V 0 H 0 Z"
         id="path480" />
    </clipPath>
    <clipPath
       id="clip142">
      <path
         d="M 0,204.8 H 167 V -0.2 H 0 Z"
         id="path483" />
    </clipPath>
    <clipPath
       id="clip143">
      <path
         d="M 0,204.8 H 167 V -0.2 H 0 Z"
         id="path486" />
    </clipPath>
    <clipPath
       id="clip144">
      <path
         d="M 0,204.8 H 167 V -0.2 H 0 Z"
         id="path489" />
    </clipPath>
    <clipPath
       id="clipPath494">
      <path
         d="m 113.37,5.9062 47.73,47.73 -0.56641,0.5625 -47.73,-47.727 z"
         id="path492" />
    </clipPath>
  </defs>
  <mask
     id="a"
     fill="#ffffff">
    <path
       d="M 0,0 H 313.3 V 159.86 H 0 Z"
       fill="#ffffff"
       fill-rule="evenodd"
       id="path498" />
  </mask>
  <mask
     id="b"
     fill="#ffffff">
    <path
       d="M 0,0 H 313.3 V 159.86 H 0 Z"
       fill="#ffffff"
       fill-rule="evenodd"
       id="path501" />
  </mask>
  <g
     id="g552">
    <g
       transform="matrix(0.49527,0,0,0.49527,5.0758,3.2126)"
       id="g550">
      <g
         fill="#050544"
         id="g512">
        <polygon
           class="st0"
           transform="matrix(1.6152,0,0,1.6152,-20.545799,-106.93)"
           points="52.2,99.9 52.2,75 30.6,62.5 9,75 9,99.9 30.6,112.3 "
           id="polygon504" />
      </g>
      <g
         transform="matrix(0.66255,0,0,0.66255,93.557201,7.1168)"
         id="g548">
        <g
           transform="matrix(0.24729,0,0,0.24729,-288.01,14.96)"
           id="g546">
          <g
             transform="matrix(1.3001,0,0,1.3001,-148.19,18.617)"
             id="g544">
            <g
               transform="translate(623.37,-38.632)"
               clip-path="url(#clip134)"
               id="g534">
              <g
                 clip-path="url(#clip135)"
                 id="g532">
                <g
                   clip-path="url(#clip136)"
                   id="g530">
                  <g
                     clip-path="url(#clip137)"
                     id="g528">
                    <g
                       clip-path="url(#clip138)"
                       id="g526">
                      <g
                         clip-path="url(#clip139)"
                         id="g524">
                        <g
                           clip-path="url(#clip140)"
                           id="g522">
                          <g
                             clip-path="url(#clip141)"
                             id="g520">
                            <g
                               clip-path="url(#clip142)"
                               id="g518">
                              <g
                                 clip-path="url(#clip143)"
                                 id="g516">
                                <g
                                   clip-path="url(#clip144)"
                                   id="g514" />
                              </g>
                            </g>
                          </g>
                        </g>
                      </g>
                    </g>
                  </g>
                </g>
              </g>
            </g>
            <g
               fill="#ffffff"
               id="g542">
              <path
                 d="M 599.7,169.51 C 588.52,67.24 596.0802,-4.44 605.2901,-38.31 h 54.915 c 21.321,16.911 44.392,62.149 44.392,62.149 0,0 24.293,-44.524 47.023,-62.807 h 55.244 c 4.6204,16.242 15.9,92.073 7.8919,209.47 H 760.17 c 7.5385,-71.095 21.187,-149.29 8.5496,-149.29 -9.3598,0 -18.268,26.302 -46.365,103.91 h -33.541 c -25.649,-67.082 -36.829,-105.55 -44.721,-105.55 -10.851,0 -5.9189,42.748 7.5631,149.62 -22.361,0 -51.955,0.32884 -51.955,0.32884 z"
                 id="path536" />
              <circle
                 cx="682.40002"
                 cy="158.16"
                 r="13.975"
                 id="circle538" />
              <circle
                 cx="730.02002"
                 cy="158.16"
                 r="13.975"
                 id="circle540" />
            </g>
          </g>
        </g>
      </g>
    </g>
  </g>
</svg>
