<?xml version="1.0" encoding="UTF-8" standalone="no"?>
<svg
   xmlns:dc="http://purl.org/dc/elements/1.1/"
   xmlns:cc="http://creativecommons.org/ns#"
   xmlns:rdf="http://www.w3.org/1999/02/22-rdf-syntax-ns#"
   xmlns:svg="http://www.w3.org/2000/svg"
   xmlns="http://www.w3.org/2000/svg"
   xmlns:sodipodi="http://sodipodi.sourceforge.net/DTD/sodipodi-0.dtd"
   xmlns:inkscape="http://www.inkscape.org/namespaces/inkscape"
   width="40"
   height="40"
   version="1.1"
   viewBox="0 0 40 40"
   id="svg760"
   sodipodi:docname="sv-nodejs.svg"
   inkscape:version="1.0.2 (e86c870879, 2021-01-15)">
  <sodipodi:namedview
     pagecolor="#ffffff"
     bordercolor="#666666"
     borderopacity="1"
     objecttolerance="10"
     gridtolerance="10"
     guidetolerance="10"
     inkscape:pageopacity="0"
     inkscape:pageshadow="2"
     inkscape:window-width="1920"
     inkscape:window-height="1016"
     id="namedview762"
     showgrid="false"
     inkscape:zoom="4.94375"
     inkscape:cx="52.460527"
     inkscape:cy="24.072577"
     inkscape:window-x="0"
     inkscape:window-y="0"
     inkscape:window-maximized="1"
     inkscape:current-layer="g716" />
  <metadata
     id="metadata661">
    <rdf:RDF>
      <cc:Work
         rdf:about="">
        <dc:format>image/svg+xml</dc:format>
        <dc:type
           rdf:resource="http://purl.org/dc/dcmitype/StillImage" />
        <dc:title></dc:title>
      </cc:Work>
    </rdf:RDF>
  </metadata>
  <defs
     id="defs700">
    <clipPath
       id="clip134">
      <rect
         width="167"
         height="205"
         id="rect663"
         x="0"
         y="0" />
    </clipPath>
    <clipPath
       id="clip135">
      <path
         d="M 0,204.8 H 166.4 V 0 H 0 Z"
         id="path666" />
    </clipPath>
    <clipPath
       id="clip136">
      <path
         d="M 0,204.8 H 166.4 V 0 H 0 Z"
         id="path669" />
    </clipPath>
    <clipPath
       id="clip137">
      <path
         d="M 0,204.8 H 167 V -0.2 H 0 Z"
         id="path672" />
    </clipPath>
    <clipPath
       id="clip138">
      <rect
         width="167"
         height="205"
         id="rect675"
         x="0"
         y="0" />
    </clipPath>
    <clipPath
       id="clip139">
      <rect
         width="167"
         height="205"
         id="rect678"
         x="0"
         y="0" />
    </clipPath>
    <clipPath
       id="clip140">
      <path
         d="M 0,204.8 H 166.4 V 0 H 0 Z"
         id="path681" />
    </clipPath>
    <clipPath
       id="clip141">
      <path
         d="M 0,204.8 H 166.4 V 0 H 0 Z"
         id="path684" />
    </clipPath>
    <clipPath
       id="clip142">
      <path
         d="M 0,204.8 H 167 V -0.2 H 0 Z"
         id="path687" />
    </clipPath>
    <clipPath
       id="clip143">
      <path
         d="M 0,204.8 H 167 V -0.2 H 0 Z"
         id="path690" />
    </clipPath>
    <clipPath
       id="clip144">
      <path
         d="M 0,204.8 H 167 V -0.2 H 0 Z"
         id="path693" />
    </clipPath>
    <clipPath
       id="clipPath698">
      <path
         d="m 113.37,5.9062 47.73,47.73 -0.56641,0.5625 -47.73,-47.727 z"
         id="path696" />
    </clipPath>
  </defs>
  <mask
     id="a"
     fill="#ffffff">
    <path
       d="M 0,0 H 313.3 V 159.86 H 0 Z"
       fill="#ffffff"
       fill-rule="evenodd"
       id="path702" />
  </mask>
  <mask
     id="b"
     fill="#ffffff">
    <path
       d="M 0,0 H 313.3 V 159.86 H 0 Z"
       fill="#ffffff"
       fill-rule="evenodd"
       id="path705" />
  </mask>
  <g
     id="g758">
    <g
       transform="matrix(0.49527,0,0,0.49527,5.0758,3.2126)"
       id="g756">
      <g
         fill="#050544"
         id="g716">
        <polygon
           class="st0"
           transform="matrix(1.6152,0,0,1.6152,-20.545799,-106.93)"
           points="52.2,99.9 52.2,75 30.6,62.5 9,75 9,99.9 30.6,112.3 "
           id="polygon708" />
      </g>
      <g
         transform="matrix(0.66255,0,0,0.66255,93.557201,7.1168)"
         id="g754">
        <g
           transform="matrix(0.24729,0,0,0.24729,-288.01,14.96)"
           id="g752">
          <g
             transform="matrix(1.3001,0,0,1.3001,-148.19,18.617)"
             id="g750">
            <g
               transform="translate(623.37,-38.632)"
               clip-path="url(#clip134)"
               id="g738">
              <g
                 clip-path="url(#clip135)"
                 id="g736">
                <g
                   clip-path="url(#clip136)"
                   id="g734">
                  <g
                     clip-path="url(#clip137)"
                     id="g732">
                    <g
                       clip-path="url(#clip138)"
                       id="g730">
                      <g
                         clip-path="url(#clip139)"
                         id="g728">
                        <g
                           clip-path="url(#clip140)"
                           id="g726">
                          <g
                             clip-path="url(#clip141)"
                             id="g724">
                            <g
                               clip-path="url(#clip142)"
                               id="g722">
                              <g
                                 clip-path="url(#clip143)"
                                 id="g720">
                                <g
                                   clip-path="url(#clip144)"
                                   id="g718" />
                              </g>
                            </g>
                          </g>
                        </g>
                      </g>
                    </g>
                  </g>
                </g>
              </g>
            </g>
            <g
               transform="matrix(5.1718,0,0,5.1718,253.17,-98.171)"
               id="g748">
              <g
                 id="g746">
                <g
                   transform="matrix(0.56866,0,0,0.56866,-180.1,-23.847)"
                   fill="#ffffff"
                   id="g744">
                  <path
                     d="m 471.05,51.611 c -1.244,0 -2.454,0.257 -3.525,0.863 l -33.888,19.57 c -2.193,1.264 -3.526,3.65 -3.526,6.189 v 39.069 c 0,2.537 1.333,4.92 3.526,6.187 l 8.85,5.109 c 4.3,2.119 5.885,2.086 7.842,2.086 6.366,0 10.001,-3.863 10.001,-10.576 V 81.542 c 0,-0.545 -0.472,-0.935 -1.007,-0.935 h -4.245 c -0.544,0 -1.007,0.39 -1.007,0.935 v 38.566 c 0,2.975 -3.1,5.968 -8.13,3.453 l -9.21,-5.396 c -0.326,-0.177 -0.576,-0.49 -0.576,-0.863 v -39.07 c 0,-0.37 0.247,-0.747 0.576,-0.935 L 470.547,57.8 a 0.998,0.998 0 0 1 1.007,0 l 33.817,19.498 c 0.322,0.194 0.576,0.553 0.576,0.936 v 39.069 c 0,0.373 -0.188,0.755 -0.504,0.935 l -33.889,19.498 c -0.29,0.173 -0.69,0.173 -1.007,0 l -8.706,-5.18 a 0.905,0.905 0 0 0 -0.863,0 c -2.403,1.362 -2.855,1.52 -5.109,2.302 -0.555,0.194 -1.398,0.495 0.288,1.44 l 11.368,6.69 a 6.995,6.995 0 0 0 3.526,0.936 6.949,6.949 0 0 0 3.525,-0.935 l 33.889,-19.499 c 2.193,-1.275 3.525,-3.65 3.525,-6.187 v -39.07 c 0,-2.538 -1.332,-4.92 -3.525,-6.187 l -33.889,-19.57 c -1.062,-0.607 -2.28,-0.864 -3.525,-0.864 z"
                     id="path740" />
                  <path
                     d="m 480.12,79.528 c -9.65,0 -15.397,4.107 -15.397,10.937 0,7.408 5.704,9.444 14.966,10.36 11.08,1.085 11.943,2.712 11.943,4.893 0,3.783 -3.016,5.396 -10.144,5.396 -8.957,0 -10.925,-2.236 -11.584,-6.691 -0.078,-0.478 -0.447,-0.864 -0.936,-0.864 h -4.389 c -0.54,0 -1.007,0.466 -1.007,1.008 0,5.703 3.102,12.447 17.916,12.447 10.723,0 16.908,-4.209 16.908,-11.584 0,-7.31 -4.996,-9.273 -15.398,-10.648 -10.51,-1.391 -11.512,-2.072 -11.512,-4.533 0,-2.032 0.85,-4.75 8.634,-4.75 6.954,0 9.524,1.5 10.577,6.189 0.092,0.44 0.48,0.791 0.935,0.791 h 4.39 c 0.27,0 0.532,-0.166 0.719,-0.36 0.184,-0.207 0.314,-0.44 0.288,-0.719 -0.68,-8.074 -6.064,-11.872 -16.909,-11.872 z"
                     id="path742" />
                </g>
              </g>
            </g>
          </g>
        </g>
      </g>
    </g>
  </g>
</svg>
