<?xml version="1.0" encoding="UTF-8"?>
<svg width="60" height="40" version="1.1" viewBox="0 0 60 40" xmlns="http://www.w3.org/2000/svg" xmlns:cc="http://creativecommons.org/ns#" xmlns:dc="http://purl.org/dc/elements/1.1/" xmlns:rdf="http://www.w3.org/1999/02/22-rdf-syntax-ns#" xmlns:xlink="http://www.w3.org/1999/xlink">
 <metadata>
  <rdf:RDF>
   <cc:Work rdf:about="">
    <dc:format>image/svg+xml</dc:format>
    <dc:type rdf:resource="http://purl.org/dc/dcmitype/StillImage"/>
   </cc:Work>
  </rdf:RDF>
 </metadata>
 <defs>
  <clipPath id="clip134">
   <rect width="167" height="205"/>
  </clipPath>
  <clipPath id="clip135">
   <path d="m0 204.8h166.4v-204.8h-166.4z"/>
  </clipPath>
  <clipPath id="clip136">
   <path d="m0 204.8h166.4v-204.8h-166.4z"/>
  </clipPath>
  <clipPath id="clip137">
   <path d="m0 204.8h167v-205h-167z"/>
  </clipPath>
  <clipPath id="clip138">
   <rect width="167" height="205"/>
  </clipPath>
  <clipPath id="clip139">
   <rect width="167" height="205"/>
  </clipPath>
  <clipPath id="clip140">
   <path d="m0 204.8h166.4v-204.8h-166.4z"/>
  </clipPath>
  <clipPath id="clip141">
   <path d="m0 204.8h166.4v-204.8h-166.4z"/>
  </clipPath>
  <clipPath id="clip142">
   <path d="m0 204.8h167v-205h-167z"/>
  </clipPath>
  <clipPath id="clip143">
   <path d="m0 204.8h167v-205h-167z"/>
  </clipPath>
  <clipPath id="clip144">
   <path d="m0 204.8h167v-205h-167z"/>
  </clipPath>
  <clipPath>
   <path d="m113.37 5.9062 47.73 47.73-0.56641 0.5625-47.73-47.727z"/>
  </clipPath>
 </defs>
 <mask id="a" fill="#ffffff">
  <path d="m0 0h313.3v159.86h-313.3z" fill="#fff" fill-rule="evenodd"/>
 </mask>
 <mask id="b" fill="#ffffff">
  <path d="m0 0h313.3v159.86h-313.3z" fill="#fff" fill-rule="evenodd"/>
 </mask>
 <g>
  <g transform="matrix(.49527 0 0 .49527 5.0758 3.2126)">
   <g fill="#050544">
    <polygon class="st0" transform="matrix(1.6152 0 0 1.6152 -24.584 -106.93)" points="9 99.9 30.6 112.3 52.2 99.9 52.2 75 30.6 62.5 9 75"/>
    <path class="st0" d="m69.72 49.413 25.308 14.568 25.185-14.568v-29.012l-25.185-14.568-25.308 14.568zm25.308 17.901-28.148-16.173v-32.468l28.024-16.173 28.024 16.173v32.468z" stroke-width="1.2345"/>
    <path class="st0" d="m100.58 104.21 25.308 14.568 25.185-14.568v-29.012l-25.185-14.568-25.308 14.568zm25.308 17.901-28.148-16.173v-32.468l28.024-16.173 28.024 16.173v32.468z" stroke-width="1.2345"/>
    <polygon class="st0" transform="matrix(1.2345 0 0 1.2345 26.14 -17.499)" points="30.6 112.3 52.2 99.9 52.2 75 30.6 62.5 9 75 9 99.9"/>
   </g>
   <g transform="matrix(.66255 0 0 .66255 89.519 7.1168)">
    <g transform="matrix(.24729 0 0 .24729 -288.01 14.96)">
     <g transform="matrix(1.3001 0 0 1.3001 -148.19 18.617)">
      <g transform="translate(623.37 -38.632)" clip-path="url(#clip134)">
       <g clip-path="url(#clip135)">
        <g clip-path="url(#clip136)">
         <g clip-path="url(#clip137)">
          <g clip-path="url(#clip138)">
           <g clip-path="url(#clip139)">
            <g clip-path="url(#clip140)">
             <g clip-path="url(#clip141)">
              <g clip-path="url(#clip142)">
               <g clip-path="url(#clip143)">
                <g clip-path="url(#clip144)"></g>
               </g>
              </g>
             </g>
            </g>
           </g>
          </g>
         </g>
        </g>
       </g>
      </g>
      <g transform="matrix(5.1718 0 0 5.1718 253.17 -98.171)">
       <g>
        <g transform="matrix(.56866 0 0 .56866 -180.1 -23.847)" fill="#fff">
         <path d="m471.05 51.611c-1.244 0-2.454 0.257-3.525 0.863l-33.888 19.57c-2.193 1.264-3.526 3.65-3.526 6.189v39.069c0 2.537 1.333 4.92 3.526 6.187l8.85 5.109c4.3 2.119 5.885 2.086 7.842 2.086 6.366 0 10.001-3.863 10.001-10.576v-38.566c0-0.545-0.472-0.935-1.007-0.935h-4.245c-0.544 0-1.007 0.39-1.007 0.935v38.566c0 2.975-3.1 5.968-8.13 3.453l-9.21-5.396c-0.326-0.177-0.576-0.49-0.576-0.863v-39.07c0-0.37 0.247-0.747 0.576-0.935l33.816-19.497a0.998 0.998 0 0 1 1.007 0l33.817 19.498c0.322 0.194 0.576 0.553 0.576 0.936v39.069c0 0.373-0.188 0.755-0.504 0.935l-33.889 19.498c-0.29 0.173-0.69 0.173-1.007 0l-8.706-5.18a0.905 0.905 0 0 0-0.863 0c-2.403 1.362-2.855 1.52-5.109 2.302-0.555 0.194-1.398 0.495 0.288 1.44l11.368 6.69a6.995 6.995 0 0 0 3.526 0.936 6.949 6.949 0 0 0 3.525-0.935l33.889-19.499c2.193-1.275 3.525-3.65 3.525-6.187v-39.07c0-2.538-1.332-4.92-3.525-6.187l-33.889-19.57c-1.062-0.607-2.28-0.864-3.525-0.864z"/>
         <path d="m480.12 79.528c-9.65 0-15.397 4.107-15.397 10.937 0 7.408 5.704 9.444 14.966 10.36 11.08 1.085 11.943 2.712 11.943 4.893 0 3.783-3.016 5.396-10.144 5.396-8.957 0-10.925-2.236-11.584-6.691-0.078-0.478-0.447-0.864-0.936-0.864h-4.389c-0.54 0-1.007 0.466-1.007 1.008 0 5.703 3.102 12.447 17.916 12.447 10.723 0 16.908-4.209 16.908-11.584 0-7.31-4.996-9.273-15.398-10.648-10.51-1.391-11.512-2.072-11.512-4.533 0-2.032 0.85-4.75 8.634-4.75 6.954 0 9.524 1.5 10.577 6.189 0.092 0.44 0.48 0.791 0.935 0.791h4.39c0.27 0 0.532-0.166 0.719-0.36 0.184-0.207 0.314-0.44 0.288-0.719-0.68-8.074-6.064-11.872-16.909-11.872z"/>
        </g>
       </g>
      </g>
     </g>
    </g>
   </g>
  </g>
 </g>
</svg>
