<?xml version="1.0" encoding="UTF-8"?>
<svg width="60" height="40" version="1.1" viewBox="0 0 60 40" xmlns="http://www.w3.org/2000/svg" xmlns:cc="http://creativecommons.org/ns#" xmlns:dc="http://purl.org/dc/elements/1.1/" xmlns:rdf="http://www.w3.org/1999/02/22-rdf-syntax-ns#" xmlns:xlink="http://www.w3.org/1999/xlink">
 <metadata>
  <rdf:RDF>
   <cc:Work rdf:about="">
    <dc:format>image/svg+xml</dc:format>
    <dc:type rdf:resource="http://purl.org/dc/dcmitype/StillImage"/>
   </cc:Work>
  </rdf:RDF>
 </metadata>
 <defs>
  <clipPath id="clip134">
   <rect width="167" height="205"/>
  </clipPath>
  <clipPath id="clip135">
   <path d="m0 204.8h166.4v-204.8h-166.4z"/>
  </clipPath>
  <clipPath id="clip136">
   <path d="m0 204.8h166.4v-204.8h-166.4z"/>
  </clipPath>
  <clipPath id="clip137">
   <path d="m0 204.8h167v-205h-167z"/>
  </clipPath>
  <clipPath id="clip138">
   <rect width="167" height="205"/>
  </clipPath>
  <clipPath id="clip139">
   <rect width="167" height="205"/>
  </clipPath>
  <clipPath id="clip140">
   <path d="m0 204.8h166.4v-204.8h-166.4z"/>
  </clipPath>
  <clipPath id="clip141">
   <path d="m0 204.8h166.4v-204.8h-166.4z"/>
  </clipPath>
  <clipPath id="clip142">
   <path d="m0 204.8h167v-205h-167z"/>
  </clipPath>
  <clipPath id="clip143">
   <path d="m0 204.8h167v-205h-167z"/>
  </clipPath>
  <clipPath id="clip144">
   <path d="m0 204.8h167v-205h-167z"/>
  </clipPath>
  <clipPath>
   <path d="m113.37 5.9062 47.73 47.73-0.56641 0.5625-47.73-47.727z"/>
  </clipPath>
  <linearGradient id="SVGID_20_" x1="-7802.6" x2="-7726.6" y1="-1102" y2="-1102" gradientTransform="matrix(.4226 -.9063 .9063 .4226 4442.7 -6372.7)" gradientUnits="userSpaceOnUse">
   <stop stop-color="#9E2064" offset=".3233"/>
   <stop stop-color="#C92037" offset=".6302"/>
   <stop stop-color="#CD2335" offset=".7514"/>
   <stop stop-color="#E97826" offset="1"/>
  </linearGradient>
  <linearGradient id="linearGradient41254" x1="-7802.6" x2="-7726.6" y1="-1102" y2="-1102" gradientTransform="matrix(.4226 -.9063 .9063 .4226 4442.7 -6372.7)" gradientUnits="userSpaceOnUse" xlink:href="#SVGID_20_"/>
 </defs>
 <mask id="a" fill="#ffffff">
  <path d="m0 0h313.3v159.86h-313.3z" fill="#fff" fill-rule="evenodd"/>
 </mask>
 <mask id="b" fill="#ffffff">
  <path d="m0 0h313.3v159.86h-313.3z" fill="#fff" fill-rule="evenodd"/>
 </mask>
 <g>
  <g transform="matrix(.49527 0 0 .49527 5.0758 3.2126)">
   <g fill="#050544">
    <polygon class="st0" transform="matrix(1.6152 0 0 1.6152 -24.584 -106.93)" points="9 99.9 30.6 112.3 52.2 99.9 52.2 75 30.6 62.5 9 75"/>
    <path class="st0" d="m69.72 49.413 25.308 14.568 25.185-14.568v-29.012l-25.185-14.568-25.308 14.568zm25.308 17.901-28.148-16.173v-32.468l28.024-16.173 28.024 16.173v32.468z" stroke-width="1.2345"/>
    <path class="st0" d="m100.58 104.21 25.308 14.568 25.185-14.568v-29.012l-25.185-14.568-25.308 14.568zm25.308 17.901-28.148-16.173v-32.468l28.024-16.173 28.024 16.173v32.468z" stroke-width="1.2345"/>
    <polygon class="st0" transform="matrix(1.2345 0 0 1.2345 26.14 -17.499)" points="30.6 112.3 52.2 99.9 52.2 75 30.6 62.5 9 75 9 99.9"/>
   </g>
   <g transform="matrix(.66255 0 0 .66255 89.519 7.1168)">
    <g transform="matrix(.24729 0 0 .24729 -288.01 14.96)">
     <g transform="matrix(1.3001 0 0 1.3001 -148.19 18.617)">
      <g transform="translate(623.37 -38.632)" clip-path="url(#clip134)">
       <g clip-path="url(#clip135)">
        <g clip-path="url(#clip136)">
         <g clip-path="url(#clip137)">
          <g clip-path="url(#clip138)">
           <g clip-path="url(#clip139)">
            <g clip-path="url(#clip140)">
             <g clip-path="url(#clip141)">
              <g clip-path="url(#clip142)">
               <g clip-path="url(#clip143)">
                <g clip-path="url(#clip144)"></g>
               </g>
              </g>
             </g>
            </g>
           </g>
          </g>
         </g>
        </g>
       </g>
      </g>
      <g transform="matrix(5.1718 0 0 5.1718 253.17 -98.171)">
       <g>
        <g transform="matrix(.27072 0 0 .27072 -20.848 13.255)" fill-rule="evenodd">
         <g transform="matrix(.68206 0 0 .68206 305.51 -67.449)">
          <polygon points="" fill="#be202e"/>
          <polygon points="" fill="#be202e" opacity=".35"/>
          <polygon points="" fill="url(#linearGradient41254)"/>
         </g>
         <g transform="matrix(.68206 0 0 .68206 -100.71 -67.449)">
          <polygon points="" fill="#be202e"/>
          <polygon points="" fill="#be202e" opacity=".35"/>
          <polygon points="" fill="url(#linearGradient41254)"/>
          <g transform="matrix(.59918 0 0 .59918 190.74 76.987)" fill="none" fill-rule="nonzero" stroke="#fff" stroke-linecap="round" stroke-linejoin="round" stroke-width="12.465">
           <g transform="translate(662.66)">
            <path d="m323.2 324.23c2.833-23.601 1.984-27.062 19.563-23.239l4.463 0.392c13.517 0.615 31.199-2.174 41.587-7 22.362-10.376 35.622-27.7 13.572-23.148-50.297 10.376-53.755-6.655-53.755-6.655 53.111-78.803 75.313-178.84 56.149-203.32-52.27-66.789-142.75-35.206-144.26-34.386l-0.482 0.089c-9.938-2.062-21.06-3.294-33.554-3.496-22.761-0.374-40.032 5.967-53.133 15.904 0 0-161.41-66.498-153.9 83.628 1.597 31.936 45.777 241.66 98.47 178.31 19.259-23.163 37.871-42.748 37.871-42.748 9.242 6.14 20.307 9.272 31.912 8.147l0.897-0.765c-0.281 2.876-0.157 5.689 0.359 9.019-13.572 15.167-9.584 17.83-36.723 23.416-27.457 5.659-11.326 15.734-0.797 18.367 12.768 3.193 42.305 7.716 62.268-20.224l-0.795 3.188c5.325 4.26 4.965 30.619 5.72 49.452 0.756 18.834 2.017 36.409 5.856 46.771 3.839 10.36 8.369 37.05 44.036 29.406 29.809-6.388 52.6-15.582 54.677-101.11" fill="#000" stroke="#b8b8fa" stroke-linecap="butt" stroke-linejoin="miter" stroke-width="37.395"/>
            <path d="m402.4 271.23c-50.302 10.376-53.76-6.655-53.76-6.655 53.111-78.808 75.313-178.84 56.153-203.33-52.27-66.785-142.75-35.2-144.26-34.38l-0.486 0.087c-9.938-2.063-21.06-3.292-33.56-3.496-22.761-0.373-40.026 5.967-53.127 15.902 0 0-161.41-66.495-153.9 83.63 1.597 31.938 45.776 241.66 98.471 178.31 19.26-23.163 37.869-42.748 37.869-42.748 9.243 6.14 20.308 9.272 31.908 8.147l0.901-0.765c-0.28 2.876-0.152 5.689 0.361 9.019-13.575 15.167-9.586 17.83-36.723 23.416-27.459 5.659-11.328 15.734-0.796 18.367 12.768 3.193 42.307 7.716 62.266-20.224l-0.796 3.188c5.319 4.26 9.054 27.711 8.428 48.969-0.626 21.259-1.044 35.854 3.147 47.254s8.368 37.05 44.042 29.406c29.809-6.388 45.256-22.942 47.405-50.555 1.525-19.631 4.976-16.729 5.194-34.28l2.768-8.309c3.192-26.611 0.507-35.196 18.872-31.203l4.463 0.392c13.517 0.615 31.208-2.174 41.591-7 22.358-10.376 35.618-27.7 13.573-23.148z" fill="#fff" stroke="none"/>
            <g stroke="#050544">
             <path d="m215.87 286.48c-1.385 49.516 0.348 99.377 5.193 111.5 4.848 12.118 15.223 35.688 50.9 28.045 29.806-6.39 40.651-18.756 45.357-46.051 3.466-20.082 10.148-75.854 11.005-87.281"/>
             <path d="m173.1 38.256s-161.52-66.016-154.01 84.109c1.597 31.938 45.779 241.66 98.473 178.32 19.256-23.166 36.671-41.335 36.671-41.335"/>
             <path d="m260.35 26.207c-5.591 1.753 89.848-34.889 144.09 34.417 19.159 24.484-3.043 124.52-56.153 203.33"/>
             <path d="m348.28 263.95s3.461 17.036 53.764 6.653c22.04-4.552 8.776 12.774-13.577 23.155-18.345 8.514-59.474 10.696-60.146-1.069-1.729-30.355 21.647-21.133 19.96-28.739-1.525-6.85-11.979-13.573-18.894-30.338-6.037-14.633-82.796-126.85 21.287-110.18 3.813-0.789-27.146-99.002-124.55-100.6-97.385-1.597-94.19 119.76-94.19 119.76" stroke-linejoin="bevel"/>
             <path d="m188.6 274.33c-13.577 15.166-9.584 17.829-36.723 23.417-27.459 5.66-11.326 15.733-0.797 18.365 12.768 3.195 42.307 7.718 62.266-20.229 6.078-8.509-0.036-22.086-8.385-25.547-4.034-1.671-9.428-3.765-16.361 3.994z"/>
             <path d="m187.72 274.07c-1.368-8.917 2.93-19.528 7.536-31.942 6.922-18.626 22.893-37.255 10.117-96.339-9.523-44.029-73.396-9.163-73.436-3.193-0.039 5.968 2.889 30.26-1.067 58.548-5.162 36.913 23.488 68.132 56.479 64.938" fill="none"/>
             <path d="m172.52 141.7c-0.288 2.039 3.733 7.48 8.976 8.207 5.234 0.73 9.714-3.522 9.998-5.559 0.284-2.039-3.732-4.285-8.977-5.015-5.237-0.731-9.719 0.333-9.996 2.367z" fill="#050544" stroke-linecap="butt" stroke-linejoin="miter" stroke-width="4.155"/>
             <path d="m331.94 137.54c0.284 2.039-3.732 7.48-8.976 8.207-5.238 0.73-9.718-3.522-10.005-5.559-0.277-2.039 3.74-4.285 8.979-5.015s9.718 0.333 10.002 2.368z" fill="#050544" stroke-linecap="butt" stroke-linejoin="miter" stroke-width="2.0775"/>
             <path d="m350.68 123.43c0.863 15.994-3.445 26.888-3.988 43.914-0.804 24.748 11.799 53.074-7.191 81.435"/>
            </g>
            <path d="m0 60.232" stroke-width="3"/>
           </g>
          </g>
         </g>
        </g>
       </g>
      </g>
     </g>
    </g>
   </g>
  </g>
 </g>
</svg>
