<?xml version="1.0" encoding="UTF-8" standalone="no"?>
<svg
   xmlns:dc="http://purl.org/dc/elements/1.1/"
   xmlns:cc="http://creativecommons.org/ns#"
   xmlns:rdf="http://www.w3.org/1999/02/22-rdf-syntax-ns#"
   xmlns:svg="http://www.w3.org/2000/svg"
   xmlns="http://www.w3.org/2000/svg"
   xmlns:xlink="http://www.w3.org/1999/xlink"
   xmlns:sodipodi="http://sodipodi.sourceforge.net/DTD/sodipodi-0.dtd"
   xmlns:inkscape="http://www.inkscape.org/namespaces/inkscape"
   width="40"
   height="40"
   version="1.1"
   viewBox="0 0 40 40"
   id="svg68"
   sodipodi:docname="vdi-chrome.svg"
   inkscape:version="1.0.2 (e86c870879, 2021-01-15)">
  <sodipodi:namedview
     pagecolor="#ffffff"
     bordercolor="#666666"
     borderopacity="1"
     objecttolerance="10"
     gridtolerance="10"
     guidetolerance="10"
     inkscape:pageopacity="0"
     inkscape:pageshadow="2"
     inkscape:window-width="1920"
     inkscape:window-height="1016"
     id="namedview70"
     showgrid="false"
     inkscape:zoom="4.94375"
     inkscape:cx="50.920153"
     inkscape:cy="21.702771"
     inkscape:window-x="0"
     inkscape:window-y="0"
     inkscape:window-maximized="1"
     inkscape:current-layer="g64" />
  <metadata
     id="metadata2">
    <rdf:RDF>
      <cc:Work
         rdf:about="">
        <dc:format>image/svg+xml</dc:format>
        <dc:type
           rdf:resource="http://purl.org/dc/dcmitype/StillImage" />
        <dc:title></dc:title>
      </cc:Work>
    </rdf:RDF>
  </metadata>
  <defs
     id="defs22">
    <path
       id="F"
       d="m 8,184 h 83.77 l 38.88,-38.88 V 116 H 61.35 L 8,24.48 Z" />
    <path
       id="I"
       d="m 96,56 34.65,60 -38.88,68 H 184 V 56 Z" />
    <clipPath
       id="J-0">
      <use
         width="100%"
         height="100%"
         xlink:href="#I"
         id="use6"
         x="0"
         y="0" />
    </clipPath>
    <linearGradient
       id="D-0"
       x1="29.34"
       x2="81.839996"
       y1="75.019997"
       y2="44.349998"
       gradientTransform="matrix(1.0805,0,0,1.1878,-14.807,-21.786)"
       gradientUnits="userSpaceOnUse">
      <stop
         stop-color="#a52714"
         stop-opacity=".6"
         offset="0"
         id="stop9" />
      <stop
         stop-color="#a52714"
         stop-opacity="0"
         offset=".66"
         id="stop11" />
    </linearGradient>
    <clipPath
       id="G-5">
      <use
         width="100%"
         height="100%"
         xlink:href="#F"
         id="use14"
         x="0"
         y="0" />
    </clipPath>
    <linearGradient
       id="H-05"
       x1="121.9"
       x2="136.60001"
       y1="49.799999"
       y2="114.1"
       gradientUnits="userSpaceOnUse">
      <stop
         stop-color="#ea6100"
         stop-opacity=".3"
         offset="0"
         id="stop17" />
      <stop
         stop-color="#ea6100"
         stop-opacity="0"
         offset=".66"
         id="stop19" />
    </linearGradient>
  </defs>
  <mask
     id="a"
     fill="#ffffff">
    <path
       d="M 0,0 H 313.3 V 159.86 H 0 Z"
       fill="#ffffff"
       fill-rule="evenodd"
       id="path24" />
  </mask>
  <mask
     id="b"
     fill="#ffffff">
    <path
       d="M 0,0 H 313.3 V 159.86 H 0 Z"
       fill="#ffffff"
       fill-rule="evenodd"
       id="path27" />
  </mask>
  <g
     id="g66">
    <g
       transform="matrix(0.49527,0,0,0.49527,5.0758,3.2126)"
       id="g64">
      <g
         fill="#72420b"
         id="g36" />
      <g
         transform="translate(4.0382015,7.1925)"
         id="g62">
        <g
           stroke-width="0.39716"
           id="g44">
          <path
             d="m -10.047,7.0176 5.3891,30.256 h 15.648 l 13.754,-23.829 h 34.95 l 0.03729,-6.4271 -34.889,-20.19 z"
             fill="#db9137"
             id="path38" />
          <path
             d="M -10.047,47.237 21.625,65.432 38.505,48.84 V 37.275 H 10.982 L -10.047,7.019 Z"
             fill="#9d5b0f"
             id="path40" />
          <path
             class="D"
             d="m 38.167,37.79 -0.32964,-0.19069 -15.251,26.669 h 0.45674 l 15.132,-26.466 z"
             fill="#263238"
             fill-opacity="0.15"
             id="path42" />
        </g>
        <g
           transform="matrix(0.39716,0,0,0.39716,-13.384,-8.7961)"
           clip-path="url(#G-5)"
           id="g50">
          <path
             d="m 96,56 34.65,60 -38.88,68 H 184 V 56 Z"
             fill="#ffcd40"
             id="path46" />
          <path
             d="m 96,56 34.65,60 -38.88,68 H 184 V 56 Z"
             fill="url(#H-05)"
             id="path48"
             style="fill:url(#H-05)" />
        </g>
        <path
           d="m 24.743,13.445 13.761,23.829 -16.88,28.157 3.2167,1.8339 34.889,-20.029 -0.03729,-33.792 z"
           fill="#ffbc40"
           stroke-width="0.39716"
           id="path52" />
        <g
           transform="matrix(0.39716,0,0,0.39716,-13.384,-8.7961)"
           clip-path="url(#J-0)"
           id="g56">
          <path
             d="m 37.907,9.0866 -28.976,106.91 c -106.95,-103.23 -28.897,-80.828 80.081,-76.183 h 95.082 L 157.197,7.2716 Z"
             fill="url(#D-0)"
             stroke-width="1.1329"
             id="path54"
             style="fill:url(#D-0)" />
        </g>
        <circle
           cx="24.434"
           cy="29.072001"
           r="17.362"
           fill="#f1f1f1"
           stroke-width="0.43405"
           id="circle58" />
        <circle
           cx="24.434"
           cy="29.072001"
           r="13.89"
           fill="#f4a642"
           stroke-width="0.43405"
           id="circle60" />
      </g>
    </g>
  </g>
</svg>
